<svg
   xmlns:dc="http://purl.org/dc/elements/1.1/"
   xmlns="http://www.w3.org/2000/svg"
   id="svg861"
   version="1.1"
   viewBox="0 0 5.2916665 5.2916668"
   height="20"
   width="20">
  <g
     transform="translate(0,-291.70832)">
    <path
       d="m 0.44711733,292.83693 c 0.0872447,0 0.17448948,0 0.26173422,0 0.21667102,-10e-4 0.43331655,10e-4 0.64996795,0.004 0.2090437,0.002 0.418063,0.007 0.627029,0.0127 0.1521349,0.005 0.3040607,0.0137 0.456002,0.0223 0.1588382,0.009 0.3179597,0.009 0.476968,0.006 0.1605891,-0.005 0.320984,-0.0138 0.4814898,-0.0203 0.1390504,-0.006 0.2778969,-0.0161 0.4167409,-0.0258 0.1200719,-0.009 0.2404449,-0.0123 0.3608084,-0.0141 0.098646,-10e-4 0.1973008,-9.4e-4 0.2959515,-8.8e-4 0.070861,1.6e-4 0.1417005,-0.001 0.2124787,0.003 0.036143,0.002 0.071984,0.006 0.1077521,0.0107 0.017579,0.002 0.006,5.8e-4 0.034545,0.006 0.2451833,0.0556 0.1666052,0.40231 -0.078578,0.34675 v 0 c 0.011086,0.001 0.00865,9.9e-4 -0.00726,-10e-4 -0.025389,-0.004 -0.050666,-0.007 -0.076396,-0.008 -0.064189,-0.004 -0.1284859,-0.002 -0.1927532,-0.002 -0.096788,-6e-5 -0.19358,-1.9e-4 -0.2903641,8.5e-4 -0.1139005,0.002 -0.2278136,0.005 -0.3414371,0.0133 -0.1422567,0.01 -0.2845178,0.0199 -0.4269878,0.0264 -0.1630751,0.007 -0.3260346,0.0161 -0.4891989,0.0206 -0.1679866,0.003 -0.3360921,0.004 -0.5038971,-0.006 -0.1486436,-0.008 -0.2972705,-0.0173 -0.4461031,-0.0219 -0.2069246,-0.006 -0.413902,-0.0104 -0.6209037,-0.0125 -0.2152799,-0.002 -0.43055355,-0.005 -0.64585305,-0.004 -0.0872447,0 -0.17448948,0 -0.26173422,0 -0.25140038,0 -0.25140038,-0.35554 0,-0.35554 z"
       
        />
    <path
       d="m 0.54706157,293.08428 c -0.007758,0.0506 -0.0169807,0.10075 -0.0226624,0.15169 -0.005613,0.0556 -0.006724,0.11168 -0.007459,0.16762 -5.3181e-4,0.0625 -3.7042e-4,0.12499 -3.0692e-4,0.18748 -0.002045,0.0697 -0.005145,0.13927 -0.006712,0.20896 -0.001318,0.0715 -0.001368,0.14291 -0.001458,0.21436 5.6356e-4,0.0748 -0.00123,0.1496 9.1281e-4,0.22434 0.003139,0.0724 0.005309,0.1448 0.006428,0.21726 9.5514e-4,0.0774 9.7631e-4,0.1547 0.001016,0.23204 1.328e-5,0.0627 -1.948e-5,0.12524 -3.715e-5,0.18785 -1.363e-5,0.0502 -1.609e-5,0.10052 -1.778e-5,0.15074 -1.01e-6,0.0449 -6.9e-7,0.0899 -5.3e-7,0.13489 7.3554e-4,0.04 0.006894,0.0793 0.012047,0.11874 0.008621,0.0538 0.0152315,0.10804 0.0212127,0.16238 0.007438,0.0553 0.0117348,0.11098 0.0144642,0.16673 0.004098,0.0417 0.006702,0.0837 0.008555,0.12571 0.0014,0.0339 0.001577,0.0678 0.001667,0.10169 2.265e-5,0.0253 -2.289e-5,0.0507 -4.146e-5,0.0759 -1.461e-5,0.0215 -2.019e-5,0.0431 -2.384e-5,0.0646 -5.001e-5,0.29555 -0.35558386,0.29547 -0.35553384,-9e-5 v 0 c 3.66e-6,-0.0216 9.28e-6,-0.0433 2.397e-5,-0.0649 1.818e-5,-0.0248 6.183e-5,-0.0495 4.292e-5,-0.0743 -6.758e-5,-0.0272 -1.4285e-4,-0.0544 -0.001204,-0.0816 -0.001763,-0.0414 -0.005026,-0.0825 -0.008464,-0.12373 -0.002084,-0.0459 -0.005961,-0.0915 -0.0121199,-0.1368 -0.005509,-0.0509 -0.0119523,-0.10181 -0.0199957,-0.15223 -0.007872,-0.0604 -0.0160198,-0.12085 -0.0161623,-0.18215 -1.5e-7,-0.045 -4.8e-7,-0.0899 5.4e-7,-0.1349 1.67e-6,-0.0503 4.16e-6,-0.10063 1.778e-5,-0.15087 1.763e-5,-0.0624 5.031e-5,-0.12497 3.721e-5,-0.18745 -3.988e-5,-0.0749 -5.244e-5,-0.14987 -9.5936e-4,-0.2248 -0.001065,-0.0707 -0.003339,-0.14131 -0.006318,-0.21193 -0.001923,-0.0792 -8.5554e-4,-0.15852 -0.00108,-0.23779 9.476e-5,-0.075 1.6199e-4,-0.14993 0.001583,-0.22488 0.001502,-0.0658 0.003972,-0.13157 0.006587,-0.19733 -6.368e-5,-0.0649 -2.3231e-4,-0.12973 3.5251e-4,-0.1946 9.9907e-4,-0.0724 0.002868,-0.14492 0.0106022,-0.21685 0.006076,-0.052 0.0138614,-0.10357 0.0230474,-0.15494 0.0355534,-0.29258 0.38751394,-0.23347 0.35196054,0.0591 z"
       
        />
    <path
       d="m 0.44490126,295.94026 c 0.0431538,0.0146 0.0878731,0.0233 0.13255969,0.0316 0.11354281,0.0192 0.22813885,0.0323 0.34274074,0.0433 0.0827573,0.008 0.16591801,0.01 0.24881901,0.016 0.050357,0.005 0.1007108,0.009 0.1511631,0.0128 0.07485,0.006 0.1499057,0.008 0.224873,0.0111 0.090888,0.005 0.1819153,0.005 0.2729021,0.006 0.070853,5e-4 0.1417079,5.3e-4 0.2125622,5e-4 0.068522,-3e-5 0.137043,-5e-5 0.2055644,-7e-5 0.088772,-0.002 0.1772158,0.005 0.2655835,0.0127 0.102403,0.009 0.2052082,0.01 0.3079099,0.0113 0.1047639,2.9e-4 0.2095714,0.002 0.3143205,0 0.076142,-0.005 0.1522288,-0.0121 0.2279859,-0.0213 0.072794,-0.01 0.1454915,-0.0197 0.2185982,-0.0267 0.080232,-0.006 0.1604193,-0.0129 0.2407132,-0.0182 0.070556,-0.007 0.141256,-0.0111 0.2120585,-0.0138 0.069381,-0.002 0.1388144,-0.003 0.2081961,-8.5e-4 0.060594,0.002 0.1211482,0.005 0.1816394,0.009 0.055661,0.004 0.1112345,0.009 0.1666062,0.0156 0.024842,0.003 0.049718,0.006 0.074762,0.007 0.015917,3.7e-4 0.031841,4.3e-4 0.047763,4.5e-4 0.2513997,6.6e-4 0.25047,0.35619 -9.26e-4,0.35553 v 0 c -0.020241,-5e-5 -0.040484,-1.1e-4 -0.060718,-7.1e-4 -0.034837,-10e-4 -0.069528,-0.005 -0.104086,-0.009 -0.049215,-0.006 -0.098614,-0.0106 -0.1480915,-0.0139 -0.055762,-0.004 -0.111579,-0.006 -0.167436,-0.008 -0.061375,-0.002 -0.122831,-3.2e-4 -0.1842125,7.6e-4 -0.067466,0.003 -0.1348081,0.007 -0.2020429,0.0132 -0.076878,0.005 -0.153646,0.0116 -0.2304701,0.0174 -0.070126,0.007 -0.1397908,0.0168 -0.2096302,0.0258 -0.0874,0.0105 -0.1751682,0.019 -0.263063,0.0238 -0.1088692,0.002 -0.2177815,5.5e-4 -0.3266638,4e-5 -0.1107504,-0.001 -0.2216002,-0.003 -0.3320243,-0.0125 -0.078761,-0.006 -0.1575707,-0.0133 -0.2367051,-0.0115 -0.068516,10e-6 -0.1370313,3e-5 -0.2055469,6e-5 -0.071853,2e-5 -0.1437057,-10e-6 -0.2155569,-5.3e-4 -0.095649,-7.9e-4 -0.1913382,-0.002 -0.2868829,-0.007 -0.078098,-0.004 -0.1562899,-0.006 -0.2342607,-0.0117 -0.050324,-0.004 -0.1005648,-0.008 -0.1507891,-0.0127 -0.085672,-0.006 -0.17164515,-0.008 -0.25714972,-0.0167 -0.1252075,-0.0122 -0.2504222,-0.0264 -0.37441849,-0.0478 -0.0715032,-0.0137 -0.14345224,-0.0282 -0.21104158,-0.0561 -0.2297326,-0.1021 -0.0853366,-0.42699 0.14439595,-0.32489 z"
       
        />
    <path
       d="m 5.0064127,293.04248 c 6.879e-4,0.0732 -5.61e-5,0.14629 -0.00364,0.21939 -0.0077,0.10416 -0.015886,0.20832 -0.025215,0.31235 -0.00771,0.0987 -0.01248,0.19776 -0.018328,0.29668 -0.0069,0.13443 -0.00885,0.26911 -0.012496,0.40369 -0.00388,0.16025 -0.012933,0.3203 -0.020672,0.48036 -0.00501,0.10904 -0.00837,0.21812 -0.010144,0.32727 6.615e-4,0.0442 -0.00266,0.0886 1.611e-4,0.13279 0.003,0.0407 0.00869,0.081 0.011991,0.12177 0.00402,0.0354 0.00841,0.0707 0.012774,0.10609 0.00756,0.0423 0.011486,0.0851 0.013946,0.12807 0.0019,0.0444 0.00124,0.0887 0.00405,0.13312 0.00305,0.0417 0.00475,0.0835 0.00568,0.12535 6.085e-4,0.0348 6.085e-4,0.0696 6.085e-4,0.10439 2.633e-4,0.008 -2.503e-4,0.0165 -1.54e-5,0.0248 8.97e-5,0.003 -4.497e-4,-0.007 7.68e-5,-0.009 2.91e-4,-10e-4 4.762e-4,0.003 6.879e-4,0.005 0.0013,0.0102 0.00164,0.0138 0.00283,0.0247 0.00324,0.0292 0.00404,0.0586 0.00449,0.0881 1.452e-4,0.0158 9.1e-5,0.008 1.664e-4,0.0232 0.00135,0.28493 -0.3541721,0.28711 -0.3555288,0.002 v 0 c -5.69e-5,-0.0125 -1.62e-5,-0.007 -1.215e-4,-0.0187 -2.106e-4,-0.0151 -3.175e-4,-0.0303 -0.00185,-0.0452 -0.00339,-0.0314 -0.00761,-0.0628 -0.00628,-0.0946 -4.8e-6,-0.0315 2e-7,-0.0631 -5.027e-4,-0.0947 -7.409e-4,-0.0357 -0.00228,-0.0714 -0.00492,-0.10711 -0.00276,-0.0456 -0.0032,-0.0911 -0.00426,-0.13672 -0.00153,-0.0326 -0.00573,-0.0647 -0.011184,-0.0968 -0.00516,-0.0419 -0.010448,-0.0839 -0.014785,-0.12597 -0.00343,-0.0458 -0.011155,-0.0911 -0.012938,-0.13706 -0.00204,-0.0536 -0.00116,-0.10722 -5.556e-4,-0.1608 0.00188,-0.11402 0.00536,-0.228 0.010618,-0.34189 0.00759,-0.15683 0.016502,-0.31365 0.020307,-0.47068 0.00378,-0.13945 0.00579,-0.27901 0.013126,-0.41829 0.00614,-0.10348 0.01107,-0.20712 0.019352,-0.31045 0.0088,-0.0982 0.016518,-0.19642 0.023979,-0.29474 0.00347,-0.0654 0.00345,-0.13076 0.00305,-0.19624 0,-0.28495 0.3555339,-0.28495 0.3555339,0 z"
       
        />
    <path
       d="m 1.0927647,292.57548 c -0.00286,0.0197 -0.00396,0.0396 -0.0047,0.0595 -1.094e-4,0.004 -2.378e-4,0.008 -3.281e-4,0.0119 -3.519e-4,0.0155 -0.00119,0.0313 -5e-4,0.0468 6e-5,0.001 2.34e-4,-0.003 3.519e-4,-0.004 0.00266,0.019 0.00671,0.0378 0.00978,0.0568 0.00349,0.025 0.00846,0.0497 0.011399,0.0748 0.00266,0.0278 0.00314,0.0558 0.00336,0.0838 8.67e-5,0.0234 2.61e-5,0.0467 -3.9e-6,0.0701 -2.63e-5,0.0225 -3.3e-5,0.0449 -3.76e-5,0.0674 -2.8e-6,0.0201 -2.4e-6,0.0401 -2.2e-6,0.0602 2e-7,0.019 3e-7,0.0381 4e-7,0.0571 0.00311,0.0238 -0.00607,0.0468 -0.00766,0.0701 -4.048e-4,0.008 -5.212e-4,0.0168 -6.085e-4,0.0252 -1.009e-4,0.0158 -5.62e-5,0.0315 -3.76e-5,0.0473 8.123e-4,0.0244 -5.477e-4,0.0485 -0.00257,0.0727 -0.033768,0.24912 -0.38608052,0.20137 -0.35231426,-0.0478 v 0 c -0.001685,0.045 -7.125e-5,-0.0175 -6.5352e-4,-0.0246 -2.045e-5,-0.0173 -7.054e-5,-0.0345 6.13e-5,-0.0518 2.8575e-4,-0.0232 8.599e-4,-0.0465 0.003914,-0.0696 0.0014,-0.01 0.001939,-0.0208 0.005018,-0.0301 3.3602e-4,-10e-4 -2.3763e-4,0.002 -2.8046e-4,0.003 -1.8799e-4,0.005 -4.437e-5,0.01 -4.1011e-4,0.0144 -2.2939e-4,0.003 -2e-8,-0.006 -2e-8,-0.009 -8e-8,-0.019 -2.1e-7,-0.0381 -4.5e-7,-0.0571 -1.9e-7,-0.0201 -5.8e-7,-0.0402 2.25e-6,-0.0603 4.6e-6,-0.0226 1.137e-5,-0.0452 3.786e-5,-0.0678 2.871e-5,-0.0224 8.496e-5,-0.0447 1.299e-5,-0.0671 -1.1229e-4,-0.0164 -2.4871e-4,-0.0327 -0.001402,-0.049 -4.35e-5,-0.0189 -0.009204,-0.0373 -0.008946,-0.0563 -0.004256,-0.0277 -0.0108823,-0.055 -0.0129543,-0.083 -0.001916,-0.0328 -0.001857,-0.0656 -4.8419e-4,-0.0984 0.001312,-0.032 0.003362,-0.064 0.007996,-0.0957 0.0355534,-0.24888 0.38751401,-0.1986 0.35196041,0.0503 z"
       
        />
    <path
       d="m 1.7714589,292.53887 c -4.022e-4,0.004 -8.255e-4,0.008 -0.00121,0.0118 -0.00125,0.0128 -0.00234,0.0257 -0.0031,0.0385 -7.753e-4,0.0131 -0.00178,0.0159 -4.76e-5,0.0101 0.00283,0.0225 0.00411,0.0452 0.00524,0.0678 0.00106,0.025 0.00117,0.05 0.00123,0.075 2.42e-5,0.0235 -8e-6,0.047 -1.86e-5,0.0705 -1.14e-5,0.0283 -1.51e-5,0.0566 -1.71e-5,0.0849 -1.2e-6,0.0236 -9e-7,0.0473 -8e-7,0.0709 6.376e-4,0.0294 -2.288e-4,0.0588 -0.00366,0.088 -0.0026,0.0311 -0.00833,0.0615 -0.016088,0.0917 -0.00561,0.0187 -0.00323,0.0166 -0.00674,0.0428 -0.00353,0.0183 -0.00513,0.0368 -0.006,0.0554 4.233e-4,0.0242 -0.00417,0.0479 -0.00741,0.0718 -0.0011,0.01 -0.00121,0.0195 -0.00138,0.0292 -9.82e-5,0.007 -1.058e-4,0.0146 -1.203e-4,0.022 -5.292e-4,0.2514 -0.3560614,0.25065 -0.355533,-7.5e-4 v 0 c 2.04e-5,-0.009 3.56e-5,-0.0185 1.808e-4,-0.0278 4.789e-4,-0.0243 0.00147,-0.0485 0.00485,-0.0726 0.0014,-0.01 0.00172,-0.0123 0.00325,-0.0214 1.817e-4,-10e-4 5.742e-4,-0.004 6.165e-4,-0.003 1.308e-4,0.003 -2.725e-4,0.0139 -3.439e-4,0.0104 -7.35e-5,-0.003 6.932e-4,-0.0225 8.043e-4,-0.0255 0.00156,-0.0296 0.00401,-0.0591 0.00922,-0.0884 0.00236,-0.0115 -5.954e-4,0.004 0.00283,-0.0239 0.0029,-0.0232 0.00764,-0.0462 0.014795,-0.0685 -5.556e-4,0.003 -0.00119,0.006 -0.00167,0.009 -4.048e-4,0.003 8.387e-4,-0.005 0.00146,-0.008 0.00215,-0.009 0.00222,-0.0241 0.00435,-0.0354 2.699e-4,-0.002 -0.00106,-0.005 8.123e-4,-0.006 0.00173,-7.2e-4 1.573e-4,0.007 2.376e-4,0.006 6.376e-4,-0.0148 -4.869e-4,-0.0298 -2e-7,-0.0446 -1e-7,-0.0236 -4e-7,-0.0473 8e-7,-0.0709 2e-6,-0.0283 5.7e-6,-0.0567 1.72e-5,-0.085 1.05e-5,-0.0232 4.15e-5,-0.0463 1.97e-5,-0.0695 -4.99e-5,-0.0195 -9.13e-5,-0.039 -8.122e-4,-0.0585 -0.00117,-0.0247 -0.00372,-0.0492 -0.00549,-0.0739 -3.254e-4,-0.0371 0.00192,-0.0741 0.00636,-0.11098 0.027767,-0.24987 0.381126,-0.2106 0.3533635,0.0393 z"
       
        />
    <path
       d="m 2.4607807,292.59435 c -0.00487,0.0246 -0.00971,0.0494 -0.013993,0.0741 -0.0025,0.0137 -0.0031,0.0275 -0.00344,0.0414 -3.678e-4,0.0312 -2.069e-4,0.0623 -1.775e-4,0.0934 4.33e-5,0.037 6.77e-5,0.0739 8.13e-5,0.11084 8.2e-6,0.0256 8.9e-6,0.0511 9.1e-6,0.0767 3.122e-4,0.007 -3.281e-4,0.0136 -2e-7,0.0203 1.205e-4,0.002 -0.00148,-0.005 1.452e-4,-0.007 0.0014,-0.002 5.662e-4,0.004 8.334e-4,0.006 0.00144,0.0115 -6.085e-4,0.008 0.00186,0.0119 0.00714,0.0315 0.010473,0.0636 0.012377,0.0958 0.00132,0.0286 0.00139,0.0572 0.00142,0.0857 -8.731e-4,0.0412 -0.0085,0.0814 -0.019908,0.12074 -0.00452,0.0163 -0.0096,0.0323 -0.013256,0.0488 4.975e-4,0.002 2.236e-4,0.005 1.514e-4,0.007 -0.01327,0.25992 -0.3683079,0.2405 -0.3550383,-0.0195 v 0 c 0.00151,-0.0269 0.00414,-0.0538 0.010723,-0.08 0.00584,-0.0228 0.011917,-0.0453 0.018543,-0.0678 0.00488,-0.0139 -0.00221,0.0251 0.00234,-0.0104 1.875e-4,-0.001 -1.192e-4,-0.005 6.641e-4,-0.004 0.00103,0.002 1.673e-4,0.004 2.509e-4,0.006 -2.25e-5,-0.0217 -3.48e-5,-0.0435 -8.554e-4,-0.0652 -7.163e-4,-0.0161 -0.00274,-0.0321 -0.00668,-0.0478 -0.00557,-0.033 -0.010207,-0.0664 -0.0091,-0.0999 -2e-7,-0.0256 -8e-7,-0.051 -9.1e-6,-0.0766 -1.35e-5,-0.0369 -3.79e-5,-0.0737 -8.11e-5,-0.11062 -3.28e-5,-0.0348 -2.517e-4,-0.0697 3.28e-4,-0.10451 9.757e-4,-0.0323 0.0033,-0.0646 0.009,-0.0965 0.00578,-0.0326 0.011895,-0.0652 0.018891,-0.0976 0.060974,-0.25252 0.4058922,-0.16324 0.3449185,0.0892 z"
       
        />
    <path
       d="m 3.10472,292.5497 c 0,0.0223 0,0.0446 0,0.067 0,0.0243 0,0.0486 0,0.0728 0,0.0337 0,0.0674 0,0.10104 0,0.0287 0,0.0573 0,0.086 0,0.019 0,0.0382 0,0.0572 5.027e-4,0.024 -1.397e-4,0.0479 -0.0018,0.0719 3.175e-4,0.0236 -0.011851,0.0457 -0.014253,0.0688 -0.00622,0.0234 -0.00942,0.0416 -0.01588,0.0645 -0.00228,0.0125 -0.00644,0.0248 -0.00875,0.0374 1.778e-4,-4e-4 3.969e-4,-0.002 5.291e-4,-9.5e-4 0.00119,0.004 -9.525e-4,0.0227 -0.00106,0.0269 1.614e-4,-9.5e-4 2.051e-4,-0.004 4.763e-4,-0.003 0.00196,0.007 0.0013,0.0147 0.00225,0.0219 0.00103,0.008 0.00335,0.016 0.00479,0.0236 0.00511,0.026 0.00741,0.0524 0.0085,0.0788 3.439e-4,0.01 3.969e-4,0.0194 4.498e-4,0.0292 0.00138,0.23947 -0.3541509,0.24132 -0.3555286,0.002 v 0 c -3.2e-5,-0.006 -5.24e-5,-0.0124 -2.156e-4,-0.0185 -3.44e-4,-0.0106 -0.00101,-0.0211 -0.00318,-0.0315 -0.0068,-0.0362 -0.012782,-0.0726 -0.012999,-0.10952 7.673e-4,-0.031 0.00228,-0.062 0.00905,-0.0924 0.00108,-0.005 0.00212,-0.009 0.00326,-0.0134 7.673e-4,-0.003 0.00198,-0.012 0.00246,-0.009 5.821e-4,0.004 -0.00267,0.0149 -0.00212,0.0112 0.00206,-0.0138 0.00523,-0.0275 0.00898,-0.0411 5.027e-4,-0.002 -3.175e-4,-0.005 0.00153,-0.006 0.00175,-4.2e-4 -0.00114,0.007 -7.673e-4,0.005 0.00257,-0.012 0.00389,-0.0257 0.00846,-0.0374 3.704e-4,-9.5e-4 -2.397e-4,0.002 -3.704e-4,0.003 0.00262,-0.0134 0.00551,-0.0267 0.00912,-0.0399 4.233e-4,-0.002 8.731e-4,-0.007 0.00138,-0.005 6.879e-4,0.002 -6.879e-4,0.005 -7.408e-4,0.007 -3.86e-5,9.6e-4 4.498e-4,-0.003 6.614e-4,-0.004 5.93e-5,0.002 4.56e-5,0.009 1.781e-4,0.007 9.525e-4,-0.0152 -7.144e-4,-0.0307 0,-0.0459 0,-0.0191 0,-0.0382 0,-0.0573 0,-0.0287 0,-0.0574 0,-0.086 0,-0.0337 0,-0.0673 0,-0.10104 0,-0.0243 0,-0.0486 0,-0.0728 0,-0.0223 0,-0.0446 0,-0.067 0,-0.23948 0.3555339,-0.23948 0.3555339,0 z"
       
        />
    <path
       d="m 3.7882073,292.55186 c -0.00254,0.0247 -0.0065,0.0492 -0.010575,0.0737 -0.0023,0.0166 -0.00266,0.0335 -0.00301,0.0502 -4.498e-4,0.0189 -7.673e-4,0.0375 0.00124,0.0561 6.614e-4,0.0193 0.00436,0.0379 0.00892,0.0566 0.004,0.0102 0.00753,0.0241 0.01,0.0344 0.00477,0.0201 0.00747,0.0403 0.00976,0.0608 0.00254,0.0271 0.00298,0.0542 0.00311,0.0814 1.24e-5,0.0168 -6.75e-5,0.0337 -1.067e-4,0.0507 6.086e-4,0.0263 -5.821e-4,0.0525 -0.00352,0.0786 -0.00348,0.0296 -0.010184,0.0588 -0.016894,0.0879 -0.00287,0.0124 -0.00359,0.0251 -0.00415,0.0378 3.175e-4,0.0245 -0.00259,0.0487 -0.00751,0.0727 -9.525e-4,9.7e-4 -2e-4,0.003 -4.762e-4,0.004 -0.00201,0.01 -0.00396,0.0186 -0.00626,0.0277 -9.525e-4,0.004 -0.00235,0.008 -0.00347,0.0113 -1.725e-4,5.8e-4 -8.996e-4,0.002 -4.233e-4,0.002 5.291e-4,-4.5e-4 4.498e-4,-9.6e-4 6.879e-4,-0.002 0.00188,-0.009 6.879e-4,0.01 6.614e-4,0.0108 -9.34e-5,0.007 -9.41e-5,0.0138 -1.031e-4,0.0208 -3.44e-4,0.24305 -0.3558858,0.24257 -0.3555336,-4.8e-4 v 0 c 1.4e-5,-0.009 2.11e-5,-0.018 1.704e-4,-0.027 5.82e-4,-0.0262 0.00188,-0.0525 0.00764,-0.0782 0.00122,-0.005 0.00235,-0.01 0.00366,-0.015 9.525e-4,-0.004 0.00204,-0.007 0.00312,-0.0107 9.05e-5,-3e-4 4.233e-4,-9.7e-4 3.704e-4,-8.7e-4 -8.466e-4,0.005 -0.00103,0.0103 -0.00276,0.0153 -0.00269,0.008 0.00557,-0.0293 0.00395,-0.0239 3.968e-4,-0.002 6.35e-4,-0.004 0.00122,-0.006 2.911e-4,-9.2e-4 -2.254e-4,0.002 -2.645e-4,0.003 -2.26e-4,0.005 -3.5e-6,0.01 -5.557e-4,0.0137 -3.968e-4,0.003 5.74e-5,-0.007 1.122e-4,-0.0102 1.834e-4,-0.0113 2.516e-4,-0.0116 6.615e-4,-0.0232 0.00172,-0.0323 0.00484,-0.0647 0.012319,-0.0963 0.00396,-0.0171 0.00832,-0.0341 0.010557,-0.0514 0.00111,-0.009 0.00172,-0.0254 0.00127,-0.0408 3.73e-5,-0.0161 1.109e-4,-0.0323 1.085e-4,-0.0484 -6.03e-5,-0.0162 -1.817e-4,-0.0325 -0.00135,-0.0487 -0.00122,-0.0175 -0.00651,-0.0339 -0.012097,-0.0508 -0.00809,-0.0334 -0.014354,-0.0672 -0.016632,-0.10153 -0.00318,-0.0323 -0.00395,-0.0646 -0.00288,-0.097 7.408e-4,-0.0326 0.0022,-0.0653 0.00746,-0.0976 0.00375,-0.0224 0.00729,-0.0449 0.00961,-0.0675 0.035553,-0.2406 0.3875138,-0.19199 0.3519604,0.0486 z"
       
        />
    <path
       d="m 4.4248608,292.55893 c -0.00249,0.0203 -0.00387,0.0407 -0.00474,0.0611 -8.202e-4,0.0217 -7.673e-4,0.0434 -8.202e-4,0.0651 -6.9e-6,0.032 2.14e-5,0.0639 3.7e-5,0.0959 1.41e-5,0.0338 1.62e-5,0.0677 1.78e-5,0.10153 0.00302,0.0295 0.00509,0.0592 0.00656,0.0888 0.00138,0.0264 4.498e-4,0.0528 0.0032,0.079 0.00502,0.0206 0.0081,0.0429 0.0122,0.0642 0.00614,0.0279 0.011919,0.0558 0.015478,0.0843 0.00669,0.0249 0.00835,0.0516 0.010295,0.0772 0.00159,0.0248 0.00185,0.0496 0.00196,0.0744 8.732e-4,0.2514 -0.3546572,0.25263 -0.3555317,10e-4 v 0 c -5.48e-5,-0.0168 -1.442e-4,-0.0335 -0.00106,-0.0503 -0.00124,-0.0208 -0.00523,-0.0412 -0.00884,-0.0617 -0.00148,-0.0198 -0.0089,-0.0386 -0.011467,-0.0582 -0.0061,-0.0318 -0.011533,-0.0637 -0.016788,-0.0956 -0.00318,-0.0324 -0.00391,-0.0648 -0.00457,-0.0973 -0.00167,-0.0354 -0.00572,-0.0706 -0.00698,-0.10607 -1.6e-6,-0.0338 -3.7e-6,-0.0676 -1.77e-5,-0.10137 -1.59e-5,-0.0322 -4.44e-5,-0.0644 -3.68e-5,-0.0966 4.34e-5,-0.0267 6.59e-5,-0.0535 0.00116,-0.0802 0.00146,-0.032 0.00372,-0.0639 0.00796,-0.0957 0.035553,-0.24887 0.3875137,-0.19859 0.3519603,0.0503 z"
       
        />
    <path
       d="m 0.85855076,293.81258 c 0.0268032,-7.7e-4 0.0534482,6.4e-4 0.0800472,0.004 0.24912244,0.0338 0.20136954,0.38608 -0.047753,0.35231 v 0 c -6.7204e-4,-1.5e-4 -0.002678,-2.8e-4 -0.002013,-4.6e-4 0.001529,-4.1e-4 0.006331,-2.2e-4 0.004747,-2.8e-4 -0.0116597,-4.4e-4 -0.0233638,3.2e-4 -0.0350274,0 -0.25140041,0 -0.25140041,-0.35554 -2.4e-7,-0.35554 z"
       
        />
    <path
       d="m 1.6030267,293.82363 c 0.015084,0.002 0.030257,0.003 0.045449,0.004 0.2508208,0.0171 0.2266935,0.37178 -0.024127,0.35472 v 0 c -0.023933,-0.002 -0.047842,-0.004 -0.071601,-0.007 -0.2488737,-0.0356 -0.1985936,-0.38752 0.05028,-0.35196 z"
       
        />
    <path
       d="m 2.2558815,293.84566 c 0.00352,0 0.00703,0 0.010546,0 0.2514004,0 0.2514004,0.35553 0,0.35553 v 0 c -0.00352,0 -0.00703,0 -0.010546,0 -0.2514004,0 -0.2514004,-0.35553 0,-0.35553 z"
       
        />
    <path
       d="m 2.8677303,293.86219 c 0.00352,0 0.00703,0 0.010546,0 0.2514002,0 0.2514002,0.35554 0,0.35554 v 0 c -0.00352,0 -0.00703,0 -0.010546,0 -0.2514003,0 -0.2514003,-0.35554 0,-0.35554 z"
       
        />
    <path
       d="m 3.4461712,293.86299 c 0.019793,-0.003 0.039888,-0.003 0.059893,-0.003 0.251383,0.003 0.2472237,0.35845 -0.00416,0.35551 v 0 c -0.011337,-0.001 0.02114,-0.002 -0.00545,-1.4e-4 -0.2488737,0.0356 -0.2991538,-0.31641 -0.05028,-0.35196 z"
       
        />
    <path
       d="m 4.1992507,293.8319 c 0.00274,3.5e-4 0.00548,7e-4 0.00823,10e-4 0.2493197,0.0323 0.2036736,0.38487 -0.045646,0.35259 v 0 c -0.00429,-5.6e-4 -0.00858,-0.001 -0.012861,-0.002 -0.2488737,-0.0356 -0.1985936,-0.38752 0.05028,-0.35196 z"
       
        />
    <path
       d="m 0.81720961,294.32521 c 0.003515,0 0.007031,0 0.0105458,0 0.25140039,0 0.25140039,0.35554 0,0.35554 v 0 c -0.003515,0 -0.007031,0 -0.0105458,0 -0.25140041,0 -0.25140041,-0.35554 0,-0.35554 z"
       
        />
    <path
       d="m 1.4373268,294.34175 c 0.025088,0 0.050176,0 0.075264,0 0.00363,0 0.00726,-1.6e-4 0.010884,0 0.00399,1.8e-4 -0.01583,0.001 -0.011986,8e-5 0.00902,-0.003 0.019161,-0.003 0.028384,-0.004 0.00441,-4.8e-4 0.00882,-9.6e-4 0.01323,-10e-4 0.2501003,-0.0255 0.2862111,0.32816 0.036111,0.35369 v 0 c -6.694e-4,4e-5 -0.00134,8e-5 -0.00201,1.2e-4 -0.024832,0.003 -0.049332,0.01 -0.074612,0.008 -0.025088,0 -0.050176,0 -0.075264,0 -0.2514004,0 -0.2514004,-0.35553 0,-0.35553 z"
       
        />
    <path
       d="m 2.1149862,294.33428 c 0.017719,-0.002 0.00857,-10e-4 0.027456,-0.003 0.2497536,-0.0287 0.2903814,0.32448 0.040628,0.35321 v 0 c -0.012323,0.001 -0.00639,6.9e-4 -0.017804,0.002 -0.2488737,0.0356 -0.2991538,-0.31641 -0.05028,-0.35196 z"
       
        />
    <path
       d="m 2.7446959,294.33348 c 0.025207,0 0.050414,0 0.075621,0 0.0035,0 0.007,0 0.010501,0 0.2514002,0 0.2514002,0.35554 0,0.35554 v 0 c -0.0035,0 -0.007,0 -0.010501,0 -0.025207,0 -0.050414,0 -0.075621,0 -0.2514003,0 -0.2514003,-0.35554 0,-0.35554 z"
       
        />
    <path
       d="m 3.4630428,294.31695 c 0.011676,0 0.023352,0 0.035027,0 0.2514005,0 0.2514005,0.35553 0,0.35553 v 0 c -0.011676,0 -0.023352,0 -0.035027,0 -0.2514002,0 -0.2514002,-0.35553 0,-0.35553 z"
       
        />
    <path
       d="m 4.1076295,294.30948 c 0.00429,-5.7e-4 0.00858,-0.001 0.012861,-0.002 0.2493198,-0.0323 0.2949659,0.32031 0.045646,0.35259 v 0 c -0.00274,3.4e-4 -0.00548,6.9e-4 -0.00823,10e-4 -0.2488737,0.0356 -0.2991538,-0.31641 -0.05028,-0.35197 z"
       
        />
    <path
       d="m 0.94123305,294.88745 c 0.007543,0 0.0150868,0 0.0226301,0 0.25140035,0 0.25140035,0.35554 0,0.35554 v 0 c -0.007543,0 -0.0150868,0 -0.0226301,0 -0.25140041,0 -0.25140041,-0.35554 0,-0.35554 z"
       
        />
    <path
       d="m 1.5448138,294.88745 c 0.019508,0 0.039017,0 0.058525,0 0.2514004,0 0.2514004,0.35554 0,0.35554 v 0 c -0.019508,0 -0.039017,0 -0.058525,0 -0.2514004,0 -0.2514004,-0.35554 0,-0.35554 z"
       
        />
    <path
       d="m 2.1232544,294.91306 c 0.02376,-0.003 0.047668,-0.005 0.071601,-0.007 0.2508209,-0.0171 0.2749482,0.33765 0.024127,0.35471 v 0 c -0.015192,0.001 -0.030365,0.002 -0.045449,0.004 -0.2488737,0.0356 -0.2991537,-0.31641 -0.05028,-0.35196 z"
       
        />
    <path
       d="m 2.7602434,294.88745 c 0.02309,0 0.046182,0 0.069272,0 0.00656,0 0.013113,0 0.019672,0 0.2514005,0 0.2514005,0.35554 0,0.35554 v 0 c -0.00656,0 -0.013113,0 -0.019672,0 -0.02309,0 -0.046181,0 -0.069272,0 -0.2514004,0 -0.2514004,-0.35554 0,-0.35554 z"
       
        />
    <path
       d="m 3.3889643,294.86543 c 0.00915,10e-4 0.018336,0.002 0.027525,0.003 0.2501601,0.0249 0.2148843,0.37872 -0.035276,0.35378 v 0 c -0.0142,-0.001 -0.028399,-0.003 -0.04253,-0.005 -0.2488737,-0.0356 -0.1985936,-0.38752 0.05028,-0.35196 z"
       
        />
    <path
       d="m 4.0586908,294.86543 c 0.02603,0.003 0.051946,0.005 0.077658,0.0106 0.00488,10e-4 0.00975,0.002 0.014724,0.003 0.2488147,0.036 0.1979544,0.38784 -0.050861,0.35188 v 0 c -0.011925,-0.002 -0.023849,-0.004 -0.035622,-0.006 -0.00106,-2.6e-4 -0.00409,-2.4e-4 -0.00314,-7.7e-4 0.00127,-7.1e-4 0.00578,2.6e-4 0.00434,1e-4 -0.019108,-0.002 -0.038366,-0.003 -0.057372,-0.006 -0.2488737,-0.0356 -0.1985936,-0.38751 0.05028,-0.35196 z"
       
        />
    <path
       d="m 0.96788167,295.48447 c 0.026803,-7.7e-4 0.053448,6.4e-4 0.080047,0.004 0.2491224,0.0338 0.2013695,0.38608 -0.047753,0.35231 v 0 c -6.7216e-4,-1.5e-4 -0.00268,-2.9e-4 -0.00201,-4.7e-4 0.00153,-4.1e-4 0.00633,-2.2e-4 0.00475,-2.8e-4 -0.01166,-4.3e-4 -0.023364,3.2e-4 -0.035027,0 -0.2514004,0 -0.2514004,-0.35554 -3e-7,-0.35554 z"
       
        />
    <path
       d="m 1.7123576,295.49552 c 0.015084,0.002 0.030257,0.003 0.045449,0.004 0.2508208,0.0171 0.2266935,0.37178 -0.024127,0.35472 v 0 c -0.023933,-0.002 -0.047842,-0.004 -0.071601,-0.007 -0.2488737,-0.0356 -0.1985936,-0.38752 0.05028,-0.35196 z"
       
        />
    <path
       d="m 2.3652124,295.51755 c 0.00352,0 0.00703,0 0.010546,0 0.2514004,0 0.2514004,0.35553 0,0.35553 v 0 c -0.00352,0 -0.00703,0 -0.010546,0 -0.2514004,0 -0.2514004,-0.35553 0,-0.35553 z"
       
        />
    <path
       d="m 4.0996659,295.47084 c 0.00274,3.5e-4 0.00548,7e-4 0.00823,10e-4 0.2493197,0.0323 0.2036736,0.38487 -0.045646,0.35259 v 0 c -0.00429,-5.7e-4 -0.00858,-0.001 -0.012861,-0.002 -0.2488737,-0.0356 -0.1985933,-0.38753 0.05028,-0.35197 z"
       
        />
  </g>
</svg>
