<?xml version="1.0" encoding="UTF-8" standalone="no"?>
<!DOCTYPE svg PUBLIC "-//W3C//DTD SVG 1.1//EN" "http://www.w3.org/Graphics/SVG/1.1/DTD/svg11.dtd">
<svg width="100%" height="100%" viewBox="0 0 20 20" version="1.1" xmlns="http://www.w3.org/2000/svg" xmlns:xlink="http://www.w3.org/1999/xlink" xml:space="preserve" xmlns:serif="http://www.serif.com/" style="fill-rule:evenodd;clip-rule:evenodd;stroke-linejoin:round;stroke-miterlimit:2;">
    <path d="M9.687,16.167C9.344,16.167 9.016,16.141 8.67,16.141C8.474,16.141 8.236,16.179 8.044,16.141C7.684,16.069 7.133,16.054 6.767,16.115C6.119,16.223 5.466,16.167 4.811,16.167C4.516,16.167 4.209,16.141 3.924,16.141C3.763,16.141 3.541,16.184 3.403,16.115C3.312,16.069 3.154,16.126 3.09,16.063C2.814,15.786 2.914,14.98 2.986,14.55C3.059,14.112 2.934,13.656 2.934,13.22C2.934,12.431 2.935,11.649 3.064,10.874C3.118,10.548 3.062,10.209 3.116,9.883C3.194,9.417 3.156,8.809 3.09,8.344C2.978,7.557 3.09,6.664 3.09,5.867C3.09,5.362 3.046,4.822 3.116,4.329C3.145,4.126 3.102,3.912 3.194,3.729C3.269,3.58 3.208,3.297 3.351,3.155C3.518,2.988 3.855,3.025 4.133,3.025C4.817,3.025 5.47,3.047 6.141,2.973C6.514,2.931 6.991,2.881 7.34,2.764C7.455,2.726 7.658,2.764 7.784,2.764C8.149,2.764 8.498,2.771 8.853,2.842C9.105,2.893 9.381,2.817 9.635,2.868C10.054,2.952 10.515,2.808 10.939,2.868C11.93,3.01 12.982,2.92 13.99,2.92C14.356,2.92 14.801,2.98 15.137,2.868C15.277,2.822 15.448,2.882 15.58,2.816C15.678,2.767 15.863,2.826 15.971,2.79C16.164,2.726 16.436,2.764 16.649,2.764C16.71,2.764 16.856,2.737 16.91,2.764C16.995,2.807 16.988,2.996 16.988,3.077C16.988,3.376 17.018,3.669 17.04,3.963C17.138,5.238 17.399,6.552 17.145,7.823C17.043,8.33 17.145,8.975 17.145,9.492C17.145,9.65 17.183,9.862 17.145,10.013C17.057,10.363 17.144,10.748 17.093,11.108C16.935,12.214 17.018,13.376 16.858,14.498C16.789,14.979 16.858,15.522 16.858,16.01C16.858,16.085 16.908,16.456 16.858,16.506C16.838,16.526 16.726,16.506 16.701,16.506C16.521,16.506 16.361,16.454 16.18,16.454C15.477,16.454 14.808,16.323 14.12,16.323" style="fill:none;stroke:black;stroke-width:1px;stroke-linecap:round;stroke-miterlimit:1.5;"/>
    <path d="M14.329,6.05C14.059,6.05 13.714,6.072 13.468,6.154C13.297,6.211 13.066,6.137 12.894,6.18C12.646,6.242 12.477,6.663 12.347,6.858C11.902,7.525 12.133,8.537 12.06,9.335C11.999,10.003 11.93,10.67 11.93,11.369C11.93,11.945 12.001,12.574 11.93,13.142C11.798,14.198 11.773,15.218 11.773,16.297" style="fill:none;stroke:black;stroke-width:1px;stroke-linecap:round;stroke-miterlimit:1.5;"/>
    <path d="M12.295,10.404L14.224,10.404" style="fill:none;stroke:black;stroke-width:1px;stroke-linecap:round;stroke-miterlimit:1.5;"/>
    <path d="M12.086,10.456C11.917,10.456 11.613,10.315 11.434,10.404C11.259,10.492 10.711,10.51 10.495,10.456C10.277,10.402 10.179,10.326 9.922,10.326" style="fill:none;stroke:black;stroke-width:1px;stroke-linecap:round;stroke-miterlimit:1.5;"/>
</svg>
