<?xml version="1.0" encoding="UTF-8" standalone="no"?>
<!DOCTYPE svg PUBLIC "-//W3C//DTD SVG 1.1//EN" "http://www.w3.org/Graphics/SVG/1.1/DTD/svg11.dtd">
<svg width="20" height="20" viewBox="0 0 20 20" version="1.1" xmlns="http://www.w3.org/2000/svg" xmlns:xlink="http://www.w3.org/1999/xlink" xml:space="preserve" xmlns:serif="http://www.serif.com/" style="fill-rule:evenodd;clip-rule:evenodd;stroke-linejoin:round;stroke-miterlimit:2;">
    <g transform="matrix(1,0,0,1,-0.0139358,-1.91885)">
        <path d="M1.995,13.429C1.995,12.45 1.943,11.482 1.943,10.482C1.943,9.998 1.898,9.415 2.047,8.97C2.087,8.849 2.047,8.655 2.047,8.527C2.047,8.071 1.936,7.457 2.047,7.014C2.148,6.61 2.251,6.267 2.438,5.893C2.556,5.657 2.874,5.483 3.012,5.346C3.125,5.232 3.389,5.183 3.533,5.111C3.931,4.912 4.356,4.804 4.733,4.615C4.794,4.585 4.96,4.625 5.02,4.615C5.486,4.538 6.014,4.537 6.506,4.537C6.807,4.537 7.197,4.519 7.497,4.459C7.734,4.411 8.035,4.459 8.279,4.459C8.723,4.459 9.184,4.433 9.635,4.433C9.978,4.433 10.365,4.384 10.704,4.433C11.245,4.51 11.758,4.615 12.295,4.615C12.392,4.615 12.65,4.659 12.738,4.615C12.993,4.488 13.397,4.537 13.703,4.537C14.161,4.537 14.637,4.589 15.085,4.589C15.553,4.589 16.06,4.556 16.441,4.746C16.823,4.937 17.268,5.413 17.484,5.737C17.561,5.853 17.698,5.936 17.744,6.076C17.868,6.446 17.912,6.866 18.031,7.223C18.119,7.487 18.054,7.831 18.11,8.11C18.152,8.324 18.11,8.595 18.11,8.814C18.11,9.331 18.114,9.841 18.057,10.352C18.006,10.818 18.098,11.295 18.031,11.76C18.013,11.886 18.062,12.028 18.031,12.151C17.897,12.689 17.971,13.26 17.901,13.82C17.836,14.343 17.797,14.861 17.797,15.385C17.797,15.68 17.771,15.993 17.771,16.271C17.771,16.455 17.799,16.68 17.744,16.845C17.678,17.044 17.76,17.258 17.666,17.445C17.619,17.54 17.716,17.812 17.64,17.888C17.594,17.934 17.599,18.049 17.562,18.123C17.515,18.217 17.436,18.249 17.379,18.305C17.332,18.352 17.185,18.393 17.119,18.409C17.048,18.427 16.765,18.58 16.728,18.618C16.712,18.634 16.515,18.64 16.493,18.644C16.226,18.697 15.932,18.692 15.658,18.722C15.362,18.755 15.056,18.81 14.772,18.905C14.506,18.993 14.109,18.832 13.859,18.957C13.71,19.032 13.481,18.959 13.312,18.983C12.665,19.075 12.016,19.087 11.356,19.087C10.995,19.087 10.625,19.092 10.287,19.035C9.725,18.942 9.126,19.076 8.566,18.983C8.201,18.922 7.802,19.046 7.445,18.957C6.947,18.833 6.36,18.989 5.854,18.905C5.767,18.89 5.594,18.944 5.515,18.905C5.092,18.693 4.44,18.876 3.977,18.644C3.002,18.157 2.257,17.088 2.047,15.828C1.966,15.343 2.021,14.87 2.021,14.368C2.021,14.143 1.987,13.875 1.917,13.664C1.858,13.487 1.969,13.272 1.969,13.142" style="fill:none;stroke:black;stroke-width:1px;stroke-linecap:round;stroke-miterlimit:1.5;"/>
    </g>
    <path d="M7.914,7.666C8.013,7.666 8.019,7.561 8.07,7.51C8.268,7.312 8.515,7.215 8.748,7.04C9.041,6.821 9.421,6.802 9.791,6.728C10.222,6.641 10.772,6.631 11.173,6.832C11.803,7.147 12.317,7.673 12.66,8.188C12.774,8.359 12.943,8.54 12.999,8.761C13.031,8.89 13.008,9.076 13.051,9.205C13.118,9.405 13.188,9.778 13.129,10.013C13.061,10.285 12.98,10.538 12.894,10.795C12.809,11.052 12.698,11.293 12.555,11.499C12.465,11.631 12.428,11.802 12.295,11.89C11.877,12.169 11.442,12.21 10.939,12.282C10.831,12.297 10.644,12.234 10.548,12.282C10.207,12.452 9.693,12.319 9.322,12.412C9.243,12.432 9.019,12.482 8.931,12.438C8.452,12.199 7.781,12.097 7.392,11.708C7.186,11.501 7.194,11.113 7.106,10.847C6.987,10.491 7.001,10.087 7.001,9.7C7.001,8.968 6.936,8.202 7.627,7.875C7.81,7.788 7.836,7.614 8.07,7.614" style="fill:none;stroke:black;stroke-width:1px;stroke-linecap:round;stroke-miterlimit:1.5;"/>
    <path d="M14.615,5.267L15.085,5.267" style="fill:none;stroke:black;stroke-width:1px;stroke-linecap:round;stroke-miterlimit:1.5;"/>
</svg>
