<svg
   xmlns="http://www.w3.org/2000/svg"
   viewBox="0 0 5.2916665 5.2916668"
   height="20"
   width="20">
  <g
     transform="translate(0,-291.70832)"
     id="layer1">
    <path
       d="m 2.4467524,295.89531 c -0.030191,-0.0334 -0.057211,-0.0697 -0.083291,-0.10611 -0.029108,-0.0415 -0.054784,-0.0851 -0.080658,-0.12855 -0.029669,-0.0476 -0.057468,-0.0963 -0.085658,-0.14477 -0.037512,-0.0615 -0.077283,-0.12184 -0.1155529,-0.18299 -0.048112,-0.0763 -0.092807,-0.15439 -0.1418182,-0.23011 -0.053395,-0.0795 -0.101995,-0.16173 -0.1514027,-0.24351 -0.049211,-0.0863 -0.091245,-0.17623 -0.1391605,-0.26328 -0.042313,-0.0822 -0.086313,-0.1635 -0.129506,-0.24524 -0.040976,-0.0745 -0.07969,-0.15023 -0.1182017,-0.226 -0.033154,-0.0663 -0.065264,-0.13292 -0.093388,-0.20143 -0.032879,-0.077 -0.054702,-0.15758 -0.074264,-0.23855 -0.021697,-0.0908 -0.035711,-0.1829 -0.044112,-0.27565 -0.00857,-0.0824 -0.00431,-0.16493 0.00504,-0.24706 0.00986,-0.0743 0.027741,-0.14747 0.048463,-0.21961 0.017278,-0.0551 0.039043,-0.10869 0.062465,-0.16156 0.029221,-0.0585 0.064769,-0.11379 0.099598,-0.16929 0.036607,-0.0588 0.082204,-0.11133 0.1290256,-0.16262 0.040091,-0.0415 0.081615,-0.0818 0.1240798,-0.12107 0.047303,-0.0438 0.1003326,-0.0808 0.1549941,-0.1153 0.052139,-0.0313 0.1054874,-0.0605 0.1607974,-0.0862 0.069669,-0.0295 0.1435218,-0.0471 0.2174324,-0.0631 0.1116092,-0.026 0.2250764,-0.0408 0.3390697,-0.0522 0.1300506,-0.0124 0.2607664,-0.0154 0.3913468,-0.0172 0.086661,-6.7e-4 0.1735933,0.004 0.2591557,0.0183 0.051568,0.009 0.069831,0.0134 0.1202371,0.0252 0.069883,0.0194 0.1404792,0.0374 0.2082645,0.0633 0.041322,0.0157 0.076624,0.0318 0.1169142,0.0495 0.099339,0.0453 0.1933162,0.10027 0.283313,0.16106 0.066741,0.0423 0.1225863,0.0969 0.1736764,0.15571 0.041359,0.0493 0.075057,0.10395 0.10634,0.15961 0.032514,0.0585 0.056926,0.12057 0.077078,0.184 0.022462,0.0673 0.03768,0.13612 0.049004,0.20588 0.011031,0.0742 0.014696,0.14907 0.016513,0.22391 7.952e-4,0.0592 0.0015,0.1184 -5.595e-4,0.17756 -0.00439,0.0661 -0.01358,0.13168 -0.026272,0.19668 -0.011436,0.0522 -0.025039,0.10385 -0.041233,0.15487 -0.015827,0.0463 -0.033475,0.0921 -0.052335,0.13724 -0.021861,0.0485 -0.044259,0.0967 -0.065808,0.1453 -0.020574,0.0519 -0.048648,0.10049 -0.072132,0.15111 -0.027995,0.0596 -0.060851,0.1168 -0.093108,0.17427 -0.028308,0.0521 -0.056879,0.10406 -0.086982,0.15519 -0.025107,0.0403 -0.050887,0.0803 -0.076766,0.12012 -0.021648,0.0348 -0.045459,0.0684 -0.069958,0.10125 -0.023754,0.0331 -0.050566,0.0641 -0.077584,0.0947 -0.044865,0.0475 -0.089529,0.0952 -0.133574,0.14338 -0.032707,0.0395 -0.070007,0.0755 -0.1012309,0.11615 -0.016354,0.0223 -0.034249,0.0436 -0.050955,0.0657 -0.014228,0.0193 -0.025814,0.0399 -0.038286,0.0602 -0.026556,0.0425 -0.056238,0.0832 -0.082017,0.12612 -0.022662,0.0354 -0.046695,0.0698 -0.069098,0.10525 -0.01,0.0175 -0.023776,0.0335 -0.031972,0.0521 -0.010641,0.0223 -0.024953,0.0426 -0.038552,0.0633 -9.423e-4,10e-4 0.00215,-0.003 0.00321,-0.004 -0.016274,0.0299 -0.037364,0.0568 -0.058524,0.0834 -0.016463,0.0227 -0.033016,0.0454 -0.05121,0.0668 -0.015197,0.0211 -0.033844,0.0394 -0.052593,0.0574 5.595e-4,-4.3e-4 0.00218,-0.002 0.00168,-10e-4 -0.00504,0.004 -0.010229,0.01 -0.015253,0.0141 -0.0015,10e-4 0.00618,-0.005 0.00467,-0.004 -0.00163,0.001 -0.019316,0.0182 -0.024164,0.0215 -0.00295,0.002 0.00543,-0.004 0.00815,-0.006 -0.024432,0.0226 -0.03543,0.0344 -0.075779,0.0601 0.015605,-0.0109 -0.037751,0.0264 -0.038351,0.0268 -0.023463,0.0157 -0.028478,0.0188 -0.056012,0.0348 -0.00179,10e-4 0.00368,-0.002 0.00553,-0.003 0.010641,-0.006 0.00808,-0.005 -0.00697,0.005 -0.0027,0.002 0.01053,-0.008 0.00811,-0.005 -8.835e-4,8e-4 -0.014039,0.0108 -0.017688,0.0134 -0.211635,0.15896 -0.4429545,-0.13189 -0.2313196,-0.29084 v 0 c 0.013793,-0.0108 0.028699,-0.0218 0.044429,-0.0321 0.016825,-0.01 0.01398,-0.008 0.037443,-0.0235 0.00739,-0.004 -0.00266,10e-4 0.016807,-0.0119 0.00479,-0.003 0.00944,-0.006 0.014594,-0.01 0.00292,-0.001 -0.010519,0.008 -0.00784,0.006 0.029017,-0.0208 0.00253,-0.003 0.031925,-0.0223 -0.0059,0.004 -0.021367,0.0203 -0.01616,0.0152 4.005e-4,-4e-4 0.02843,-0.0281 0.01866,-0.0176 0.00614,-0.005 0.012233,-0.0117 0.018418,-0.0174 6.155e-4,-5.7e-4 0.00253,-0.002 0.00198,-10e-4 -0.00157,0.002 -0.00679,0.006 -0.00505,0.005 0.047219,-0.0448 -0.019873,0.0187 0.022749,-0.0221 -0.010352,0.0115 0.00364,-0.004 0.00609,-0.006 0.00196,-0.002 -0.00346,0.004 -0.00486,0.006 -0.00122,0.002 0.00289,-0.003 0.00431,-0.005 0.00215,-0.002 0.00424,-0.005 0.00637,-0.008 0.00361,-0.004 0.00722,-0.009 0.01083,-0.0133 0.00634,-0.005 0.0066,-0.009 0.01358,-0.018 0.00907,-0.0124 0.018692,-0.0246 0.027688,-0.037 0.010329,-0.013 0.021299,-0.0254 0.028891,-0.0401 0.013818,-0.0223 0.020895,-0.0314 0.028885,-0.0476 0.01393,-0.0253 0.028777,-0.0502 0.044931,-0.0743 0.021396,-0.0339 0.044019,-0.067 0.0661,-0.10038 0.026479,-0.0429 0.055115,-0.0847 0.082587,-0.12705 0.018674,-0.0304 0.036752,-0.0612 0.058416,-0.0897 0.018263,-0.0241 0.037672,-0.0474 0.055654,-0.0717 0.037553,-0.0469 0.078843,-0.0909 0.118301,-0.13623 0.042659,-0.0467 0.085713,-0.093 0.1294581,-0.13882 0.020742,-0.0234 0.041388,-0.047 0.059416,-0.0725 0.019988,-0.0256 0.03779,-0.053 0.055231,-0.0803 0.022974,-0.0354 0.045798,-0.0709 0.06835,-0.10655 0.028873,-0.049 0.056063,-0.0988 0.083252,-0.14871 0.028161,-0.0502 0.057079,-0.0999 0.081558,-0.15192 0.022804,-0.0476 0.048327,-0.094 0.068344,-0.14285 0.020568,-0.0464 0.041749,-0.0925 0.062934,-0.13863 0.01487,-0.0351 0.028349,-0.0709 0.041141,-0.10676 0.012139,-0.0383 0.022503,-0.0768 0.031235,-0.11594 0.00937,-0.0465 0.0156,-0.0936 0.019728,-0.1408 0.00224,-0.0518 6.479e-4,-0.10374 4.124e-4,-0.15554 -0.00136,-0.0588 -0.00387,-0.11766 -0.012136,-0.176 -0.00821,-0.0525 -0.01984,-0.10406 -0.036908,-0.15462 -0.012452,-0.04 -0.027411,-0.0791 -0.047716,-0.11606 -0.019175,-0.0345 -0.039388,-0.0686 -0.064292,-0.0995 -0.029099,-0.0345 -0.060608,-0.0661 -0.099873,-0.09 -0.070778,-0.0482 -0.1449467,-0.0915 -0.2230436,-0.12772 -0.016932,-0.008 -0.069049,-0.0308 -0.088546,-0.0384 -0.055099,-0.0213 -0.1127755,-0.0356 -0.1695574,-0.0519 -0.034039,-0.009 -0.050479,-0.0128 -0.084913,-0.0186 -0.065911,-0.0112 -0.133056,-0.015 -0.1998902,-0.0145 -0.1194716,0.002 -0.2390803,0.004 -0.3580841,0.0152 -0.099417,0.01 -0.1983693,0.0224 -0.2956594,0.0453 -0.04663,0.01 -0.093166,0.0203 -0.1380014,0.0367 -0.040778,0.0184 -0.07941,0.0408 -0.11799,0.0632 -0.034923,0.0213 -0.068477,0.0449 -0.098677,0.0724 -0.034846,0.0321 -0.068868,0.0651 -0.1020713,0.099 -0.031951,0.0348 -0.063843,0.0699 -0.088856,0.1099 -0.025751,0.041 -0.051635,0.0818 -0.075397,0.12396 -0.016945,0.0376 -0.032274,0.0758 -0.045385,0.11486 -0.015451,0.0529 -0.028679,0.10655 -0.036697,0.16103 -0.0068,0.0581 -0.010597,0.11616 -0.0041,0.17448 0.00653,0.0752 0.018129,0.14982 0.035535,0.22342 0.015229,0.0633 0.031467,0.12639 0.057422,0.18647 0.024305,0.0595 0.052403,0.11704 0.081104,0.17462 0.037638,0.0741 0.075471,0.14802 0.1155422,0.22087 0.042244,0.0799 0.085356,0.15949 0.1266358,0.23992 0.045454,0.0827 0.086232,0.16772 0.1317321,0.2504 0.047476,0.0786 0.09409,0.15768 0.1454642,0.23396 0.049951,0.0773 0.095885,0.15681 0.1447681,0.23474 0.040359,0.0645 0.08249,0.12799 0.121702,0.19319 0.027553,0.0475 0.054748,0.0952 0.083877,0.14174 0.020985,0.0354 0.041708,0.0708 0.065254,0.10482 0.02229,0.0327 0.047941,0.0631 0.073729,0.0932 0.1604858,0.20794 -0.1421293,0.42851 -0.3026153,0.22056 z"
       />
    <path
       d="m 2.6509111,293.01098 c 0.031273,-0.002 0.062861,-0.009 0.09438,-0.006 0.014396,9.9e-4 0.028632,0.003 0.042947,0.005 0.015444,0.005 0.031603,0.009 0.046331,0.015 0.060534,0.0277 0.1025198,0.077 0.1228446,0.13829 0.00307,0.01 0.00466,0.0189 0.00699,0.0284 0.00504,0.0328 0.00785,0.0664 0.00308,0.0994 -0.00165,0.0114 -0.00481,0.0225 -0.0072,0.0339 -0.012964,0.0434 -0.037129,0.0821 -0.064909,0.11785 -0.032898,0.0347 -0.044213,0.0446 -0.082423,0.0705 -0.042138,0.025 -0.089521,0.0334 -0.1379748,0.0356 -0.031917,10e-4 -0.063603,-1.5e-4 -0.095054,-0.005 -0.041233,-0.0108 -0.080171,-0.0275 -0.1113992,-0.0565 -0.00921,-0.009 -0.017328,-0.0182 -0.025993,-0.0273 -0.023907,-0.0265 -0.040609,-0.0575 -0.055147,-0.0896 -0.015653,-0.0356 -0.021677,-0.0738 -0.024216,-0.11207 -9.306e-4,-0.0288 -0.00259,-0.0586 0.00526,-0.0867 0.00373,-0.0133 0.00858,-0.0264 0.012873,-0.0396 0.022618,-0.0463 0.05713,-0.086 0.1029328,-0.11201 0.010051,-0.005 0.020914,-0.01 0.03137,-0.0149 0.039241,-0.0158 0.081108,-0.019 0.1230216,-0.0198 0.020422,-2e-4 0.040845,-5e-5 0.061267,2e-5 0.053011,0.001 0.1017807,0.0182 0.1451588,0.0474 0.031793,0.0212 0.057198,0.0528 0.075201,0.0782 0.010674,0.0138 0.017464,0.0299 0.025404,0.0452 0.00112,0.002 -0.00432,-0.009 -0.00301,-0.006 0.00218,0.003 0.00794,0.014 0.00562,0.0108 -0.00302,-0.004 -0.00515,-0.009 -0.00774,-0.0136 0.026223,0.036 0.038232,0.078 0.044141,0.12107 0.030559,0.25823 -0.3452338,0.30022 -0.3757921,0.042 v 0 c 0.00355,0.0159 0.010085,0.03 0.018835,0.0438 5.096e-4,8.1e-4 -0.00102,-10e-4 -0.00154,-0.002 -0.011387,-0.0183 -0.01762,-0.0277 -0.026554,-0.0463 -0.00246,-0.005 0.012046,0.0194 0.0089,0.0146 -0.00166,-0.002 -0.00341,-0.005 -0.0051,-0.008 0.01325,0.0171 -0.00649,-0.009 -0.00551,-0.008 0.00627,0.005 0.010652,0.013 0.016461,0.019 0.00321,0.003 0.015095,0.0108 0.01053,0.009 -0.00176,-4.3e-4 -0.034514,-0.0301 0.0048,0.002 -0.00184,-10e-4 -0.00749,-0.004 -0.0055,-0.003 0.00811,0.004 0.015893,0.009 0.023919,0.0127 0.015798,0.008 0.033227,0.009 0.050365,0.009 -0.017805,-7e-5 -0.03561,-2e-4 -0.053415,-8e-5 -0.030447,4e-4 0.010908,-0.002 0.017322,-0.009 0.043612,-0.023 0.047195,-0.0302 0.069286,-0.0733 0.0081,-0.0286 0.00742,-0.0246 0.00889,-0.05 7.922e-4,-0.0138 -5.035e-4,0.0316 2.312e-4,0.0167 1.69e-4,0.01 -0.00316,-0.01 -0.00554,-0.0111 0.00139,0.003 0.00697,0.0108 0.00417,0.009 -0.00533,-0.003 -0.00637,-0.0108 -0.010329,-0.0156 -0.00129,-10e-4 0.00557,0.005 0.00368,0.005 -0.00225,-10e-4 -0.00326,-0.003 -0.00489,-0.005 0.00303,0.003 0.012772,0.0131 0.00909,0.0108 -0.00606,-0.004 -0.010574,-0.0108 -0.016325,-0.0158 -0.018867,-0.0163 -0.04152,-0.025 -0.065871,-0.0298 -0.044261,-0.004 -0.010051,8.2e-4 0.00492,-0.001 0.00885,-5e-5 -0.012236,0.003 -0.013313,0.004 -0.017093,0.005 -0.016675,0.006 -0.033583,0.0157 -0.0049,0.003 -0.00991,0.008 -0.014705,0.0108 -0.00157,10e-4 -0.00585,0.005 -0.00435,0.004 0.00479,-0.004 0.00934,-0.009 0.014202,-0.0127 0.00215,-0.002 -0.00806,0.008 -0.00604,0.005 0.012857,-0.0124 0.010508,-0.0108 -0.00292,0.004 -0.00427,0.006 -0.015755,0.0256 0.00248,-0.004 0.00727,-0.012 -0.00285,0.008 -0.00446,0.0121 -0.00136,0.003 -0.00205,0.008 -0.00307,0.0114 -0.00306,0.0212 -0.00177,0.008 -0.00235,0.0296 -6.01e-5,0.002 -1.57e-5,-0.008 -2.2e-6,-0.008 7.08e-5,-3.3e-4 2.098e-4,6.5e-4 3.151e-4,9.8e-4 4.3e-4,0.002 8.57e-4,0.004 0.00129,0.005 0.017071,0.0562 0.061592,0.0963 0.1211091,0.10817 0.00796,5.6e-4 0.015903,10e-4 0.023879,0.002 0.00208,6e-5 0.00828,-7.7e-4 0.0062,-7.3e-4 -0.015568,3.3e-4 -0.031061,0.003 -0.046553,0.004 -0.2654106,0.0322 -0.3123291,-0.33251 -0.046918,-0.36476 z"
        />
    <path
       d="m 0.3285159,296.23388 c 0.0368845,-0.009 0.0747119,-0.0116 0.11236302,-0.0145 0.0385127,-9.5e-4 0.0767867,-0.005 0.11517242,-0.008 0.0352396,-0.002 0.0705858,-0.003 0.10591689,-0.003 0.032175,0.001 0.0640833,-9.4e-4 0.0961155,-0.003 0.0358978,-0.003 0.0719216,-0.004 0.1079435,-0.005 0.0359309,-4.6e-4 0.0718663,-3.7e-4 0.10779957,-3.7e-4 0.0580798,0.002 0.1160923,0.006 0.1741056,0.01 0.072586,0.004 0.1452644,0.005 0.2178056,0.01 0.039064,0.003 0.078194,0.005 0.1173754,0.005 0.048989,6.3e-4 0.097984,5.1e-4 0.1469761,4.9e-4 0.057891,10e-4 0.1156532,-0.002 0.1734465,-0.005 0.058407,-0.002 0.1168668,-0.003 0.1753208,-0.003 0.054169,-2.2e-4 0.108338,-1.7e-4 0.1625064,-1.6e-4 0.074398,-0.002 0.1486662,-0.006 0.2229779,-0.0108 0.104883,-0.004 0.2098894,-0.005 0.3148651,-0.006 0.1012176,-4e-4 0.202436,-3.6e-4 0.303654,-3.4e-4 0.077734,3e-5 0.1554678,6e-5 0.2332016,7e-5 0.06588,-10e-4 0.1318786,0.002 0.1977215,-8.8e-4 0.052372,-0.003 0.1047817,-0.005 0.1572467,-0.006 0.051843,-0.002 0.1037965,4.8e-4 0.1556064,-0.002 0.053479,-0.003 0.107009,-0.005 0.1605801,-0.006 0.05823,-8.5e-4 0.1164727,-0.002 0.1746838,1e-4 0.062773,10e-4 0.1248909,0.01 0.1871984,0.0165 0.04986,0.005 0.099953,0.006 0.1498783,0.0108 0.038004,0.003 0.076062,0.004 0.1139576,0.009 0.017096,0.002 0.034234,0.004 0.051496,0.004 0.026011,5.4e-4 0.05203,4e-4 0.078044,4e-4 0.028342,-2e-5 0.056683,-5e-5 0.085024,-7e-5 0.021729,-10e-6 0.043456,-10e-6 0.065184,-10e-6 -0.052429,0.003 0.017694,-0.005 0.026685,-0.006 0.013079,-10e-4 0.013789,-10e-4 0.026585,-0.002 0.00394,-1.8e-4 0.013733,-0.003 0.011815,-4e-4 -0.00195,0.003 -0.00793,5.2e-4 -0.011898,5.4e-4 -7.068e-4,10e-6 0.00274,-6.3e-4 0.00206,-4.9e-4 -0.00643,10e-4 -0.012867,0.003 -0.019299,0.004 0.017897,-0.008 0.037239,-0.0114 0.055992,-0.0155 0.2599227,-0.0613 0.3491852,0.29588 0.089263,0.35722 v 0 c -0.054673,0.0122 0.025177,-0.008 -0.024647,0.006 -0.029833,0.008 -0.059372,0.0157 -0.090647,0.015 -0.021988,4.9e-4 -0.043405,0.0116 -0.065885,0.008 -0.02167,0 -0.04334,0 -0.06501,10e-6 -0.028385,2e-5 -0.056771,4e-5 -0.085156,6e-5 -0.031095,0 -0.062201,2e-4 -0.093286,-6.9e-4 -0.027625,-10e-4 -0.055163,-0.003 -0.082539,-0.008 -0.033513,-0.004 -0.067398,-0.004 -0.1009927,-0.008 -0.05248,-0.004 -0.1052024,-0.005 -0.1575806,-0.0115 -0.053326,-0.005 -0.106449,-0.0135 -0.1601718,-0.0147 -0.050707,-0.002 -0.1015192,-1.6e-4 -0.1522536,5e-5 -0.05129,10e-4 -0.1025254,0.003 -0.1537296,0.006 -0.05408,0.002 -0.108191,0.001 -0.1622949,0.002 -0.050759,0.001 -0.1014435,0.003 -0.1521184,0.006 -0.070494,0.002 -0.1410426,6.8e-4 -0.2115662,10e-4 -0.077756,-10e-6 -0.1555125,-5e-5 -0.2332688,-8e-5 -0.1004472,-3e-5 -0.2008956,-7e-5 -0.3013426,3.2e-4 -0.098871,5.4e-4 -0.1977707,10e-4 -0.2965588,0.005 -0.081174,0.004 -0.1623103,0.01 -0.2435973,0.0112 -0.053365,-3e-5 -0.1067307,-8e-5 -0.1600953,1.5e-4 -0.053589,3.1e-4 -0.1071836,8.6e-4 -0.1607305,0.003 -0.063394,0.003 -0.1267677,0.006 -0.190266,0.005 -0.05172,1e-5 -0.1034426,1.4e-4 -0.1551581,-5.7e-4 -0.044929,-9.7e-4 -0.089811,-0.003 -0.1346083,-0.006 -0.072216,-0.004 -0.1446162,-0.005 -0.2168634,-0.01 -0.049929,-0.003 -0.099863,-0.006 -0.14979348,-0.009 -0.033652,-1e-5 -0.0673067,-9e-5 -0.10095731,3.1e-4 -0.0282896,4.9e-4 -0.0565847,0.001 -0.0847719,0.004 -0.0406505,0.003 -0.0813046,0.005 -0.12210586,0.004 -0.0269392,2.7e-4 -0.0538963,6.9e-4 -0.0807688,0.003 -0.0383784,0.003 -0.0766778,0.006 -0.1151816,0.008 -0.0318076,0.002 -0.0632218,0.006 -0.0944988,0.0127 -0.26542073,0.0322 -0.31233923,-0.33252 -0.0469282,-0.36476 z"
    />
  </g>
</svg>
