<?xml version="1.0" encoding="UTF-8" standalone="no"?>
<svg
   xmlns:dc="http://purl.org/dc/elements/1.1/"
   xmlns:cc="http://creativecommons.org/ns#"
   xmlns:rdf="http://www.w3.org/1999/02/22-rdf-syntax-ns#"
   xmlns:svg="http://www.w3.org/2000/svg"
   xmlns="http://www.w3.org/2000/svg"
   xmlns:sodipodi="http://sodipodi.sourceforge.net/DTD/sodipodi-0.dtd"
   xmlns:inkscape="http://www.inkscape.org/namespaces/inkscape"
   inkscape:version="1.0 (4035a4fb49, 2020-05-01)"
   sodipodi:docname="pen.svg"
   id="svg840"
   version="1.1"
   width="20"
   height="20"
   viewBox="0 0 5.2916665 5.2916668">
  <metadata
     id="metadata846">
    <rdf:RDF>
      <cc:Work
         rdf:about="">
        <dc:format>image/svg+xml</dc:format>
        <dc:type
           rdf:resource="http://purl.org/dc/dcmitype/StillImage" />
        <dc:title></dc:title>
      </cc:Work>
    </rdf:RDF>
  </metadata>
  <defs
     id="defs844" />
  <sodipodi:namedview
     inkscape:current-layer="svg840"
     inkscape:window-maximized="1"
     inkscape:window-y="-8"
     inkscape:window-x="-8"
     inkscape:cy="-81.903518"
     inkscape:cx="85.188617"
     inkscape:zoom="1"
     showgrid="false"
     id="namedview842"
     inkscape:window-height="1017"
     inkscape:window-width="1920"
     inkscape:pageshadow="2"
     inkscape:pageopacity="0"
     guidetolerance="10"
     gridtolerance="10"
     objecttolerance="10"
     borderopacity="1"
     bordercolor="#666666"
     pagecolor="#ffffff" />
  <path
     d="m 3.5896746,0.30551858 c 2.911e-4,-0.001217 0.00138,-0.004805 8.731e-4,-0.003652 -0.0061,0.0143618 -0.010303,0.0273697 -0.01909,0.0389642 -0.030432,0.0405759 -0.058135,0.0831242 -0.085399,0.1258684 C 3.4497516,0.52086073 3.4114148,0.57358123 3.3765215,0.62868214 3.3321755,0.70030966 3.2942052,0.77573718 3.2555707,0.85054727 3.1885909,0.98033581 3.1238733,1.1112579 3.0572586,1.2412391 3.0027716,1.3513179 2.9440471,1.4590611 2.8824172,1.5652703 2.8123116,1.6772231 2.7534069,1.7953828 2.694635,1.9134837 c -0.044454,0.094893 -0.09232,0.1881274 -0.1377881,0.282524 -0.034212,0.068206 -0.061167,0.1397448 -0.094285,0.2084228 -0.029115,0.063198 -0.060441,0.1253111 -0.091294,0.1876724 -0.01424,0.027456 -0.025183,0.056427 -0.037886,0.084564 -2.12e-4,4.763e-4 7.04e-5,-0.00196 -1.993e-4,-0.00153 -0.00369,0.006 -0.017264,0.033896 -0.018428,0.036247 -0.036485,0.078198 -0.041707,0.144403 -0.033712,0.229008 0.00201,0.021275 0.00701,0.042162 0.010425,0.063257 0.011438,0.05676 0.023559,0.1134009 0.036614,0.1698088 0.014639,0.05892 0.029919,0.1176445 0.04533,0.1763768 0.00869,0.036856 0.020227,0.073553 0.022752,0.1115329 0.00143,0.040348 0.00122,0.080639 0.00335,0.1209712 0.014999,0.1618348 0.053537,0.2272306 0.2432291,0.3225449 0.042807,0.021511 0.095798,-0.0018 0.1436965,-0.00269 0.092393,-0.025223 0.1742067,-0.075128 0.2604037,-0.1149562 0.028867,-0.013338 0.050131,-0.021161 0.079532,-0.032652 0.076244,-0.024588 0.1543172,-0.042622 0.2317298,-0.062991 0.053526,-0.013102 0.1063667,-0.028731 0.1597199,-0.042496 0.063261,-0.01688 0.1244159,-0.040318 0.1842649,-0.066651 0.022474,-0.013952 0.046952,-0.025098 0.067419,-0.041854 0.087188,-0.071381 0.1341147,-0.1672007 0.1771042,-0.267976 0.021312,-0.05944 0.039756,-0.1196915 0.062305,-0.1786787 0.022873,-0.063335 0.046086,-0.1264976 0.073757,-0.1879217 0.031245,-0.074993 0.0651,-0.1488127 0.1026413,-0.2208523 0.039467,-0.074422 0.086226,-0.1445575 0.1276781,-0.2178595 0.041501,-0.069445 0.075676,-0.1428101 0.1130663,-0.2144236 0.032693,-0.060453 0.050326,-0.1271114 0.076399,-0.1903228 0.033843,-0.08977 0.072307,-0.1775716 0.1117586,-0.264978 0.060391,-0.1245447 0.1280824,-0.2454452 0.1917978,-0.3683451 0.043353,-0.082137 0.078409,-0.1677648 0.098058,-0.2585756 0.00505,-0.040998 0.00997,-0.081864 0.015735,-0.1227645 0.0013,-0.010879 0.00243,-0.021779 0.00391,-0.032637 0.00188,-0.013935 0.00434,-0.02803 0.00778,-0.041603 0.0046,-0.018153 0.0049,-0.026057 0.00425,-0.015672 0.00831,-0.022556 0.013668,-0.0443659 0.020402,-0.0633196 7.408e-4,-0.002051 -0.00122,0.004177 -0.00183,0.006266 0.00302,-0.008316 0.00621,-0.0165722 0.00906,-0.0249478 0.0022,-0.006481 -0.00566,0.0125733 -0.00712,0.0192617 -7.673e-4,0.003516 0.00341,-0.00634 0.00501,-0.009565 0.00367,-0.007401 0.00762,-0.0146796 0.010792,-0.0223086 0.029841,-0.0718602 0.017656,-0.0510447 0.029636,-0.16086722 C 4.9887151,0.66054477 4.9830324,0.61559211 4.9627785,0.57662079 4.9163994,0.48738067 4.8256883,0.44034328 4.7383264,0.4028097 4.676993,0.37534267 4.6154293,0.34841341 4.5537962,0.32162223 4.4775956,0.28746394 4.4018026,0.25285945 4.323496,0.22372031 4.2626857,0.2014988 4.1998956,0.1846504 4.1410152,0.15744501 4.1242586,0.148367 4.1054179,0.1406707 4.0905444,0.12854721 3.7587243,-0.08918032 3.450811,0.38008395 3.782631,0.59781148 v 0 c 0.041767,0.0266236 0.084365,0.0521827 0.1297776,0.0722333 0.070736,0.0310503 0.1435216,0.0562334 0.216902,0.0802793 0.068634,0.0249351 0.1340117,0.0572338 0.2010018,0.0861521 0.063495,0.0275148 0.1267997,0.0554303 0.1900306,0.0835402 0.00373,0.00148 0.00747,0.00293 0.011184,0.00445 0.00251,0.00103 0.0051,0.00446 0.00752,0.00321 0.00204,-0.00106 -0.00364,-0.00281 -0.00538,-0.00431 -0.00562,-0.00483 -0.012031,-0.008918 -0.016695,-0.0146749 C 4.451066,0.82736498 4.471508,0.85265938 4.441597,0.73882298 4.456535,0.638263 4.442917,0.67275538 4.465021,0.62267383 c 6.085e-4,-0.001405 -0.00114,0.002865 -0.0018,0.004239 -0.010401,0.0208148 -0.023156,0.0422016 -0.029487,0.0642647 -0.012213,0.0321943 -0.022421,0.0648473 -0.033105,0.0975392 -0.017441,0.0594391 -0.030834,0.11995761 -0.036702,0.18175458 -0.00447,0.032676 -0.00959,0.065153 -0.012256,0.098049 -1.86e-4,0.00229 0.00193,-0.01053 0.0018,-0.00666 0.00364,-0.00555 -4.233e-4,0.00674 -0.00309,0.014218 -0.011666,0.032685 -0.027416,0.063735 -0.042634,0.094845 -0.068392,0.1319216 -0.1414003,0.2615291 -0.2050955,0.3957962 -0.042451,0.094052 -0.083837,0.1885467 -0.1203759,0.2850847 -0.019062,0.047532 -0.034257,0.096528 -0.054798,0.1433493 -0.034091,0.066358 -0.066183,0.1337997 -0.1042572,0.1980532 -0.043428,0.078982 -0.095953,0.1527701 -0.1361686,0.2336144 -0.042235,0.081758 -0.081482,0.164987 -0.1167209,0.2500203 -0.031657,0.071123 -0.059533,0.1436957 -0.085784,0.216964 -0.020733,0.054394 -0.039968,0.1092528 -0.056866,0.1649706 -0.00788,0.021783 -0.00353,0.011366 -0.01715,0.038708 -0.00321,0.00646 -0.00846,0.012202 -0.00981,0.019288 -5.556e-4,0.00295 0.0048,-0.00361 0.00718,-0.00546 C 3.4497639,3.078801 3.4277839,3.092056 3.4700669,3.071385 3.4412179,3.086935 3.4084009,3.09501 3.3775989,3.105632 3.3233129,3.119639 3.2695356,3.135461 3.2150944,3.148854 3.1162044,3.174952 3.0162209,3.197619 2.9199342,3.232664 2.8620572,3.255741 2.8056266,3.280398 2.74965,3.307767 2.731841,3.316477 2.713993,3.325108 2.696227,3.333905 2.683889,3.340015 2.669758,3.343485 2.659335,3.352481 c -0.004,0.00345 0.010568,-2.646e-4 0.015851,-4.233e-4 0.032381,0.00225 0.069878,-0.01089 0.097142,0.00672 0.071439,0.04615 0.1256811,0.1147583 0.1851009,0.1756074 0.00445,0.00456 0.00305,0.012369 0.00451,0.018568 5.027e-4,0.00212 1.842e-4,-0.00755 -0.00161,-0.00633 -7.672e-4,5.292e-4 0.00214,0.023963 -8.995e-4,-0.00292 -0.00491,-0.00826 -6.35e-4,-6.086e-4 -7.673e-4,-0.025818 -1.937e-4,-0.036939 -6.086e-4,-0.073926 -0.00388,-0.1107466 -0.0071,-0.067628 -0.020402,-0.1341906 -0.038505,-0.1997639 -0.014301,-0.054494 -0.028742,-0.1088594 -0.042131,-0.1635747 -0.01093,-0.04314 -0.018407,-0.087171 -0.028746,-0.1304583 -0.00175,-0.010591 -0.00334,-0.021206 -0.00521,-0.031775 -5.556e-4,-0.00316 -0.00156,-0.012557 -0.00206,-0.00939 -0.00156,0.00995 -3.175e-4,0.020148 -0.00119,0.030176 -0.00169,0.019354 -0.00898,0.038738 -0.018066,0.055727 0.018359,-0.03908 0.03885,-0.07716 0.05544,-0.1170956 0.032138,-0.064961 0.064664,-0.1297255 0.095096,-0.1955088 0.032234,-0.068345 0.060356,-0.1385126 0.093372,-0.2065124 C 3.1068635,2.3468089 3.1539887,2.2561145 3.1971245,2.1634986 3.250565,2.0560721 3.3038135,1.9484433 3.367944,1.8468142 3.4343806,1.7321711 3.4978581,1.6159462 3.5567396,1.497212 3.6230944,1.3677277 3.6875694,1.2373129 3.7542809,1.1080179 c 0.031365,-0.060773 0.061924,-0.12226229 0.097451,-0.18070859 0.033791,-0.0545423 0.073585,-0.10510463 0.1078815,-0.15933217 0.026996,-0.0425811 0.055648,-0.0839879 0.084883,-0.1250591 0.031461,-0.050606 0.058403,-0.10338453 0.077642,-0.15991157 C 4.247641,0.10649778 3.7151773,-0.07099011 3.5896746,0.30551858 Z"
     id="path924"
     style="fill:#000000;stroke-width:0" />
  <path
     d="m 3.5369942,1.2994156 c 0.057427,0.01758 0.113656,0.03873 0.1705671,0.057859 0.065009,0.020643 0.1289833,0.044351 0.1937478,0.065691 0.076797,0.021588 0.1538282,0.042369 0.2312786,0.061487 0.050909,0.016129 0.1049838,0.017894 0.156713,0.029451 C 4.6797209,1.5851916 4.7805369,1.033054 4.390117,0.96176621 v 0 C 4.3490338,0.95464521 4.3074342,0.95024111 4.267036,0.93952741 4.2025711,0.92363041 4.1385919,0.90600309 4.0743945,0.88905444 4.0107235,0.86910231 3.9485536,0.84424667 3.8847157,0.82470002 3.8277695,0.80608677 3.7718884,0.78421734 3.714482,0.7669519 3.3379733,0.641449 3.1604855,1.1739127 3.5369942,1.2994156 Z"
     id="path926"
     style="fill:#000000;stroke-width:0" />
  <path
     d="m 2.017805,1.8942727 c -0.080587,0 -0.1611747,0 -0.2417621,0 -0.054675,0 -0.1093494,0 -0.1640241,0 -0.058442,-0.00183 -0.1165424,0.00192 -0.1745125,0.00907 -0.053361,0.0072 -0.1071332,0.010582 -0.1608968,0.012884 -0.048181,0.00188 -0.096412,0.00156 -0.1446193,0.00159 -0.077074,0.00183 -0.15378663,-0.00702 -0.23037356,-0.014355 -0.0260749,-0.00239 -0.0445049,-0.00284 -0.0651977,-0.00816 -0.001601,-4.128e-4 0.003271,4.895e-4 0.004906,7.355e-4 C 0.79091456,1.8809863 0.73635102,1.8704112 0.68261057,1.8618555 0.62846468,1.8538045 0.57385513,1.84977 0.5191806,1.8479055 c -0.0831815,-0.00316 -0.16394827,0.016175 -0.23098527,0.070005 -0.0666487,0.053519 -0.0730551,0.084285 -0.10317039,0.151913 -0.0288826,0.086597 -0.0192508,0.1744045 9.2552e-4,0.261141 0.0129753,0.050411 0.0289239,0.1002441 0.0393685,0.1512686 0.0143019,0.060376 0.0294272,0.1204451 0.043399,0.1809122 0.0178149,0.081636 0.0378887,0.1627034 0.0487829,0.2456283 0.004133,0.057908 -0.003563,0.1157147 -0.0138499,0.1725896 -0.0158427,0.093138 -0.0357302,0.1854594 -0.0507924,0.2787263 -0.017548,0.1133727 -0.024723,0.2279044 -0.0289387,0.3424309 -0.002373,0.071823 -0.002145,0.1436912 -0.002078,0.2155423 1.2161e-4,0.078216 2.1943e-4,0.1564328 2.8073e-4,0.2346494 -0.00221,0.037876 -0.004886,0.075627 -0.0101564,0.1131533 -0.007154,0.041506 -0.0147922,0.082892 -0.0194698,0.1249127 -0.00525,0.060106 -0.005211,0.1205074 -0.005503,0.1807938 -7.276e-4,0.022294 6.8157e-4,0.044655 -4.763e-5,0.066945 -6.198e-5,0.0019 3.5428e-4,-0.00396 -4.6937e-4,-0.00567 -1.9627e-4,-3.968e-4 -3.6804e-4,0.00114 -0.002107,0.013478 -0.003476,0.024032 -0.005777,0.048205 -0.007163,0.072444 -2.5933e-4,0.00453 0.001904,-0.017947 5.5139e-4,-0.013613 -0.0121366,0.049846 -0.0100818,0.1010107 -0.004814,0.1515282 0.001557,0.027855 0.004053,0.055347 0.007068,0.083151 0.0399379,0.1066159 0.0367456,0.1445022 0.15106751,0.2127863 0.0388611,0.023212 0.0857127,0.031051 0.13051697,0.037497 0.0586287,0.00843 0.12489127,-0.012745 0.18153586,-0.026999 0.0669372,-0.017433 0.13321189,-0.0364 0.20205813,-0.044261 0.15127439,-0.010144 0.30314255,-0.00862 0.45469195,-0.00922 0.1438184,-3.969e-4 0.2876373,-1.241e-4 0.4314558,2.38e-5 0.1766748,0.00267 0.3530059,-0.00986 0.5291836,-0.021212 0.1079245,-0.00755 0.2160103,-0.011636 0.3241723,-0.013142 0.1058231,-0.00103 0.2116538,-7.938e-4 0.3174802,-7.144e-4 0.1089592,0.00161 0.2177722,-4.233e-4 0.3266057,-0.00542 0.075902,-0.0058 0.1516711,-0.01256 0.2277515,-0.015486 0.073081,-0.00233 0.1462079,-0.0023 0.2193176,-0.00241 0.1018868,-4.1e-5 0.2037736,3.78e-5 0.3056604,7.7e-5 0.067419,-0.00156 0.1346838,0.00428 0.2014633,0.012996 0.1015179,0.014203 0.2040546,0.017563 0.306388,0.020309 0.061334,0.00379 0.1225516,0.00871 0.1839558,0.011345 0.07656,0.00289 0.1594207,-0.0031 0.2247717,-0.049695 0.03815,-0.027199 0.07073,-0.06252 0.098566,-0.100207 0.017851,-0.02417 0.024244,-0.054984 0.036366,-0.082476 0.022344,-0.081259 0.021415,-0.1652421 0.015195,-0.2485091 -0.00257,-0.05575 -0.010761,-0.1109652 -0.015915,-0.1664793 -0.00361,-0.056019 -0.00388,-0.1121793 -0.00423,-0.1682914 -1.156e-4,-0.076122 -0.00583,-0.1520999 -0.00884,-0.2281425 -6.614e-4,-0.066717 -0.00647,-0.1331807 -0.010446,-0.1997422 -0.00332,-0.065213 -0.00369,-0.1305221 -0.00406,-0.195803 -2.646e-4,-0.070577 -2.009e-4,-0.1411549 -1.686e-4,-0.2117323 2.96e-5,-0.051022 5.03e-5,-0.1020437 6.03e-5,-0.1530657 7.2e-6,-0.042981 6.7e-6,-0.085962 6.7e-6,-0.1289425 0,-0.037235 -6e-7,-0.07447 -6e-7,-0.1117045 -0.00135,-0.032199 3.704e-4,-0.04273 0.0034,-0.06851 0.00265,-0.023799 0.00138,-0.011708 0.00378,-0.036276 C 5.0498817,2.5513925 4.4912058,2.4975354 4.453123,2.892579 v 0 c -0.00148,0.015679 -6.35e-4,0.00732 -0.00259,0.025069 -0.00516,0.044379 -0.00863,0.088861 -0.00719,0.1335768 0,0.037234 2e-7,0.074467 5e-7,0.111701 -3e-7,0.042944 5e-7,0.085888 -6.6e-6,0.1288322 -1.01e-5,0.050973 -3.07e-5,0.1019463 -6.03e-5,0.1529196 -3.29e-5,0.071735 -1.088e-4,0.1434698 1.778e-4,0.2152042 4.233e-4,0.075416 0.00101,0.150862 0.00506,0.2261888 0.00378,0.062832 0.00941,0.1255377 0.00988,0.1885228 0.0028,0.069794 0.00801,0.1395346 0.00841,0.2093852 4.762e-4,0.072619 0.00101,0.1453229 0.00674,0.2177595 0.00506,0.052419 0.012647,0.1045403 0.01511,0.157191 7.673e-4,0.00898 0.00228,0.017907 0.00251,0.026915 3.175e-4,0.011332 -0.004,0.054945 0.00686,0.00801 0.033385,-0.064638 0.032841,-0.077945 0.1100085,-0.1280575 0.02327,-0.015113 0.05163,-0.0206 0.078304,-0.028244 0.00915,-0.00262 0.018947,-0.00185 0.028449,-0.00235 0.00106,-5.45e-5 0.00419,7.408e-4 0.00312,7.408e-4 -0.00695,1.88e-5 -0.013896,-4.498e-4 -0.020844,-6.879e-4 -0.064359,-0.00269 -0.1284669,-0.00874 -0.1928157,-0.011652 -0.083774,-0.0022 -0.1677834,-0.00429 -0.2508842,-0.016071 -0.090117,-0.011157 -0.1807448,-0.019227 -0.2716636,-0.017431 -0.102253,-3.94e-5 -0.204506,-1.188e-4 -0.306759,-7.64e-5 -0.080176,1.272e-4 -0.1603716,1.534e-4 -0.240512,0.00285 -0.077288,0.0031 -0.1543601,0.00888 -0.2314097,0.015642 -0.1001611,0.0046 -0.2002776,0.00643 -0.3005613,0.00483 -0.1085821,-5.98e-5 -0.2171684,-3.175e-4 -0.3257469,7.673e-4 -0.1175506,0.00169 -0.2350248,0.00607 -0.3523198,0.014248 -0.1639653,0.01057 -0.3280667,0.022656 -0.4925013,0.02005 -0.1447461,-1.49e-4 -0.2894927,-4.233e-4 -0.4342387,-1.98e-5 -0.1744887,6.879e-4 -0.34951642,-0.00161 -0.5234761,0.013719 -0.0912015,0.012242 -0.18045827,0.032086 -0.26904473,0.056978 -0.009795,0.00251 -0.0196112,0.00494 -0.0293834,0.00754 -0.003691,9.79e-4 -0.0147918,0.00272 -0.0110027,0.0032 0.0661425,0.00835 0.0654564,-0.018471 0.14567628,0.036011 0.0980701,0.066606 0.0920436,0.091106 0.12389987,0.1860732 5.6886e-4,0.00843 6.7734e-4,0.016902 0.001709,0.025289 6.2177e-4,0.00507 -2.8575e-4,-0.010205 -4.8154e-4,-0.015306 -8.1492e-4,-0.02119 -0.002217,-0.042357 -0.004395,-0.063452 -9.3927e-4,-0.009 1.6081e-4,-0.023072 -0.001651,-0.00254 -0.005568,0.063142 -0.004718,0.031388 -0.001119,0.017915 0.005665,-0.030031 0.008612,-0.060293 0.0119401,-0.090617 0.00676,-0.049447 0.0093,-0.099051 0.007905,-0.1489498 1.9537e-4,-0.041967 1.0631e-4,-0.083984 0.002548,-0.125893 0.002482,-0.035386 0.0138504,-0.069489 0.0170304,-0.1048155 0.008823,-0.063401 0.013679,-0.1272688 0.0155557,-0.1912588 -6.138e-5,-0.078246 -1.5907e-4,-0.1564926 -2.8046e-4,-0.2347388 -6.167e-5,-0.064875 -3.3602e-4,-0.129766 0.001707,-0.194618 0.00329,-0.091804 0.008528,-0.183647 0.0223271,-0.2745703 0.014177,-0.09081 0.0348226,-0.1804216 0.0495359,-0.2711435 C 0.87590303,3.0632537 0.88739256,2.9475853 0.87349347,2.8321748 0.85939457,2.7325063 0.83802521,2.6343972 0.81546953,2.5363303 0.80192014,2.4781961 0.78746934,2.4203579 0.77362745,2.3623283 0.7613725,2.307804 0.74694784,2.2537533 0.73172314,2.2000005 c -0.001614,-0.00609 -0.002863,-0.024516 -0.004376,-0.018397 -0.001185,0.00479 6.2971e-4,0.00985 6.4294e-4,0.014781 5.49e-5,0.019688 -0.006896,0.039645 -0.0129394,0.058079 -0.006703,0.013252 -0.0110363,0.028 -0.0201099,0.039757 -0.0555421,0.071971 -0.11328241,0.1138778 -0.20574828,0.1144694 -0.00392,2.51e-5 0.007838,1.239e-4 0.0117573,1.859e-4 0.0317086,9.419e-4 0.0633774,0.00315 0.094819,0.00749 0.0329165,0.00501 0.0652876,0.010365 0.0968792,0.020885 0.0510324,0.012995 0.10273985,0.022206 0.15544827,0.024918 0.0944792,0.00905 0.18914603,0.018868 0.28420493,0.016913 0.056265,-3.19e-5 0.1125547,2.199e-4 0.1687843,-0.00212 0.06993,-0.0031 0.1398437,-0.00775 0.2092533,-0.017096 0.033767,-0.00518 0.06754,-0.00496 0.1016793,-0.00432 0.054675,0 0.1093494,0 0.1640241,0 0.080587,0 0.1611747,0 0.241762,0 0.396875,0 0.396875,-0.5612661 0,-0.5612661 z"
     id="path928"
     style="fill:#000000;stroke-width:0" />
</svg>
