<?xml version="1.0" encoding="UTF-8" standalone="no"?>
<!DOCTYPE svg PUBLIC "-//W3C//DTD SVG 1.1//EN" "http://www.w3.org/Graphics/SVG/1.1/DTD/svg11.dtd">
<svg width="100%" height="100%" viewBox="0 0 20 20" version="1.1" xmlns="http://www.w3.org/2000/svg" xmlns:xlink="http://www.w3.org/1999/xlink" xml:space="preserve" xmlns:serif="http://www.serif.com/" style="fill-rule:evenodd;clip-rule:evenodd;stroke-linejoin:round;stroke-miterlimit:2;">
    <path d="M13.791,12.959C13.657,12.869 13.568,12.716 13.568,12.542C13.568,12.266 13.792,12.042 14.068,12.042C14.195,12.042 14.348,12.087 14.487,12.225C14.573,12.312 14.754,12.614 14.772,12.644C14.896,12.771 14.999,12.926 15.104,13.087C15.193,13.221 15.276,13.37 15.439,13.451C15.86,13.661 16.228,14.074 16.533,14.379C16.759,14.604 17.083,14.813 17.276,14.991C17.562,15.256 17.756,15.68 17.994,15.918C18.485,16.409 18.978,16.823 19.402,17.247C19.47,17.316 19.622,17.583 19.644,17.793C19.657,17.913 19.639,18.019 19.602,18.108C19.599,18.166 19.591,18.232 19.575,18.281C19.495,18.519 19.406,18.881 19.262,19.129C19.153,19.317 19.012,19.456 18.855,19.535C18.76,19.582 18.622,19.612 18.466,19.596C18.276,19.576 18.043,19.479 17.963,19.425C17.697,19.248 17.47,19.079 17.182,18.935C16.945,18.816 16.674,18.62 16.452,18.398C16.388,18.333 16.29,18.308 16.203,18.265C16.065,18.195 15.934,18.114 15.826,18.007C15.615,17.796 15.2,17.485 14.914,17.198C14.322,16.606 13.545,16.216 13.025,15.567C12.67,15.122 12.262,14.671 11.947,14.25C11.89,14.174 11.712,13.948 11.656,13.877C11.491,13.796 11.377,13.626 11.377,13.429C11.377,13.153 11.601,12.929 11.877,12.929C11.979,12.929 12.127,12.962 12.275,13.084C12.423,13.205 12.646,13.516 12.747,13.65C13.056,14.063 13.457,14.506 13.806,14.942C14.303,15.563 15.055,15.925 15.621,16.491C15.908,16.778 16.322,17.088 16.533,17.3C16.601,17.367 16.7,17.394 16.786,17.437C16.926,17.506 17.055,17.586 17.159,17.691C17.303,17.834 17.476,17.964 17.629,18.04C17.927,18.189 18.169,18.359 18.438,18.54C18.446,18.522 18.454,18.505 18.46,18.49C18.526,18.317 18.574,18.126 18.62,17.982L18.624,17.959C18.626,17.947 18.628,17.935 18.63,17.923L18.636,17.897C18.226,17.492 17.756,17.094 17.287,16.625C17.057,16.395 16.874,15.982 16.597,15.726C16.396,15.54 16.061,15.321 15.826,15.086C15.589,14.849 15.319,14.509 14.992,14.346C14.705,14.202 14.508,13.985 14.345,13.749C14.245,13.605 14.166,13.452 14.053,13.339C13.985,13.271 13.847,13.049 13.791,12.959ZM18.619,17.995C18.611,18.034 18.609,18.078 18.609,18.078C18.609,18.078 18.611,18.045 18.619,17.995Z"/>
    <path d="M17.365,19.061C17.313,19.033 17.164,18.948 17.103,18.895C17.033,18.834 16.986,18.768 16.958,18.711C16.923,18.64 16.894,18.539 16.892,18.422C16.89,18.347 16.905,18.251 16.905,18.201C16.905,17.959 16.955,17.572 17.096,17.302C17.193,17.116 17.33,16.975 17.495,16.893C17.609,16.836 17.758,16.805 17.924,16.808C18.096,16.811 18.304,16.866 18.422,16.866C18.698,16.866 18.922,17.09 18.922,17.366C18.922,17.642 18.698,17.866 18.422,17.866C18.332,17.866 18.102,17.838 17.973,17.82C17.948,17.923 17.905,18.114 17.905,18.201L17.905,18.22L17.928,18.234C18.138,18.385 18.14,18.575 18.14,18.644C18.14,18.92 17.916,19.144 17.64,19.144C17.538,19.144 17.444,19.114 17.365,19.061Z"/>
    <g transform="matrix(1,0,0,1,2.55541,2.84224)">
        <path d="M11.156,10.498C11.208,10.277 11.406,10.113 11.643,10.113C11.919,10.113 12.143,10.337 12.143,10.613C12.143,10.749 12.107,10.862 12.051,10.964C12.013,11.03 11.915,11.147 11.898,11.167C11.803,11.343 11.578,11.555 11.313,11.707C11.048,11.858 10.754,11.947 10.574,11.947C10.298,11.947 10.074,11.723 10.074,11.447C10.074,11.176 10.291,10.954 10.561,10.948C10.573,10.943 10.728,10.89 10.815,10.839C10.893,10.795 11.008,10.697 11.022,10.685C11.056,10.624 11.118,10.544 11.156,10.498Z"/>
    </g>
    <path d="M13.828,12.942C13.696,12.882 13.462,12.742 13.323,12.605C13.157,12.441 13.098,12.254 13.098,12.125C13.098,11.849 13.322,11.625 13.598,11.625C13.797,11.625 13.969,11.741 14.05,11.91L14.216,12.022C14.216,12.022 14.205,12.017 14.2,12.016C14.268,12.039 14.346,12.093 14.403,12.138C14.577,12.217 14.698,12.392 14.698,12.595C14.698,12.87 14.474,13.095 14.198,13.095C14.071,13.095 13.92,13.006 13.828,12.942Z"/>
    <path d="M6.523,1.72C6.745,1.687 7.122,1.603 7.435,1.604C7.625,1.605 7.799,1.637 7.938,1.697C7.988,1.696 8.245,1.69 8.331,1.69C8.745,1.69 9.274,1.671 9.681,1.752C10.423,1.901 11.031,2.102 11.749,2.342C11.851,2.376 12.058,2.541 12.084,2.562C12.316,2.717 12.603,2.939 12.805,3.141C12.908,3.244 13.075,3.336 13.198,3.417C13.469,3.598 13.801,4.018 13.992,4.224C14.205,4.454 14.462,4.702 14.593,4.965C14.744,5.266 14.909,5.598 15.089,5.956C15.135,6.049 15.172,6.249 15.18,6.296C15.251,6.454 15.295,6.678 15.301,6.918C15.309,7.224 15.261,7.554 15.202,7.747C15.201,7.779 15.194,8.002 15.194,8.057C15.194,8.051 15.193,8.034 15.193,8.034C15.193,8.034 15.198,8.313 15.175,8.384C15.162,8.423 15.146,8.457 15.129,8.487C15.126,8.545 15.119,8.688 15.116,8.771C15.112,8.924 15.095,9.061 15.064,9.154C14.96,9.465 14.881,9.869 14.75,10.132C14.716,10.201 14.626,10.318 14.593,10.36C14.527,10.595 14.377,10.907 14.239,11.045C14.071,11.212 13.935,11.402 13.808,11.583C13.905,11.771 13.875,12.008 13.717,12.166C13.192,12.691 12.643,13.376 11.907,13.694C11.881,13.731 11.853,13.769 11.84,13.782C11.773,13.849 11.605,13.953 11.511,14.001C11.5,14.014 11.421,14.104 11.379,14.149C11.269,14.268 11.141,14.367 10.966,14.425C10.333,14.636 9.654,14.659 8.957,14.659C8.825,14.659 8.627,14.683 8.463,14.671C8.372,14.664 8.288,14.648 8.213,14.623C8.13,14.629 7.97,14.636 7.897,14.618C7.696,14.568 7.453,14.593 7.26,14.529C6.882,14.403 6.444,14.37 6.061,14.242C5.766,14.144 5.547,13.999 5.268,13.9C5.143,13.855 5.026,13.775 4.918,13.676C4.867,13.629 4.827,13.566 4.77,13.537C4.099,13.202 3.467,12.432 3.138,11.775C3.113,11.725 3.06,11.667 3.019,11.644C2.951,11.604 2.878,11.506 2.826,11.425C2.762,11.374 2.698,11.305 2.639,11.22C2.538,11.072 2.442,10.852 2.382,10.732C2.314,10.596 2.282,10.415 2.246,10.263C2.229,10.233 2.168,10.121 2.147,10.08C2.09,9.965 2.055,9.825 2.039,9.675C2.026,9.566 2.029,9.447 2.005,9.352C1.829,8.647 1.815,7.939 1.979,7.284C2.042,7.033 1.978,6.749 1.969,6.479C1.96,6.183 1.994,5.898 2.121,5.643C2.225,5.435 2.271,5.176 2.399,4.96C2.527,4.745 2.668,4.576 2.773,4.366C2.819,4.274 2.891,4.184 2.982,4.1C3.038,4.048 3.153,3.948 3.174,3.931C3.385,3.523 3.843,3.136 4.243,2.959C4.418,2.881 4.549,2.708 4.692,2.564C4.859,2.396 5.033,2.247 5.22,2.157C5.329,2.104 5.49,2.048 5.642,1.988C5.708,1.962 5.814,1.909 5.827,1.902C5.88,1.853 5.976,1.789 6.117,1.759C6.221,1.736 6.483,1.722 6.523,1.72ZM11.379,3.273C10.725,3.055 10.165,2.869 9.485,2.733C9.137,2.663 8.685,2.69 8.331,2.69C8.223,2.69 8.028,2.708 7.873,2.696C7.737,2.686 7.619,2.654 7.534,2.611C7.46,2.574 7.345,2.604 7.23,2.618C7.014,2.643 6.797,2.691 6.655,2.711C6.626,2.716 6.47,2.727 6.384,2.732C6.331,2.768 6.27,2.803 6.204,2.834C6.029,2.918 5.795,2.99 5.654,3.058C5.489,3.137 5.36,3.315 5.21,3.463C5.039,3.632 4.854,3.782 4.649,3.873C4.43,3.97 4.17,4.173 4.059,4.396C3.98,4.552 3.701,4.801 3.652,4.843C3.538,5.062 3.394,5.244 3.259,5.471C3.143,5.666 3.11,5.903 3.016,6.091C2.918,6.285 2.971,6.518 2.987,6.748C3.006,7.016 3.011,7.281 2.949,7.527C2.824,8.028 2.84,8.57 2.975,9.11C3.001,9.211 3.013,9.328 3.022,9.446C3.027,9.513 3.017,9.583 3.042,9.633C3.088,9.725 3.186,9.902 3.21,9.996C3.233,10.087 3.235,10.202 3.276,10.285C3.324,10.38 3.473,10.667 3.473,10.667L3.471,10.666C3.528,10.717 3.581,10.786 3.621,10.846C3.774,10.964 3.946,11.154 4.033,11.328C4.275,11.812 4.723,12.396 5.217,12.643C5.323,12.696 5.422,12.775 5.516,12.865C5.549,12.896 5.61,12.951 5.626,12.966C5.888,13.063 6.097,13.2 6.377,13.294C6.76,13.421 7.199,13.454 7.577,13.58C7.647,13.604 7.728,13.599 7.808,13.603C7.905,13.609 8.001,13.618 8.091,13.637C8.178,13.635 8.406,13.634 8.524,13.674L8.519,13.672C8.519,13.672 8.839,13.659 8.957,13.659C9.537,13.659 10.104,13.654 10.632,13.482C10.652,13.459 10.727,13.374 10.769,13.33C10.85,13.244 10.941,13.168 11.054,13.112C11.074,13.102 11.123,13.073 11.146,13.06C11.222,12.971 11.347,12.839 11.443,12.804C11.884,12.64 12.231,12.299 12.55,11.954C12.517,11.887 12.499,11.813 12.499,11.734C12.499,11.526 12.626,11.347 12.807,11.272C12.836,11.23 12.881,11.164 12.902,11.134C13.083,10.877 13.277,10.594 13.522,10.347C13.531,10.33 13.615,10.155 13.635,10.074C13.657,9.986 13.694,9.905 13.743,9.83C13.775,9.781 13.844,9.695 13.86,9.675C13.968,9.452 14.025,9.116 14.11,8.855C14.11,8.823 14.116,8.509 14.134,8.361C14.145,8.268 14.168,8.185 14.197,8.112C14.195,8.088 14.194,8.066 14.194,8.057C14.194,7.939 14.203,7.582 14.245,7.456C14.283,7.343 14.306,7.135 14.301,6.943C14.299,6.856 14.3,6.771 14.272,6.716C14.226,6.624 14.19,6.43 14.181,6.378L13.699,5.413C13.606,5.227 13.408,5.065 13.257,4.903C13.107,4.74 12.858,4.393 12.643,4.249C12.471,4.134 12.243,3.993 12.098,3.848C11.936,3.687 11.706,3.511 11.522,3.389C11.486,3.364 11.415,3.304 11.379,3.273ZM11.133,13.075L11.133,13.075C11.118,13.091 11.077,13.143 11.077,13.143C11.077,13.143 11.099,13.115 11.133,13.075Z"/>
    <path d="M4.513,10.708C3.882,10.045 3.633,9.13 3.633,8.005C3.633,7.595 3.61,7.236 3.737,6.856C3.769,6.759 3.767,6.649 3.78,6.547C3.799,6.4 3.833,6.261 3.894,6.139C4.012,5.903 4.178,5.558 4.379,5.357C4.512,5.225 4.725,5.089 4.875,4.94C5.207,4.607 5.656,4.168 6.126,3.933C6.366,3.814 6.647,3.763 6.921,3.672C7.441,3.499 8.012,3.49 8.618,3.49C8.711,3.49 8.892,3.462 9.032,3.465C9.179,3.468 9.305,3.5 9.389,3.542C9.437,3.566 9.498,3.563 9.554,3.572C9.673,3.593 9.787,3.624 9.885,3.673C10.271,3.866 10.715,3.875 11.123,4.011C11.321,4.077 11.695,4.388 11.826,4.509C12.307,4.954 12.546,5.593 12.701,6.215C12.741,6.375 12.849,6.522 12.899,6.674C13.096,7.265 13.238,7.839 13.238,8.501C13.238,8.611 13.286,8.797 13.29,8.946C13.294,9.106 13.263,9.246 13.211,9.35C12.838,10.097 12.551,10.672 12.048,11.175C11.837,11.387 11.652,11.637 11.446,11.789C11.409,11.844 11.359,11.917 11.344,11.931C11.211,12.065 11.008,12.233 10.797,12.338C10.117,12.678 9.284,12.912 8.357,12.912C8.219,12.912 7.979,12.953 7.79,12.949C7.625,12.945 7.481,12.911 7.377,12.859C7.131,12.736 6.824,12.7 6.569,12.572C6.529,12.552 6.429,12.48 6.382,12.446C6.217,12.394 6.09,12.26 6.047,12.092C5.909,12.028 5.757,11.971 5.604,11.894C5.553,11.869 5.491,11.827 5.426,11.775C5.382,11.738 5.337,11.682 5.291,11.66C5.073,11.551 4.923,11.38 4.744,11.201C4.68,11.137 4.626,11.055 4.587,10.957C4.561,10.895 4.527,10.764 4.513,10.708ZM9.009,4.467C8.941,4.472 8.697,4.49 8.618,4.49C8.126,4.49 7.66,4.48 7.238,4.62C7.009,4.696 6.772,4.728 6.573,4.828C6.197,5.016 5.848,5.38 5.582,5.647C5.433,5.796 5.219,5.932 5.086,6.064C4.955,6.195 4.866,6.432 4.789,6.586C4.758,6.647 4.766,6.725 4.758,6.8C4.744,6.928 4.725,7.055 4.686,7.172C4.594,7.447 4.633,7.708 4.633,8.005C4.633,8.855 4.777,9.559 5.269,10.051C5.341,10.122 5.398,10.214 5.439,10.32C5.463,10.382 5.493,10.499 5.506,10.553C5.579,10.635 5.642,10.717 5.739,10.765C5.838,10.815 6.034,10.979 6.07,11.009C6.246,11.096 6.419,11.158 6.573,11.235C6.65,11.273 6.797,11.368 6.835,11.392C7.054,11.411 7.233,11.571 7.28,11.78C7.453,11.834 7.631,11.875 7.788,11.947C7.816,11.947 7.911,11.947 7.97,11.942C8.115,11.929 8.259,11.912 8.357,11.912C9.114,11.912 9.795,11.721 10.35,11.443C10.446,11.395 10.538,11.319 10.607,11.254C10.641,11.201 10.708,11.1 10.732,11.076C10.783,11.024 10.833,10.993 10.872,10.974C10.928,10.946 10.971,10.888 11.02,10.831C11.123,10.714 11.226,10.583 11.341,10.468C11.756,10.053 11.984,9.571 12.287,8.963C12.275,8.881 12.238,8.604 12.238,8.501C12.238,7.953 12.114,7.479 11.951,6.99C11.892,6.815 11.777,6.642 11.731,6.458C11.622,6.021 11.485,5.556 11.147,5.243C11.082,5.183 10.821,4.978 10.791,4.954C10.343,4.808 9.862,4.779 9.437,4.567C9.392,4.544 9.332,4.549 9.276,4.54C9.183,4.523 9.093,4.5 9.009,4.467Z"/>
</svg>
