<?xml version="1.0" encoding="UTF-8" standalone="no"?>
<svg
  
   xmlns="http://www.w3.org/2000/svg"
   xml:space="preserve"
   enable-background="new 0.25 0 800 138"
   viewBox="0 0 512 512"
   height="512"
   width="512"
   y="0px"
   x="0px"
   id="Ebene_1"
   version="1.1"><metadata
   id="metadata99"><rdf:RDF><cc:Work
       rdf:about=""><dc:format>image/svg+xml</dc:format><dc:type
         rdf:resource="http://purl.org/dc/dcmitype/StillImage" /><dc:title></dc:title></cc:Work></rdf:RDF></metadata><defs
   id="defs97" />
<g
   transform="matrix(4.6105773,0,0,4.6106604,-4.4814811,-64.867387)"
   id="g8">
	<path
   style="fill:#f59b00;fill-opacity:1"
   id="path2"
   d="m 56.496,125.116 c 30.665,0 55.525,-24.858 55.525,-55.523 0,-30.666 -24.86,-55.524 -55.525,-55.524 -30.665,0 -55.524,24.859 -55.524,55.524 0,30.665 24.859,55.523 55.524,55.523" />
	<path
   style="fill:#1a1a18"
   id="path4"
   d="M 86.386,37.744 H 74.885 c -1.992,0 -3.27,0.803 -3.27,3.061 0,1.754 0.832,4.397 1.604,6.062 -1.01,0.387 -1.604,1.249 -1.604,2.795 0,1.754 0.862,4.338 1.604,5.884 l -1.307,0.119 v 1.516 h 14.473 v -1.723 h -11.5 C 73.933,53.645 73.22,51.088 73.22,49.9 c 0,-1.011 0.386,-1.575 1.456,-1.575 h 11.71 V 46.602 H 74.885 c -0.952,-1.813 -1.665,-4.191 -1.665,-5.558 0,-1.011 0.386,-1.576 1.456,-1.576 h 11.71 z M 83.651,63.66 c 0.922,1.306 1.487,3.001 1.487,4.427 0,2.021 -0.773,2.378 -2.467,2.378 -1.902,0 -2.497,-0.594 -2.497,-2.586 V 63.66 Z m -7.845,-1.723 c -2.704,0 -4.19,1.485 -4.19,5.23 0,1.485 0.238,3.298 0.564,4.457 l 1.456,-0.267 c -0.268,-1.338 -0.475,-2.854 -0.475,-4.28 0,-2.376 0.654,-3.417 2.645,-3.417 h 2.823 v 4.28 c 0,2.852 0.951,4.25 4.011,4.25 2.586,0 4.042,-1.188 4.042,-3.745 0,-1.903 -0.564,-3.508 -1.426,-4.905 l 1.129,-0.118 v -1.485 z m 1.01,22.672 c -2.437,0 -3.715,-0.979 -3.715,-3.687 0,-2.7 1.278,-3.563 3.715,-3.563 h 1.307 v 7.25 z m 4.666,0 h -1.814 v -8.944 h -2.792 c -2.973,0 -5.261,1.19 -5.261,5.26 0,4.073 2.288,5.411 5.261,5.411 h 4.547 c 3.15,0 5.26,-1.309 5.26,-5.38 0,-1.754 -0.327,-3.656 -0.802,-4.994 l -1.396,0.3 c 0.387,1.426 0.683,3.09 0.683,4.575 -0.001,2.884 -1.1,3.772 -3.686,3.772 m 3.298,4.815 c 0.268,0.862 0.417,1.784 0.417,2.586 0,1.487 -0.536,1.663 -1.813,1.663 h -9.986 v -4.249 l -1.485,-0.177 v 4.426 h -3.655 l 0.237,1.728 h 3.418 v 2.793 h 1.485 V 95.4 h 10.165 c 2.288,0 3.12,-0.981 3.12,-3.271 0,-1.04 -0.238,-2.203 -0.564,-3.03 z" />
	<path
   style="fill:#ffffff"
   id="path6"
   d="m 95.995,77.477 c 0,-3.934 -0.406,-5.147 -6.039,-6.403 -2.35,-0.527 -2.513,-0.69 -2.513,-1.904 0,-0.894 0.406,-1.338 2.107,-1.338 1.54,0 3.688,0.243 5.431,0.567 l 0.526,-4.539 c -1.743,-0.446 -4.498,-0.648 -5.998,-0.648 -5.915,0 -7.537,1.742 -7.537,5.916 0,3.688 0.446,4.984 5.228,6.161 3.161,0.771 3.201,0.935 3.201,2.188 0,1.174 -0.283,1.66 -2.026,1.66 -2.188,0 -4.337,-0.404 -5.957,-0.892 l -0.933,4.336 c 1.946,0.649 5.025,1.176 7.173,1.176 5.635,-0.001 7.337,-2.23 7.337,-6.28 M 59.643,77.148 c -0.851,0.729 -2.391,1.541 -3.728,1.541 -1.54,0 -2.107,-0.853 -2.107,-2.229 v -5.957 c 0,-1.297 0.567,-2.23 2.107,-2.23 1.216,0 2.715,0.244 3.728,0.487 z M 47.972,76.461 c 0,4.821 2.229,7.295 6.241,7.295 2.148,0 4.702,-1.095 6.079,-1.984 L 60.9,83.35 h 4.579 V 54.738 l -5.836,0.811 v 8.227 c -1.337,-0.324 -3.404,-0.567 -5.025,-0.567 -4.619,0 -6.646,2.635 -6.646,7.295 z M 43.718,63.614 H 37.882 V 83.35 h 5.836 z m 0,-8.673 h -5.836 v 6.2 h 5.836 z m -20.588,18.48 5.269,9.929 h 6.242 L 29.21,73.421 34.397,63.614 H 28.156 Z M 22.36,83.35 V 54.738 l -5.836,0.811 V 83.35 Z" />
</g>

</svg>