<?xml version="1.0" encoding="UTF-8" standalone="no"?>
<svg
   xmlns="http://www.w3.org/2000/svg"
   viewBox="0 0 5.2916665 5.2916668"
   height="20"
   width="20">
  <g
     transform="translate(0,-291.70832)"
     id="layer1">
    <path
       d="m 1.0817583,293.56731 c -0.00476,0.008 -0.062921,0.044 -0.056315,0.0592 -0.017185,0.0358 -0.0412196,0.0691 -0.0512787,0.10804 -0.003649,0.0141 -0.004589,0.0288 -0.006856,0.0432 -0.0133451,0.0811 0.0104362,0.15758 0.0437136,0.23083 0.037891,0.0795 0.08697,0.15519 0.1473109,0.2197 0.040521,0.0433 0.070404,0.0646 0.1172741,0.10253 0.1476144,0.10039 0.3130639,0.17116 0.4842079,0.22074 0.041378,0.012 0.083438,0.0215 0.1251565,0.0322 0.2610408,0.069 0.5308874,0.0847 0.7993575,0.0957 0.2897322,0.0139 0.5791898,-0.02 0.8655116,-0.061 0.2407065,-0.0387 0.4821581,-0.0975 0.7003703,-0.20886 0.025723,-0.0223 0.065736,-0.0327 0.087258,-0.0604 0.00132,-0.002 -0.00577,0.005 -0.00592,0.003 -2.061e-4,-0.003 0.00375,-0.005 0.00563,-0.007 0.3228097,-0.35605 0.826343,0.10047 0.5035333,0.45652 v 0 c -0.085397,0.0924 -0.1791242,0.15906 -0.2905646,0.2179 -0.036969,0.0178 -0.073299,0.037 -0.1109062,0.0534 -0.2524149,0.11006 -0.522851,0.17534 -0.793918,0.21851 -0.3273152,0.0461 -0.6579301,0.0834 -0.9890254,0.0671 -0.3173343,-0.0132 -0.6357668,-0.0353 -0.9440694,-0.11741 -0.055182,-0.0147 -0.1108309,-0.0278 -0.1655461,-0.0442 -0.2528787,-0.0757 -0.4950562,-0.18709 -0.70736248,-0.34496 -0.0367771,-0.0314 -0.0750225,-0.0611 -0.11033124,-0.0942 -0.14907985,-0.13944 -0.26622984,-0.31009 -0.3488263,-0.49631 -0.0144282,-0.0378 -0.0307273,-0.075 -0.0432848,-0.11356 -0.052556,-0.1612 -0.0654894,-0.33235 -0.0368775,-0.49929 0.0144185,-0.07 0.0161637,-0.0891 0.0399316,-0.15848 0.0285586,-0.0834 0.0726581,-0.16022 0.11686802,-0.23598 0.0179437,-0.0255 0.0345871,-0.052 0.053831,-0.0766 0.0582349,-0.0743 0.13392198,-0.1332 0.21089567,-0.18666 0.40755023,-0.25472 0.76777713,0.32164 0.36022683,0.57636 z"
       id="path1864"
       style="fill:#000000;fill-opacity:1;stroke:none;stroke-width:0.1;stroke-miterlimit:4;stroke-dasharray:none;stroke-opacity:1" />
    <path
       d="m 3.5860818,293.8065 c 0.1011679,0.0316 0.2078516,0.0443 0.3130303,0.0547 0.1834002,0.0135 0.3672428,0.0169 0.5510263,0.0128 0.086915,-1.8e-4 0.1732045,-0.0109 0.259502,-0.0199 0.059819,-0.008 0.1193821,-0.007 0.179415,-0.004 0.027488,0.006 0.05604,0.009 0.082465,0.0193 0.132238,0.0497 0.1903926,0.12266 0.2425184,0.25454 0.021206,0.0537 0.013623,0.11341 0.012031,0.16868 -0.024416,0.12714 -0.084022,0.24337 -0.1339498,0.36185 -0.088546,0.21798 -0.1655868,0.44029 -0.2538317,0.6584 -0.067382,0.16664 -0.1423816,0.32999 -0.2231956,0.49049 -0.00438,0.009 -0.00876,0.0184 -0.013139,0.0275 -0.2078107,0.43335 -0.8206624,0.13947 -0.612852,-0.29389 v 0 c 0.00632,-0.0131 0.012631,-0.0262 0.018947,-0.0394 0.072545,-0.14403 0.1399638,-0.29057 0.2003636,-0.44015 0.089751,-0.22086 0.1665857,-0.44663 0.2574126,-0.66707 0.024059,-0.0571 0.0488,-0.1138 0.073001,-0.17079 0.00453,-0.0107 0.00882,-0.0214 0.013274,-0.0321 0.00153,-0.004 0.00487,-0.015 0.00467,-0.011 -6.614e-4,0.0135 -0.00408,0.0268 -0.00612,0.0402 4.233e-4,0.0177 -8.996e-4,0.0356 0.00127,0.0532 0.014343,0.11627 0.099863,0.20883 0.2079138,0.24532 0.017865,0.006 0.037054,0.007 0.055582,0.0105 0.077027,5.8e-4 -0.024532,2.7e-4 -0.035822,0.004 -0.1045882,0.0108 -0.2092238,0.0228 -0.3145319,0.0233 -0.2119717,0.005 -0.4240795,6.1e-4 -0.6355233,-0.0162 -0.154527,-0.0164 -0.3102264,-0.0372 -0.458379,-0.086 -0.4559398,-0.15198 -0.2410077,-0.79678 0.2149319,-0.6448 z"
       id="path1866"
       style="fill:#000000;fill-opacity:1;stroke:none;stroke-width:0.1;stroke-miterlimit:4;stroke-dasharray:none;stroke-opacity:1" />
  </g>
</svg>
