<?xml version="1.0" encoding="UTF-8" standalone="no"?>
<!DOCTYPE svg PUBLIC "-//W3C//DTD SVG 1.1//EN" "http://www.w3.org/Graphics/SVG/1.1/DTD/svg11.dtd">
<svg width="20" height="20" viewBox="0 0 20 20" version="1.1" xmlns="http://www.w3.org/2000/svg" xmlns:xlink="http://www.w3.org/1999/xlink" xml:space="preserve" xmlns:serif="http://www.serif.com/" style="fill-rule:evenodd;clip-rule:evenodd;stroke-linejoin:round;stroke-miterlimit:2;">
    <path d="M1,7.89C1,8.338 1.061,8.806 1.168,9.232C1.211,9.407 1.168,9.671 1.168,9.848C1.168,10.305 1.145,10.775 1.056,11.218C1.001,11.491 1.056,11.833 1.056,12.112L1.056,13.93C1.056,14.328 1.031,14.726 0.972,15.076C0.958,15.161 0.999,15.275 0.972,15.356C0.95,15.422 0.884,15.827 0.944,15.887C0.967,15.91 1.132,15.887 1.168,15.887C1.432,15.887 1.689,15.915 1.951,15.915C2.293,15.915 2.702,15.971 3.041,16.027C3.6,16.12 4.179,16.048 4.747,16.111C6.03,16.254 7.307,16.365 8.606,16.447C9.369,16.494 10.167,16.38 10.927,16.475C11.772,16.58 12.616,16.614 13.471,16.614C13.843,16.614 14.255,16.659 14.618,16.586C15.056,16.499 15.595,16.586 16.044,16.586C16.219,16.586 16.508,16.606 16.659,16.53C16.765,16.477 16.989,16.592 17.078,16.502C17.086,16.495 17.009,16.391 16.994,16.363C16.97,16.314 16.953,16.198 16.938,16.139C16.889,15.941 16.896,15.731 16.855,15.524C16.803,15.266 16.918,14.968 16.855,14.713C16.667,13.964 16.771,13.087 16.771,12.308C16.771,11.621 16.842,10.975 16.911,10.295C16.945,9.946 16.882,9.569 16.966,9.232C17.033,8.968 17.134,8.639 17.134,8.366C17.134,8.336 17.158,8.11 17.134,8.086C17.066,8.018 16.631,8.106 16.575,8.114C16.063,8.182 15.556,8.31 15.037,8.31C14.465,8.31 13.926,8.221 13.359,8.17C12.843,8.123 12.312,8.171 11.793,8.142C11.185,8.108 10.582,7.989 9.976,7.946C9.466,7.91 8.948,7.98 8.438,7.946C7.847,7.907 7.24,7.944 6.648,7.89C5.711,7.805 4.791,7.657 3.852,7.611C3.319,7.584 2.791,7.583 2.258,7.583C2.037,7.583 1.775,7.626 1.559,7.583C1.222,7.515 0.983,7.331 0.665,7.331" style="fill:none;stroke:black;stroke-width:1px;stroke-linecap:round;stroke-miterlimit:1.5;"/>
    <path d="M9.976,9.792C9.337,9.792 8.694,9.778 8.09,10.019C7.315,10.329 6.527,10.537 6.117,11.357C6.01,11.572 5.904,11.913 5.977,12.168C6.046,12.406 6.215,12.735 6.341,12.923C6.903,13.767 8.052,14.517 9.081,14.517L9.976,14.517C10.016,14.517 10.172,14.54 10.172,14.489" style="fill:none;stroke:black;stroke-width:1px;stroke-linecap:round;stroke-miterlimit:1.5;"/>
    <path d="M6.257,11.861C7.284,11.861 8.335,12.14 9.333,12.14" style="fill:none;stroke:black;stroke-width:1px;stroke-linecap:round;stroke-miterlimit:1.5;"/>
    <path d="M3.712,7.219C3.712,7.095 3.651,7.026 3.629,6.911C3.572,6.631 3.626,6.248 3.712,5.989C3.733,5.928 3.67,5.751 3.712,5.709C3.788,5.634 4.219,5.737 4.328,5.737C4.921,5.737 5.515,5.793 6.117,5.793C6.53,5.793 6.892,5.81 7.292,5.877C7.801,5.962 8.333,5.889 8.829,5.989C9.512,6.125 10.309,6.017 11.011,6.017C11.885,6.017 12.725,6.129 13.611,6.129C14.812,6.129 16.045,6.184 17.218,6.184C17.62,6.184 18.01,6.24 18.42,6.24C18.575,6.24 18.627,6.221 18.756,6.184C18.8,6.172 19.008,6.101 18.98,6.129C18.909,6.199 18.952,6.409 18.924,6.52C18.825,6.917 18.76,7.305 18.7,7.722C18.618,8.299 18.616,8.894 18.616,9.484C18.616,9.796 18.575,10.171 18.672,10.463C18.737,10.657 18.672,10.984 18.672,11.19L18.672,12.839C18.672,13.286 18.59,13.88 18.728,14.293C18.75,14.36 18.834,14.719 18.784,14.769C18.731,14.822 18.428,14.754 18.365,14.741C18.023,14.673 17.629,14.713 17.274,14.713" style="fill:none;stroke:black;stroke-width:1px;stroke-linecap:round;stroke-miterlimit:1.5;"/>
</svg>
