<?xml version="1.0" encoding="UTF-8" standalone="no"?>
<svg
   xmlns:dc="http://purl.org/dc/elements/1.1/"
   xmlns:cc="http://creativecommons.org/ns#"
   xmlns:rdf="http://www.w3.org/1999/02/22-rdf-syntax-ns#"
   xmlns:svg="http://www.w3.org/2000/svg"
   xmlns="http://www.w3.org/2000/svg"
   id="svg840"
   version="1.1"
   width="20"
   height="20"
   viewBox="0 0 5.2916665 5.2916668">
  <metadata
     id="metadata846">
    <rdf:RDF>
      <cc:Work
         rdf:about="">
        <dc:format>image/svg+xml</dc:format>
        <dc:type
           rdf:resource="http://purl.org/dc/dcmitype/StillImage" />
        <dc:title></dc:title>
      </cc:Work>
    </rdf:RDF>
  </metadata>
  <defs
     id="defs844" />
  <path
     d="m 2.5840606,0.25708461 c 9.253e-4,-9.8701e-4 0.00379,-0.003855 0.00277,-0.002962 -0.029034,0.0254462 -0.074178,0.0748933 -0.072386,0.11106228 0.00337,0.0680701 0.021353,0.13754005 0.054734,0.19715028 0.015765,0.0281519 0.055715,0.03322 0.083574,0.0498299 0.050204,0.0148611 0.1027673,0.0173424 0.1537683,0.0282481 0.026857,0.005743 0.049749,0.0126483 0.076308,0.0200917 0.1115247,0.0324833 0.2141656,0.0878304 0.3169182,0.14047462 0.1621865,0.0802167 0.3073375,0.18803236 0.4508748,0.29651891 0.1062584,0.081436 0.2085955,0.1678702 0.3071142,0.2583303 0.025034,0.022987 0.050164,0.045904 0.074185,0.069926 0.023564,0.023566 0.045671,0.048517 0.068506,0.072776 0.085491,0.095186 0.1626165,0.1978064 0.2245744,0.3096399 0.034213,0.061755 0.052723,0.1071291 0.081606,0.1718493 0.07186,0.1850536 0.1166727,0.3786946 0.165816,0.5704539 0.030568,0.1229919 0.069278,0.2438148 0.1013682,0.3663947 0.017347,0.066263 0.020679,0.084247 0.035294,0.1502951 0.016438,0.08002 0.031047,0.1610281 0.036335,0.2426636 0.00242,0.037436 6.392e-4,0.054654 -0.00108,0.091817 -0.00726,0.046065 -0.017208,0.092231 -0.032736,0.1363472 -0.01984,0.056372 -0.048831,0.1089239 -0.077294,0.1612832 -0.076062,0.1367217 -0.1744588,0.2589394 -0.2730588,0.3800523 -0.049929,0.057509 -0.1007716,0.114742 -0.1583417,0.1649626 -0.033875,0.029552 -0.037697,0.031315 -0.075309,0.059689 -0.018409,0.01225 -0.036455,0.025047 -0.055224,0.036748 -0.042958,0.026782 -0.101989,0.05933 -0.1459025,0.083196 -0.077774,0.042268 -0.1568579,0.081686 -0.2361915,0.1209743 -0.075198,0.034408 -0.1497193,0.072172 -0.2285835,0.098055 -0.021029,0.0069 -0.066493,0.017856 -0.087262,0.02306 -0.1518462,0.032735 -0.3054881,0.056573 -0.4590909,0.079584 -0.1492759,0.020926 -0.2990688,0.037999 -0.4493707,0.049706 -0.121109,0.00927 -0.2425203,0.00686 -0.3636866,7.151e-4 -0.1282767,-0.0082 -0.255557,-0.026601 -0.3809641,-0.0543 -0.013281,-0.00352 -0.026644,-0.00673 -0.039842,-0.010543 -0.030905,-0.00892 -0.061397,-0.019185 -0.092026,-0.028991 C 1.5312584,4.68355 1.4732627,4.6644399 1.4154596,4.6446368 1.3427608,4.617546 1.270101,4.5892489 1.2008913,4.5541182 1.1731159,4.5400198 1.1630408,4.5332707 1.1373395,4.5176312 1.1048739,4.4957785 1.0738239,4.4715115 1.0466692,4.4433321 1.0366209,4.4329048 1.0051767,4.3953244 0.99837022,4.387288 0.98827588,4.3751681 0.9779026,4.3632706 0.96808714,4.3509285 0.95398462,4.3331955 0.91861466,4.2853354 0.9061551,4.2681003 0.89115999,4.247358 0.85912018,4.202331 0.84529957,4.1798993 0.83667997,4.1659091 0.8291781,4.1512738 0.82111735,4.1369613 0.78798052,4.0702 0.7594533,4.0012838 0.73903957,3.9296339 0.72659693,3.8859617 0.72260925,3.8644472 0.71278615,3.8197408 0.68948127,3.708627 0.67387793,3.5962 0.6615926,3.4834361 0.64817548,3.360761 0.63806774,3.2377549 0.62843298,3.1147412 0.61969191,2.9988717 0.61660421,2.8827023 0.61488569,2.7665556 c 1.061e-4,-0.080042 0.009017,-0.1595319 0.0180472,-0.2389409 0.009528,-0.087624 0.0301862,-0.1735287 0.0520585,-0.2587943 0.030245,-0.1124222 0.073085,-0.220875 0.11641893,-0.3288346 0.021262,-0.051611 0.0418516,-0.1036497 0.0679109,-0.1531439 0.0132019,-0.025074 0.0180586,-0.031958 0.0328806,-0.055807 0.03408,-0.057166 0.0757592,-0.1091712 0.11897038,-0.1597302 C 1.0836154,1.4986628 1.1502914,1.4297904 1.216936,1.3609606 1.2825136,1.2895615 1.3493708,1.2193477 1.4197504,1.1525551 1.4771958,1.0968895 1.5421136,1.0496565 1.6067309,1.0026124 1.6990849,0.9368377 1.7927183,0.87284806 1.8867579,0.8094607 1.9613756,0.761077 2.0367613,0.7137476 2.1145828,0.67055495 c 0.052031,-0.0286956 0.1074019,-0.0500724 0.162994,-0.0708704 0.054288,-0.0206865 0.1095343,-0.0389739 0.1661445,-0.0523304 0.013816,-0.002228 0.027748,-0.005796 0.041862,-0.005701 0.00301,2.046e-5 0.00598,8.6631e-4 0.00899,0.001037 0.00996,5.6105e-4 0.01994,7.5906e-4 0.02991,0.001153 0.013971,5.5279e-4 0.027941,0.001122 0.04191,0.001683 0.091881,0.003955 0.1838364,0.00561 0.2757891,0.006832 0.010073,1.0921e-4 0.020146,2.1843e-4 0.030218,3.2727e-4 0.2851255,0.003087 0.2895354,-0.39595639 0.00441,-0.39904238 v 0 c -0.00975,-1.0595e-4 -0.019483,-2.1117e-4 -0.029225,-3.1645e-4 -0.08831,-0.001169 -0.1766239,-0.002731 -0.2648654,-0.00654 -0.045466,-0.001821 -0.091074,-0.004775 -0.1365855,-0.002287 -0.033271,0.001819 -0.066107,0.008636 -0.098627,0.0153115 -0.072364,0.017893 -0.1435933,0.0398751 -0.2130835,0.0667982 C 2.060161,0.25461299 1.9864373,0.28411369 1.9169893,0.32267819 1.829183,0.37161209 1.7438276,0.42471874 1.6597291,0.47964829 1.5616404,0.54578247 1.4639683,0.61253573 1.3676837,0.68122409 1.2889005,0.73864067 1.210365,0.79694665 1.1403183,0.86483256 1.0660938,0.93555848 0.99487653,1.0092266 0.92577363,1.0848643 0.85319075,1.1598266 0.78071359,1.2349674 0.71279944,1.3141585 0.65632458,1.3806775 0.60215559,1.4492768 0.55734303,1.5241957 c -0.0236579,0.038995 -0.0291583,0.046599 -0.0502323,0.087241 -0.030477,0.058776 -0.0555142,0.120076 -0.0804865,0.1812731 -0.0497706,0.124081 -0.0983538,0.2489466 -0.1325808,0.3782836 -0.0261778,0.1028023 -0.0504633,0.2064033 -0.0618346,0.3120062 -0.0109304,0.096164 -0.0209688,0.1925141 -0.0205314,0.2894389 0.001866,0.1244808 0.005281,0.2489823 0.0147108,0.3731613 0.009963,0.1270482 0.020421,0.2540863 0.0342943,0.3807838 0.0139577,0.127149 0.0317205,0.2539165 0.0582826,0.3791597 0.0135235,0.060203 0.0178989,0.08418 0.0353368,0.1436228 0.0289747,0.098771 0.0689234,0.1939754 0.11645366,0.2853697 0.0128785,0.022052 0.0251301,0.044476 0.0386356,0.066158 0.0163271,0.026209 0.0530004,0.077775 0.0710557,0.1026921 0.0217329,0.029993 0.0536186,0.072712 0.0765311,0.1014407 0.0107483,0.013476 0.0220823,0.026488 0.0331232,0.03973 0.0294086,0.034353 0.0469673,0.056134 0.0792502,0.088495 0.0478133,0.047931 0.10210747,0.089222 0.15904343,0.1258977 0.042504,0.025239 0.0522273,0.031967 0.0979343,0.054907 0.083135,0.041727 0.1700883,0.075829 0.2573647,0.1079414 0.060878,0.020803 0.1219225,0.040966 0.1832051,0.060575 0.020309,0.0065 0.090788,0.028778 0.1119112,0.034716 0.01834,0.00516 0.036901,0.00951 0.055352,0.01426 0.1474957,0.032103 0.2970328,0.054149 0.4478839,0.063243 0.1385202,0.00679 0.2773223,0.0093 0.4157499,-0.00145 C 2.6576585,5.1805677 2.817012,5.1626067 2.9757739,5.1401747 3.1427121,5.1151197 3.3097473,5.0892547 3.47456,5.0526027 3.525049,5.0396797 3.553686,5.0332407 3.6043492,5.0162357 3.6960929,4.9854437 3.7832618,4.9423007 3.8707986,4.9017689 4.042969,4.8164649 4.2161971,4.7305481 4.3736797,4.620154 4.4220362,4.583024 4.4334663,4.575752 4.4770268,4.537005 4.5486436,4.4733055 4.6132849,4.4024096 4.6753239,4.3296596 4.7898823,4.1888544 4.9029344,4.0458914 4.9904435,3.88651 5.0047946,3.85953 5.0199271,3.832943 5.0334926,3.805569 5.0944429,3.6825677 5.1350278,3.5525373 5.1473559,3.4157785 c 6.948e-4,-0.023916 0.00223,-0.047821 0.00211,-0.071747 C 5.1488566,3.2219549 5.1270937,3.1007731 5.1029326,2.9814894 5.0859036,2.9050548 5.0829724,2.888634 5.0628786,2.8120054 5.0313297,2.6916911 4.9934488,2.5730636 4.9633069,2.4523694 4.9085476,2.2386986 4.8581343,2.0229782 4.7750565,1.8178241 4.7347371,1.7286569 4.7188638,1.6884239 4.6706476,1.6026117 4.5941687,1.466499 4.4992907,1.3415191 4.3945924,1.2255627 4.3663486,1.1959134 4.3388819,1.16552 4.3098611,1.1366149 4.2833801,1.110239 4.2557116,1.0850507 4.22815,1.0597821 4.1213664,0.96188251 4.0103869,0.86842445 3.8952677,0.78025813 3.7330114,0.65780578 3.5682173,0.53725544 3.3850815,0.44655515 3.2577935,0.38139951 3.129913,0.31491614 2.9913293,0.27615342 2.9388574,0.26179354 2.8868226,0.2485828 2.8330829,0.23969895 c -0.011867,-0.001961 -0.023788,-0.003559 -0.035681,-0.005354 -0.00722,-0.001087 -0.014337,-0.003413 -0.021632,-0.003291 -0.00278,4.638e-5 0.00501,0.002351 0.00751,0.003527 0.023689,0.0151988 0.058427,0.0206143 0.071068,0.0455964 0.055754,0.1101802 0.081768,0.19161693 -0.00159,0.27414816 -1.448e-4,1.4316e-4 2.217e-4,-3.4102e-4 3.335e-4,-5.0879e-4 0.00537,-0.00485 0.010731,-0.009701 0.016094,-0.0145496 C 3.070829,0.33973393 2.7856866,0.05755149 2.5840606,0.25708461 Z"
     id="path880"
     style="fill:#000000;stroke-width:0" />
  <path
     d="m 2.3610943,0.95875349 c 0,0.019616 0,0.0392318 0,0.0588476 0,0.2714709 0.3839178,0.2714709 0.3839178,0 v 0 c 0,-0.0196159 0,-0.0392317 0,-0.0588476 0,-0.27147085 -0.3839178,-0.27147085 -0.3839178,0 z"
     id="path882"
     style="fill:#000000;stroke-width:0" />
  <path
     d="m 3.1539259,1.1546734 c -0.00496,0.013623 -0.00902,0.022034 -0.01338,0.030564 -3.969e-4,7.752e-4 7.144e-4,-0.00159 0.00106,-0.00239 -0.1314458,0.2375258 0.2044662,0.4234179 0.335912,0.1858922 v 0 c 0.012376,-0.02315 0.023717,-0.046851 0.032868,-0.071486 0.1008204,-0.252051 -0.2556384,-0.39463453 -0.35646,-0.1425802 z"
     id="path884"
     style="fill:#000000;stroke-width:0" />
  <path
     d="m 3.8762606,1.6302347 c -0.033247,0.00913 -0.064229,0.025119 -0.093812,0.042433 -0.0137,0.00817 -0.00624,0.00365 -0.022341,0.01364 -0.2303031,0.1437251 -0.027045,0.4694229 0.203258,0.3256978 v 0 c 0.010229,-0.00645 0.00432,-0.0028 0.017801,-0.01085 6.086e-4,-0.00101 -0.00447,0.00141 -0.00349,7.434e-4 0.00816,-0.00554 0.00921,-0.00242 0.019987,-0.00745 C 4.2552035,1.9086019 4.1337978,1.5443859 3.876258,1.6302325 Z"
     id="path886"
     style="fill:#000000;stroke-width:0" />
  <path
     d="m 4.3208813,2.5338573 c -0.019323,0 -0.038646,0 -0.057969,0 -0.014079,0 -0.028159,0 -0.042239,0 -0.271471,0 -0.271471,0.3839177 0,0.3839177 v 0 c 0.014079,0 0.028159,0 0.042239,0 0.019322,0 0.038646,0 0.057969,0 0.2714707,0 0.2714707,-0.3839177 0,-0.3839177 z"
     id="path888"
     style="fill:#000000;stroke-width:0" />
  <path
     d="m 4.2905603,3.3330874 c -0.034177,-0.015169 -0.025164,-0.00655 -0.01307,-0.00443 0.00204,3.44e-4 -0.0074,-0.00365 -0.00557,-0.0027 0.018468,0.00959 0.00257,-3.38e-5 0.028585,0.017772 -0.00804,-0.00713 0.00201,0.00169 -0.018516,-0.014838 -0.00206,-0.00167 0.00835,0.0065 0.00631,0.00482 -0.00418,-0.00346 -0.00837,-0.00692 -0.012742,-0.010128 -0.00351,-0.00257 0.00677,0.00549 0.010157,0.00823 C 4.0861474,3.147768 3.8258808,3.4299985 4.025448,3.6140347 v 0 c 0.00576,0.00493 0.011531,0.00986 0.017288,0.014806 0.00153,0.00132 -0.0062,-0.0052 -0.00462,-0.00393 0.047009,0.037659 -0.012634,-0.010237 0.014759,0.0122 0.00981,0.00727 0.019248,0.015071 0.029425,0.021818 0.021799,0.014449 0.048305,0.026305 0.073294,0.033628 0.00262,7.673e-4 -0.00508,-0.00201 -0.00762,-0.003 0.2520542,0.1008216 0.3946376,-0.255637 0.1425834,-0.3564588 z"
     id="path890"
     style="fill:#000000;stroke-width:0" />
  <path
     d="M 3.9270611,3.9627246 C 3.95294,3.9883204 3.902439,3.9379305 3.914467,3.9488631 3.7339148,3.7461383 3.4472186,4.0014776 3.6277708,4.2042024 v 0 c 0.00421,0.00458 0.00839,0.0092 0.012644,0.013745 6.879e-4,7.144e-4 0.00177,0.00297 0.00214,0.00206 3.969e-4,-9.789e-4 -0.0013,-0.00167 -0.00196,-0.00249 0.005,0.00556 0.01,0.011126 0.014994,0.01669 0.1919643,0.1919656 0.4634352,-0.079505 0.2714763,-0.271464 z"
     id="path892"
     style="fill:#000000;stroke-width:0" />
  <path
     d="M 2.895202,4.417296 C 2.893882,4.405615 2.893222,4.393872 2.892692,4.382129 2.8924009,4.373549 2.8925274,4.377779 2.8923216,4.369426 2.8855394,4.0980404 2.5017418,4.1076263 2.50852,4.3790126 v 0 c 3.545e-4,0.013687 1.393e-4,0.00669 6.562e-4,0.020987 0.00129,0.02689 0.00311,0.053794 0.00732,0.080411 0.044629,0.2677771 0.4233236,0.2046613 0.3786942,-0.063116 z"
     id="path894"
     style="fill:#000000;stroke-width:0" />
  <path
     d="m 1.8242079,4.5337081 c 0.0093,-0.024326 0.015624,-0.049688 0.021583,-0.075004 C 1.9065556,4.194121 1.5323789,4.1081872 1.4716145,4.37277 v 0 c -7.276e-4,0.00354 -0.00908,0.031382 -0.00387,0.018354 -0.1008217,0.2520545 0.255637,0.3946379 0.3564587,0.1425834 z"
     id="path896"
     style="fill:#000000;stroke-width:0" />
  <path
     d="m 1.3186529,4.0812812 c -0.020094,0.026485 0.0067,-0.00214 0.00988,-0.0053 0.00297,-0.00302 0.00593,-0.00605 0.0089,-0.00907 C 1.527416,3.8729954 1.2531807,3.6043174 1.0631967,3.798231 v 0 c -0.00197,0.00201 -0.00393,0.00402 -0.0059,0.00604 -0.024576,0.024807 -0.049609,0.04936 -0.0678533,0.07949 -0.13966776,0.2327794 0.189539,0.4303035 0.3292096,0.1975192 z"
     id="path898"
     style="fill:#000000;stroke-width:0" />
  <path
     d="m 0.80770456,3.2549811 c 0.0230399,0.00795 0.0470307,0.012033 0.0710283,0.015732 0.26883774,0.037719 0.32218034,-0.342475 0.0533426,-0.3801938 v 0 c -0.001209,3.705e-4 -0.003242,1.149e-4 -0.002965,2.456e-4 -0.25754024,-0.085847 -0.3789457,0.2783698 -0.1214059,0.3642162 z"
     id="path900"
     style="fill:#000000;stroke-width:0" />
  <path
     d="m 1.0603662,2.4570737 c -0.026789,-0.00153 -0.03299,-0.00316 -0.019234,-2.074e-4 0.2660244,0.054106 0.3425421,-0.3221091 0.076518,-0.3762152 v 0 c -0.028996,-0.00578 -0.010024,-0.00247 -0.057283,-0.0075 -0.27147086,0 -0.27147086,0.3839178 0,0.3839178 z"
     id="path902"
     style="fill:#000000;stroke-width:0" />
  <path
     d="m 1.2615744,1.8113473 c 0.00547,0.00358 0.01321,0.00818 0.019328,0.011958 0.2314105,0.1419354 0.4321372,-0.1853285 0.2007267,-0.3272637 v 0 c -0.0082,-0.00501 -0.014377,-0.0085 -0.022531,-0.013901 C 1.2263141,1.3424699 1.02879,1.6716767 1.2615744,1.8113473 Z"
     id="path904"
     style="fill:#000000;stroke-width:0" />
  <path
     d="m 1.8140402,1.2728852 c -0.00343,-0.00353 -0.0088,-0.015287 -0.010304,-0.010597 -0.00161,0.00502 0.00651,0.00831 0.00969,0.012521 0.00589,0.00783 0.011265,0.016318 0.016405,0.024632 0.1475567,0.2278672 0.4698096,0.019191 0.322253,-0.2086766 v 0 C 2.1317016,1.0596611 2.1106888,1.0289367 2.0855111,1.0014143 1.8935522,0.80945542 1.6220814,1.0809263 1.8140402,1.2728852 Z"
     id="path906"
     style="fill:#000000;stroke-width:0" />
  <path
     d="m 2.363789,1.7089457 c 0.00307,0.022831 0.00633,0.045632 0.00857,0.068567 0.0012,0.011992 0.00145,0.024038 0.00157,0.036079 8e-5,0.023494 1.45e-5,0.046988 -2.2e-6,0.070482 -2.85e-5,0.049054 -3.41e-5,0.098107 -3.87e-5,0.1471609 1.839e-4,0.041198 4.074e-4,0.082349 -0.0016,0.123501 -0.00238,0.045229 -0.00367,0.090502 -0.00436,0.1357853 5.874e-4,0.0426 -0.00214,0.085098 -0.00413,0.1276254 -0.0016,0.032661 -0.00233,0.065351 -0.00262,0.098046 -1.49e-4,0.021936 -1.367e-4,0.043872 -1.171e-4,0.065808 2.33e-5,0.019779 2.7e-5,0.039559 3.09e-5,0.059338 3.28e-4,0.025119 0.00401,0.049987 0.00574,0.075006 2.554e-4,0.00782 0.00103,0.015597 0.00172,0.023395 0.031202,0.2696718 0.4125752,0.2255461 0.3813735,-0.044126 v 0 c 0.00212,0.026794 -2.911e-4,-0.00527 -1.768e-4,-0.00699 -0.00119,-0.015912 -0.00151,-0.03262 -0.00439,-0.048333 -6.21e-5,-3.387e-4 -2.339e-4,6.456e-4 -3.439e-4,9.71e-4 -3.7e-6,-0.019869 -7.7e-6,-0.039738 -3.1e-5,-0.059608 -1.85e-5,-0.020696 -3.23e-5,-0.041393 1.024e-4,-0.062089 2.363e-4,-0.027865 8.467e-4,-0.055726 0.00222,-0.083562 0.00217,-0.046556 0.005,-0.093097 0.0045,-0.1397289 6.085e-4,-0.04107 0.0018,-0.082129 0.00396,-0.1231493 0.00222,-0.047271 0.00238,-0.094538 0.00204,-0.1418567 4.8e-6,-0.048974 1.03e-5,-0.097948 3.87e-5,-0.1469226 1.79e-5,-0.025017 9.89e-5,-0.050035 -2.17e-5,-0.075052 -2.911e-4,-0.023363 -0.00111,-0.046725 -0.00345,-0.069985 -0.00287,-0.028305 -0.00671,-0.056473 -0.010526,-0.084659 C 2.7054564,1.3859091 2.3253972,1.4402033 2.363789,1.7089457 Z"
     id="path908"
     style="fill:#000000;stroke-width:0" />
  <path
     d="m 2.4590016,2.944596 c -0.012265,-0.00193 0.016099,0.00576 0.011709,0.00613 -0.00304,2.522e-4 -0.013855,-0.00872 0.00176,0.0033 0.012306,0.00947 0.024702,0.01883 0.037021,0.028289 0.052919,0.038205 0.1054282,0.07674 0.1550161,0.1192294 0.042219,0.035519 0.081002,0.074825 0.1210995,0.1126657 0.033289,0.030411 0.063174,0.064247 0.093546,0.097498 0.035755,0.040128 0.072566,0.079313 0.1081339,0.119607 0.033731,0.039602 0.067168,0.079445 0.1017791,0.1182843 0.019966,0.020971 0.038675,0.043054 0.05804,0.06457 0.018076,0.020373 0.037642,0.039341 0.057412,0.058048 0.1981486,0.1855629 0.4605742,-0.094661 0.2624257,-0.2802242 v 0 C 3.4547909,3.3809344 3.4432497,3.3692954 3.4322536,3.3570976 3.4133068,3.3361294 3.3951011,3.3144997 3.3755807,3.2940511 3.3411915,3.2555349 3.3082561,3.2157741 3.2745784,3.1766404 3.2375944,3.1350479 3.1997333,3.094246 3.1626136,3.0527762 3.1258312,3.012509 3.089333,2.9718531 3.0490814,2.9349665 3.0042838,2.8927052 2.9608802,2.848891 2.9135724,2.809376 2.8588121,2.7628672 2.8017764,2.7194155 2.7432522,2.6777627 2.7072838,2.6501608 2.6719389,2.6207261 2.6306948,2.6012095 2.3878839,2.479804 2.2161907,2.8231906 2.4590016,2.944596 Z"
     id="path910"
     style="fill:#000000;stroke-width:0" />
</svg>
