<svg
   xmlns="http://www.w3.org/2000/svg"
   version="1.1"
   viewBox="0 0 5.2916665 5.2916668"
   height="20"
   width="20">
  
  <g
     transform="translate(0,-291.70832)"
     >
   
    <path
       d="m 2.3543271,294.19346 c 0.012811,0.003 0.025919,0.006 0.03913,0.007 0.2500065,0.0264 0.2126197,0.38 -0.037387,0.35356 v 0 c -0.033554,-0.004 -0.066911,-0.009 -0.099415,-0.0186 -0.2417276,-0.0691 -0.1440549,-0.41092 0.097673,-0.34185 z"
       
        />
    <path
       d="m 3.5715188,294.20945 c 0.021981,5.7e-4 0.043743,0.004 0.065577,0.006 0.2500402,0.0261 0.2131062,0.37973 -0.036934,0.35362 v 0 c -0.00271,-2.9e-4 -0.047863,-0.004 -0.028643,-0.004 -0.2514002,0 -0.2514002,-0.35554 0,-0.35554 z"
       
        />
    <path
       d="m 3.1956705,294.70106 c 1.265e-4,-9.3e-4 2e-4,-0.004 3.704e-4,-0.003 0.00388,0.02 0.00341,0.0409 0.00664,0.0611 0.00265,0.0169 0.00135,0.008 0.0039,0.026 0.03567,0.24886 -0.316267,0.29931 -0.351937,0.0505 v 0 c -0.0019,-0.0134 -8.202e-4,-0.006 -0.00328,-0.0218 -0.00572,-0.0374 -0.00904,-0.0751 -0.011233,-0.11288 0,-0.2514 0.3555339,-0.2514 0.3555339,0 z"
       
        />
    <path
       d="m 2.6665039,296.5118 c 6.006e-4,0.0338 -1.514e-4,0.0675 -0.00306,0.10113 -0.00134,0.0284 -0.00761,0.0562 -0.012262,0.0841 -0.00195,0.0268 -0.00923,0.0524 -0.016642,0.078 -0.00603,0.0168 -0.00427,0.0113 -0.010313,0.0322 2.033e-4,-5.3e-4 7.487e-4,-0.002 6.111e-4,-0.002 -0.0043,0.0167 -0.00863,0.0331 -0.012861,0.0498 -0.00388,0.0161 -0.010551,0.0314 -0.016915,0.0466 -7.144e-4,0.002 0.00154,-0.003 0.00224,-0.005 -0.073956,0.24027 -0.413758,0.13568 -0.3398018,-0.10459 v 0 c 4.683e-4,-10e-4 0.023381,-0.0633 0.00952,-0.0235 -8.89e-4,0.003 0.00145,-0.005 0.00217,-0.008 -0.00151,0.01 -1.323e-4,4e-4 0.00292,-0.0126 2.226e-4,-9.5e-4 0.00475,-0.0188 0.00598,-0.0222 3.757e-4,-10e-4 -8.149e-4,0.004 -5.477e-4,0.003 0.00143,-0.006 0.00269,-0.0115 0.00403,-0.0172 0.00704,-0.0244 0.00785,-0.0259 0.016445,-0.0521 -0.00115,0.005 -0.002,0.01 -0.00346,0.0145 -0.00133,0.004 0.00245,-0.0178 0.00285,-0.0133 1.935e-4,0.002 -8.043e-4,0.009 -5.371e-4,0.007 0.00448,-0.0364 -7.25e-4,1.7e-4 0.00398,-0.0317 0.00358,-0.0203 0.00762,-0.0349 0.00846,-0.0551 0.00219,-0.0231 0.0018,-0.0463 0.00165,-0.0695 0,-0.2514 0.3555339,-0.2514 0.3555339,0 z"
       
        />
    <path
       d="m 3.8075194,296.61519 c 0,0.0243 0,0.0486 0,0.0729 0,0.0197 0,0.0394 0,0.0591 0,0.003 -1.508e-4,0.006 0,0.009 9.85e-5,0.002 -0.00143,-0.008 1.575e-4,-0.006 3.175e-4,3e-4 0.00424,0.0243 0.00508,0.028 7.938e-4,0.003 0.00148,0.008 0.00241,0.0113 3.44e-4,0.002 -0.00191,-0.003 -6.35e-4,-0.004 0.00114,-8.3e-4 0.00188,0.005 0.00138,0.003 -0.00554,-0.0136 -0.0074,-0.0163 -0.00392,-0.0108 0.1112623,0.19092 -0.2075569,0.32418 -0.3188192,0.13326 v 0 c -0.014052,-0.0245 -0.024821,-0.0501 -0.029737,-0.0772 -0.00639,-0.0287 -0.011636,-0.0578 -0.011451,-0.0872 0,-0.0197 0,-0.0394 0,-0.0591 0,-0.0243 0,-0.0486 0,-0.0729 0,-0.21291 0.3555338,-0.21291 0.3555338,0 z"
       
        />
    <path
       d="m 1.4841471,293.54828 c 0,0.0277 0,0.0553 0,0.083 0.00117,0.0306 -10e-4,0.0612 -0.00466,0.0917 -0.00457,0.0279 -0.00778,0.0558 -0.011454,0.0837 -0.00559,0.0385 -0.011949,0.0768 -0.017485,0.11529 -0.00557,0.0454 -0.00949,0.0909 -0.013849,0.13644 -0.00591,0.0548 -0.00818,0.10995 -0.00955,0.16502 -0.00273,0.0497 8.414e-4,0.0992 0.00572,0.14863 0.00472,0.0492 0.012546,0.098 0.018174,0.1471 0.00383,0.0542 0.013243,0.10793 0.023068,0.16155 0.011883,0.0539 0.022299,0.10808 0.029236,0.16267 0.00471,0.035 0.011959,0.0696 0.018022,0.10439 0.0058,0.0322 0.013623,0.064 0.021834,0.0957 0.00684,0.0335 0.017343,0.0661 0.026188,0.0993 0.011289,0.0357 0.018492,0.0724 0.03013,0.10807 0.00884,0.0289 0.018112,0.0576 0.027753,0.0863 0.00943,0.0298 0.022829,0.0587 0.035408,0.0876 0.017645,0.0423 0.039361,0.0831 0.061004,0.12401 0.018508,0.0386 0.039252,0.0764 0.060175,0.11412 0.01167,0.0223 0.030228,0.0403 0.048304,0.0589 0.026201,0.0293 0.053938,0.0574 0.081023,0.0861 0.029568,0.0277 0.06213,0.053 0.094032,0.0786 0.035823,0.0284 0.06954,0.0586 0.1061281,0.0862 0.026575,0.0203 0.055056,0.0387 0.084196,0.0563 0.035735,0.0223 0.073107,0.0427 0.1108912,0.0625 0.046852,0.0221 0.095131,0.0426 0.1452735,0.0587 0.063307,0.0212 0.127332,0.0408 0.1922552,0.0582 0.048218,0.0127 0.097392,0.0228 0.1474028,0.0288 0.03229,0.003 0.06488,0.003 0.097368,0.004 0.033914,6e-5 0.067827,-1e-4 0.1017405,-1.7e-4 0.046731,-8e-5 0.093461,-9e-5 0.1401921,-10e-5 0.074171,0.002 0.148313,0.004 0.2225149,0.006 0.068579,8.5e-4 0.1371703,8.5e-4 0.2057588,0.002 0.049053,-3.5e-4 0.097479,-0.008 0.1454052,-0.0161 0.047483,-0.008 0.093681,-0.0193 0.1397357,-0.0313 0.020947,-0.006 0.040552,-0.0145 0.057769,-0.0263 0.0099,-0.009 0.03152,-0.0199 0.035148,-0.031 0.022032,-0.0273 0.040977,-0.0564 0.060961,-0.0847 0.028664,-0.0416 0.060917,-0.0814 0.094379,-0.12031 0.02985,-0.0358 0.061459,-0.0705 0.092451,-0.10555 0.028907,-0.0323 0.051262,-0.0682 0.070093,-0.10531 0.022066,-0.0457 0.044003,-0.0915 0.060165,-0.13897 0.01696,-0.0481 0.030591,-0.097 0.042181,-0.14625 0.012618,-0.052 0.027918,-0.10339 0.040679,-0.15531 0.015055,-0.0515 0.02692,-0.10333 0.034414,-0.15602 0.00791,-0.0586 0.013052,-0.11738 0.018494,-0.17615 0.00347,-0.0551 0.011748,-0.10975 0.0181,-0.16459 0.0078,-0.057 0.00999,-0.11423 0.014272,-0.17138 0.00399,-0.0558 0.01225,-0.11117 0.019651,-0.16663 0.00729,-0.053 0.010702,-0.10624 0.012711,-0.15952 0.00127,-0.0414 0.00119,-0.0829 0.00119,-0.1244 -0.0033,-0.0353 -0.00761,-0.0706 -0.012647,-0.10584 -0.00373,-0.0325 -0.012428,-0.0643 -0.018815,-0.0965 -0.00496,-0.0303 -0.012875,-0.0601 -0.020254,-0.09 -0.00817,-0.0346 -0.011015,-0.07 -0.017042,-0.10489 -0.0069,-0.038 -0.013576,-0.0758 -0.018137,-0.11401 -9.26e-4,-0.0234 -0.00498,-0.0465 -0.00815,-0.0698 -4.498e-4,-0.004 -8.995e-4,-0.008 -0.00138,-0.0117 -0.024381,-0.21244 0.3294756,-0.24172 0.353858,-0.0293 v 0 c 2.423e-4,0.003 4.762e-4,0.004 7.144e-4,0.007 0.00331,0.0247 0.00759,0.0494 0.00872,0.0743 0.00387,0.034 0.01044,0.0676 0.016322,0.10129 0.00474,0.0287 0.00795,0.0575 0.013168,0.0861 0.00827,0.0341 0.017267,0.0682 0.023032,0.10276 0.00657,0.0366 0.017484,0.0726 0.021,0.10963 0.00644,0.0469 0.013039,0.0941 0.015121,0.14134 6.9e-6,0.0447 6.43e-5,0.0895 -0.00138,0.13421 -0.00235,0.0614 -0.00641,0.1227 -0.014782,0.18371 -0.00675,0.0506 -0.014425,0.10121 -0.018127,0.15208 -0.00468,0.0606 -0.0069,0.12136 -0.015267,0.18172 -0.0062,0.0528 -0.014108,0.10548 -0.017462,0.15851 -0.00586,0.0632 -0.011467,0.12631 -0.020048,0.18925 -0.00895,0.0611 -0.021844,0.12153 -0.039371,0.18135 -0.012705,0.051 -0.027321,0.10166 -0.04004,0.15267 -0.013817,0.0581 -0.029873,0.11575 -0.049872,0.17256 -0.021045,0.0593 -0.046934,0.11734 -0.075435,0.17442 -0.030414,0.0582 -0.065849,0.11461 -0.1114645,0.16542 -0.030138,0.034 -0.060776,0.0677 -0.089732,0.10244 -0.027113,0.0314 -0.053205,0.0635 -0.076277,0.0971 -0.023098,0.0326 -0.044875,0.066 -0.070354,0.0974 -0.00621,0.008 -0.012015,0.0154 -0.018632,0.0227 -0.028681,0.0317 -0.064277,0.0586 -0.1008549,0.0835 -0.050293,0.0308 -0.1044554,0.0562 -0.1639756,0.0719 -0.05774,0.0152 -0.1158142,0.0295 -0.1752793,0.039 -0.071062,0.0119 -0.1428625,0.0221 -0.2155364,0.022 -0.070717,-10e-5 -0.1414362,-2.5e-4 -0.2121437,-0.002 -0.071863,-8.5e-4 -0.1436852,-0.003 -0.2155037,-0.006 -0.04645,10e-6 -0.0929,2e-5 -0.1393507,10e-5 -0.035268,8e-5 -0.070536,2.5e-4 -0.1058045,1.5e-4 -0.048673,-3.8e-4 -0.09746,-0.002 -0.1457487,-0.007 -0.068781,-0.009 -0.136699,-0.0218 -0.2030586,-0.0396 -0.072625,-0.0195 -0.1443645,-0.0413 -0.2152007,-0.0651 -0.069266,-0.0236 -0.1371728,-0.0504 -0.2015424,-0.0826 -0.044627,-0.0233 -0.088694,-0.0475 -0.1310139,-0.0738 -0.039909,-0.0243 -0.078991,-0.0496 -0.1154412,-0.0776 -0.038722,-0.0298 -0.075487,-0.0613 -0.1132936,-0.0918 -0.043405,-0.0351 -0.087875,-0.0695 -0.1263995,-0.10854 -0.026251,-0.0278 -0.053152,-0.0551 -0.078518,-0.0835 -0.036497,-0.0379 -0.071133,-0.077 -0.095124,-0.1218 -0.0218,-0.0393 -0.04349,-0.0787 -0.062803,-0.11897 -0.025099,-0.0474 -0.049987,-0.0949 -0.070548,-0.14389 -0.015432,-0.0359 -0.031672,-0.0718 -0.043498,-0.10869 -0.010171,-0.0303 -0.019999,-0.0607 -0.029349,-0.0912 -0.0122,-0.0396 -0.021655,-0.0796 -0.033385,-0.11928 -0.00897,-0.0337 -0.0198,-0.0672 -0.026713,-0.10125 -0.00996,-0.0386 -0.019279,-0.0773 -0.026286,-0.11638 -0.00672,-0.0388 -0.014869,-0.0775 -0.019832,-0.1165 -0.00611,-0.0498 -0.01658,-0.099 -0.027005,-0.1482 -0.010876,-0.0593 -0.021171,-0.11884 -0.025637,-0.17886 -0.00571,-0.0504 -0.013969,-0.10058 -0.018596,-0.15107 -0.00588,-0.0599 -0.00978,-0.11998 -0.00687,-0.18015 0.00154,-0.0611 0.00415,-0.12221 0.01064,-0.18311 0.00477,-0.0497 0.00902,-0.0994 0.015349,-0.14889 0.00548,-0.0375 0.011569,-0.0749 0.017081,-0.11238 0.00366,-0.0267 0.00676,-0.0535 0.011009,-0.0802 0.00244,-0.0204 0.00413,-0.0406 0.00283,-0.0612 0,-0.0277 0,-0.0553 0,-0.083 0,-0.21344 0.3555338,-0.21344 0.3555338,0 z"
       
        />
    <path
       d="m 1.3884237,293.29857 c 0.02923,0 0.05846,0 0.087689,0 0.040504,4.5e-4 0.080888,0.004 0.1213523,0.006 0.032122,10e-4 0.064274,0.002 0.096424,0.002 0.030581,1.2e-4 0.061162,6e-5 0.091742,5e-5 0.030805,-2e-5 0.06161,-3e-5 0.092415,-3e-5 0.026919,-1e-5 0.053839,-1e-5 0.080758,-1e-5 0.050411,0.002 0.1005585,0.008 0.1505616,0.0142 0.053363,0.006 0.1059428,0.0151 0.1574766,0.0301 0.044288,0.0143 0.087852,0.0306 0.1306447,0.0488 0.035134,0.013 0.07068,0.025 0.105938,0.0378 0.032227,0.01 0.06194,0.0262 0.093048,0.0388 0.022205,0.01 0.042909,0.0219 0.065029,0.0316 0.00616,10e-4 -1.53e-5,-10e-5 0.014822,0.006 0.00222,8.9e-4 -0.00434,-0.002 -0.00659,-0.003 -0.00304,-10e-4 -0.00607,-0.002 -0.00926,-0.003 -0.03643,-0.006 -0.028149,-0.004 -0.066506,-10e-6 -0.031879,0.008 -0.061243,0.0321 -0.026048,0.003 0.025198,-0.0213 0.053707,-0.0379 0.082479,-0.0537 0.023316,-0.0154 0.048566,-0.0288 0.073966,-0.0409 0.030888,-0.0147 0.062177,-0.0284 0.093634,-0.0419 0.037671,-0.0154 0.075668,-0.0292 0.1151697,-0.039 0.039504,-0.0112 0.079802,-0.0181 0.1203254,-0.0243 0.047602,-0.006 0.094821,-0.0146 0.1424199,-0.0207 0.047218,-0.004 0.094378,-0.009 0.1416381,-0.0132 0.037939,-0.002 0.075794,-0.004 0.1136679,-0.007 0.050846,-0.003 0.1017249,-0.006 0.1524764,-0.0102 0.059842,-0.005 0.1198505,-0.009 0.1799045,-0.0104 0.041086,-0.001 0.08219,-0.001 0.1232882,-0.001 0.055756,-10e-4 0.1114142,0.001 0.1670825,0.004 0.060025,0.003 0.1191041,0.0147 0.1786567,0.0219 0.047439,0.006 0.094386,0.0145 0.1418172,0.02 0.037012,0.002 0.073634,0.007 0.1099336,0.0149 0.028347,0.005 0.055943,0.0125 0.083308,0.0211 0.2368815,0.0842 0.1178063,0.4192 -0.1190749,0.335 v 0 c 0.00337,8.6e-4 0.013502,0.003 0.010102,0.003 -0.01679,-0.003 -0.029335,-0.008 -0.046869,-0.0106 -0.026107,-0.006 -0.052496,-0.008 -0.079138,-0.01 -0.048156,-0.006 -0.095896,-0.0143 -0.1440236,-0.0203 -0.05083,-0.006 -0.1013187,-0.0156 -0.1524402,-0.0196 -0.049726,-0.002 -0.099413,-0.005 -0.1492242,-0.004 -0.037661,10e-6 -0.075328,0 -0.1129787,10e-4 -0.053581,0.002 -0.1071176,0.004 -0.1605052,0.009 -0.051394,0.004 -0.1028721,0.008 -0.1543643,0.0104 -0.037556,0.003 -0.075112,0.005 -0.11274,0.007 -0.042064,0.003 -0.084016,0.008 -0.1260652,0.0116 -0.044488,0.005 -0.088529,0.014 -0.1330325,0.0194 -0.031351,0.005 -0.062447,0.01 -0.092911,0.019 -0.020452,0.002 -0.038552,0.0155 -0.058385,0.0206 -0.027052,0.0112 -0.05365,0.0234 -0.08012,0.0358 -0.021206,0.01 -0.040611,0.023 -0.061032,0.0345 0.00578,-0.005 0.00209,-0.002 -0.010507,0.006 -0.021669,0.0133 0.021857,-0.0186 -0.00843,0.005 -0.00206,0.002 -0.00415,0.003 -0.00622,0.005 -0.031424,0.0267 -0.064555,0.051 -0.1059879,0.0629 -0.016671,0.003 -0.03316,0.007 -0.05001,0.008 -0.042124,0.002 -0.081243,-0.0118 -0.1191412,-0.0281 -0.020129,-0.009 -0.039865,-0.0192 -0.059629,-0.0292 -0.024068,-0.0106 -0.047417,-0.0226 -0.072586,-0.0307 -0.041677,-0.0151 -0.083853,-0.0289 -0.1250332,-0.0453 -0.03007,-0.013 -0.060776,-0.0243 -0.09181,-0.0348 -0.032851,-0.0104 -0.067164,-0.0138 -0.1012301,-0.0182 -0.035072,-0.005 -0.070251,-0.008 -0.1055012,-0.0113 -0.026898,0 -0.053796,-10e-6 -0.080694,0 -0.030765,0 -0.061529,1e-5 -0.092294,3e-5 -0.031388,2e-5 -0.062776,8e-5 -0.094164,-5e-5 -0.037021,-2.4e-4 -0.074044,-7.5e-4 -0.1110316,-0.002 -0.03486,-0.002 -0.069689,-0.005 -0.1045072,-0.006 -0.02923,0 -0.05846,0 -0.087689,0 -0.2514004,0 -0.2514004,-0.35554 0,-0.35554 z"
       
        />
    <path
       d="m 1.190981,293.92834 c -0.0386,2.9e-4 -0.07701,-0.005 -0.114564,-0.0132 -0.042204,-0.0103 -0.0793213,-0.0311 -0.11356096,-0.0573 -0.0343049,-0.0276 -0.0616223,-0.0618 -0.0867038,-0.0977 -0.0235381,-0.0369 -0.0469322,-0.0746 -0.0620877,-0.1159 -0.004677,-0.0127 -0.008175,-0.0259 -0.0122625,-0.0388 -0.0159611,-0.0573 -0.02605,-0.1159 -0.03653,-0.17434 -0.010742,-0.0623 -0.0144611,-0.12544 -0.0163441,-0.18852 -0.001024,-0.0511 -9.1667e-4,-0.10216 -8.3862e-4,-0.15325 6.3222e-4,-0.0367 -0.00144,-0.0736 0.00302,-0.11009 0.001491,-0.0122 0.00369,-0.0243 0.005535,-0.0365 0.009968,-0.0502 0.0287413,-0.0978 0.0457409,-0.14584 0.0150029,-0.0422 0.0335811,-0.0831 0.0550268,-0.1224 0.0127988,-0.0236 0.0288562,-0.0452 0.0433053,-0.0678 0.023464,-0.0367 0.0556371,-0.0661 0.0866643,-0.0961 0.0395963,-0.0376 0.0834453,-0.0702 0.12766978,-0.10198 0.048114,-0.0347 0.1003417,-0.0635 0.1517649,-0.093 0.041855,-0.0242 0.085293,-0.0451 0.1302986,-0.0627 0.038508,-0.016 0.077225,-0.0316 0.1159145,-0.0472 0.042698,-0.0166 0.085808,-0.0314 0.1301083,-0.0431 0.030157,-0.0105 0.061707,-0.0166 0.091881,-0.0269 0.040221,-0.01 0.079018,-0.0236 0.1188998,-0.0343 0.038949,-0.01 0.077893,-0.0198 0.1164722,-0.031 0.042847,-0.0131 0.08676,-0.0221 0.1301399,-0.0333 0.033448,-0.009 0.066746,-0.0174 0.1009989,-0.0226 0.031856,-0.008 0.064129,-0.0152 0.096594,-0.0208 0.026244,-0.006 0.052854,-0.009 0.079188,-0.0144 0.035768,-0.008 0.072703,-0.007 0.108933,-0.0106 0.032133,-0.003 0.064373,-0.005 0.096446,-0.009 0.040734,-0.005 0.081777,-0.007 0.1227774,-0.007 0.043508,-0.003 0.087047,-0.006 0.1306463,-0.007 0.044215,-10e-4 0.088453,-10e-4 0.132684,-0.002 0.029294,-4e-5 0.058588,0 0.087882,2e-5 0.021926,2e-5 0.043853,2e-5 0.065779,2e-5 0.037864,-10e-4 0.075589,0.003 0.1131234,0.007 0.04313,0.007 0.08521,0.0183 0.1279382,0.0269 0.038701,0.008 0.076346,0.0196 0.1138984,0.0317 0.031346,0.008 0.061509,0.0194 0.092349,0.0288 0.026064,0.009 0.052798,0.0157 0.07943,0.0228 0.034029,0.008 0.067179,0.0197 0.099482,0.0333 0.026196,0.01 0.0527,0.0193 0.079527,0.0274 0.022209,0.007 0.044846,0.0113 0.06729,0.017 0.00384,10e-4 0.00773,0.002 0.01152,0.003 0.010403,0.004 0.020804,0.007 0.030942,0.0115 0.022863,0.01 0.030914,0.0144 0.021802,0.009 0.020759,0.009 0.041138,0.0187 0.060621,0.03 0.021082,0.0122 0.011086,0.008 0.020037,0.0117 0.020661,0.009 0.042011,0.0204 0.062494,0.0312 0.025807,0.0132 0.048103,0.0319 0.072162,0.0478 0.024934,0.0157 0.048134,0.0337 0.070569,0.0528 0.014348,0.0117 0.031298,0.0246 0.047108,0.0373 0.026625,0.0239 0.03399,0.0291 0.061653,0.0557 0.020304,0.0198 0.038866,0.0412 0.057278,0.0627 0.014192,0.0189 0.029365,0.036 0.044949,0.0537 0.018312,0.021 0.034123,0.044 0.051077,0.0661 0.020039,0.0262 0.035178,0.0556 0.051305,0.0843 0.015277,0.0226 0.027141,0.0473 0.041608,0.0704 0.017783,0.0295 0.030559,0.0615 0.044225,0.093 0.01193,0.0244 0.020577,0.0503 0.031999,0.0749 0.013007,0.0272 0.022942,0.0556 0.031744,0.0844 0.00732,0.0197 0.00817,0.0432 0.013602,0.0602 5.82e-4,0.002 -7.938e-4,-0.004 -0.00119,-0.006 0.011049,0.0298 0.01619,0.0611 0.019116,0.0926 0.00262,0.0436 3.969e-4,0.01 7.673e-4,0.009 8.731e-4,-0.001 5.291e-4,0.003 7.937e-4,0.004 -4.762e-4,-0.003 -0.00148,-0.006 -0.0014,-0.009 5.24e-5,-0.002 0.00103,0.003 0.00151,0.005 0.00116,0.004 0.00225,0.008 0.00337,0.012 0.00866,0.0306 0.01157,0.0622 0.012806,0.0938 -1.19e-5,-0.002 -0.00103,-0.007 -3.55e-5,-0.006 0.00132,0.002 7.409e-4,0.005 0.00108,0.008 5.292e-4,0.004 0.00108,0.008 0.00156,0.0116 0.00169,0.0133 0.00298,0.0266 0.00407,0.04 0.00605,0.0387 -0.00488,-0.018 0.00282,0.0182 5.027e-4,0.002 -0.0022,-0.005 -0.00119,-0.007 8.732e-4,-0.002 0.00114,0.004 0.00172,0.006 0.00912,0.0301 0.012684,0.0612 0.014396,0.0925 9.79e-4,0.0245 8.467e-4,0.0491 8.467e-4,0.0737 4.76e-5,0.002 -1.326e-4,0.0368 2.3e-5,0.0119 0.025522,0.2501 -0.3281754,0.2862 -0.3536971,0.0361 v 0 c -0.00108,-0.0161 -0.00249,-0.0321 -0.00185,-0.0482 1.27e-5,-0.0186 1.056e-4,-0.0371 -3.969e-4,-0.0557 -1.6e-4,-0.005 5.557e-4,-0.007 -8.466e-4,-0.0115 -0.00823,-0.0287 -0.014584,-0.058 -0.016248,-0.0879 -0.00167,-0.023 -0.00612,-0.0456 -0.00756,-0.0686 -1.032e-4,-0.004 -1.14e-4,-0.008 -2.41e-5,-0.0112 -0.00781,-0.0288 -0.016198,-0.0576 -0.016822,-0.0877 -1.51e-5,-7.8e-4 -7.673e-4,-0.002 -4.55e-5,-0.002 3.175e-4,-1.2e-4 0.00378,0.011 -0.00299,-0.0103 -0.00601,-0.0204 -0.011747,-0.0407 -0.014695,-0.0618 -0.00424,-0.0147 -0.00868,-0.0281 -0.016058,-0.0422 -0.011578,-0.0264 -0.021892,-0.0533 -0.033975,-0.0795 -0.00765,-0.018 -0.014496,-0.0363 -0.024204,-0.0533 -0.014632,-0.0254 -0.0291,-0.051 -0.04474,-0.0759 -0.01353,-0.0241 -0.016928,-0.0323 -0.024777,-0.0439 -0.011657,-0.0155 -0.022918,-0.0312 -0.03499,-0.0464 -0.016325,-0.0186 -0.032924,-0.0372 -0.047781,-0.057 -0.011554,-0.0135 -0.022664,-0.0271 -0.034272,-0.0383 -0.012652,-0.0123 -0.034092,-0.0318 -0.037428,-0.0344 -0.019674,-0.0159 -0.039892,-0.0311 -0.059188,-0.0474 0.00634,0.003 -0.00762,-0.004 -0.00976,-0.008 -0.00291,-0.006 -0.011046,-0.007 -0.016584,-0.011 -0.00279,-0.002 -0.00548,-0.004 -0.00823,-0.006 -0.013414,-0.009 -0.026832,-0.0184 -0.039642,-0.0283 -0.021452,-0.0115 -0.043057,-0.0226 -0.065246,-0.0327 -0.018479,-0.0103 -0.037092,-0.0222 -0.045639,-0.0251 -0.00546,-0.002 -0.011094,-0.004 -0.016367,-0.007 -0.00325,-0.002 0.013705,0.005 0.010261,0.004 -0.00504,-0.002 -0.010054,-0.004 -0.015052,-0.006 -0.00238,-9e-4 -0.00917,-0.001 -0.00706,-0.003 7.91e-5,-5e-5 0.016039,0.005 0.00315,9e-4 0.00151,2.3e-4 0.00601,0.001 0.00452,6.9e-4 -0.020762,-0.005 -0.041224,-0.009 -0.061705,-0.0151 -0.00678,-0.002 -0.01356,-0.004 -0.020341,-0.006 -0.038705,-0.0121 -0.077167,-0.0252 -0.1147548,-0.0404 -0.0161,-0.007 -0.033402,-0.0117 -0.050509,-0.0163 -0.031551,-0.009 -0.063275,-0.0164 -0.094212,-0.027 -0.031586,-0.01 -0.062794,-0.0212 -0.094889,-0.0296 -0.025337,-0.008 -0.050609,-0.0165 -0.076729,-0.0219 -0.033491,-0.007 -0.066795,-0.0148 -0.1001501,-0.0224 -0.023019,-0.003 -0.046073,-0.006 -0.069313,-0.005 -0.022005,0 -0.04401,-1e-5 -0.066014,-3e-5 -0.028939,-2e-5 -0.057878,-6e-5 -0.086818,-2e-5 -0.040349,9e-5 -0.080705,2.1e-4 -0.1210403,0.001 -0.045168,0.002 -0.090222,0.005 -0.1353344,0.007 -0.029633,6.3e-4 -0.059321,10e-4 -0.088764,0.005 -0.035953,0.004 -0.072033,0.006 -0.1080583,0.01 -0.023627,0.002 -0.047434,0.002 -0.070912,0.005 -0.029566,0.006 -0.059381,0.01 -0.088881,0.0161 -0.035552,0.005 -0.069939,0.0167 -0.1055086,0.0222 -0.021324,0.001 -0.041133,0.0121 -0.062209,0.0149 -0.040139,0.0103 -0.080747,0.0186 -0.1204063,0.0306 -0.04177,0.0119 -0.083798,0.023 -0.1259343,0.0335 -0.033002,0.007 -0.064101,0.0223 -0.097579,0.0281 -0.036689,0.0117 -0.074115,0.0207 -0.1107868,0.0325 -0.030054,0.008 -0.059179,0.0178 -0.088169,0.0292 -0.040287,0.0162 -0.080611,0.0324 -0.1206762,0.0491 -0.028356,0.0108 -0.055313,0.0243 -0.081637,0.0395 -0.040966,0.0235 -0.082949,0.0459 -0.1213091,0.0734 -0.030227,0.0216 -0.060397,0.0435 -0.087809,0.0687 -0.019324,0.0187 -0.035103,0.0316 -0.037895,0.0376 -0.010786,0.016 -0.020875,0.0298 -0.030131,0.0464 -0.00476,0.003 -7.276e-4,1.9e-4 -0.00662,0.0127 -0.00817,0.0173 -0.016098,0.0347 -0.022404,0.0528 -0.010439,0.0294 -0.021729,0.0585 -0.030679,0.0885 -0.00354,0.006 -0.00121,0.001 -0.00234,0.016 -0.00179,0.0232 -3.307e-4,0.0465 -8.784e-4,0.0697 -7.29e-5,0.0475 -1.771e-4,0.0949 6.906e-4,0.14241 0.00127,0.0455 0.00352,0.0912 0.010933,0.13618 0.00825,0.0462 0.016019,0.0926 0.028041,0.13802 4.392e-4,0.0185 0.018022,0.036 0.025743,0.0521 0.00134,0.002 0.027456,0.0349 0.010157,0.0171 0.00258,0.002 0.010878,0.007 0.00774,0.006 -0.00414,-10e-4 -0.00723,-0.005 -0.010923,-0.007 -0.00446,-0.003 -0.00967,-0.004 -0.014455,-0.006 -0.00173,-7.1e-4 0.00712,0.002 0.00526,0.002 -0.00266,2.1e-4 -0.0052,-0.001 -0.00779,-0.002 0.00107,3e-4 0.00419,3.7e-4 0.00322,9.1e-4 -0.00132,7.3e-4 -0.00603,-4e-4 -0.00454,-1.7e-4 0.011165,0.002 0.02215,0.003 0.033292,0.003 0.2514004,0 0.2514004,0.35554 0,0.35554 z"
       
        />
    <path
       d="m 2.7490346,295.41316 c 0.00693,0.005 0.045425,0.0437 0.052326,0.0455 0.00233,5.8e-4 -0.0036,-0.003 -0.00541,-0.005 0.014846,0.0108 0.028535,0.0158 0.046295,0.0237 0.017444,0.006 0.035821,0.009 0.056941,0.0133 0.043719,0.007 0.087553,0.0136 0.1315331,0.0189 0.042283,0.006 0.084759,0.0109 0.1274787,0.0129 0.018523,-1.6e-4 0.037186,0.002 0.055714,10e-4 3.969e-4,-2e-5 -9.26e-4,-8.2e-4 -5.821e-4,-10e-4 0.00127,-8.5e-4 0.00287,-0.001 0.00433,-0.001 0.00342,-10e-4 0.00688,-0.002 0.010319,-0.003 3.704e-4,-5e-4 5.556e-4,-10e-4 0.00114,-0.002 0.014539,-0.007 0.029422,-0.0111 0.041736,-0.0219 0.01511,-0.01 0.029212,-0.0221 0.042713,-0.0329 0.0052,-0.006 -0.00876,0.01 -0.00594,0.005 0.00238,-0.004 0.00617,-0.007 0.00918,-0.0101 0.00103,-0.001 -0.0023,0.002 -0.00327,0.003 -0.00807,0.0102 -0.011755,0.0169 -0.00674,0.008 0.043527,-0.0657 -0.011136,0.0184 0.022061,-0.0335 0.1409149,-0.20819 0.435347,-0.009 0.294432,0.19929 v 0 c 0.016727,-0.0293 -0.030692,0.0499 -0.00973,0.014 -0.018365,0.0311 -0.041028,0.0592 -0.068247,0.083 -0.023442,0.0196 -0.047208,0.0389 -0.072574,0.056 -0.049379,0.033 -0.1020273,0.0597 -0.1594223,0.0759 -0.025535,0.006 -0.039558,0.0101 -0.066144,0.0131 -0.035446,0.004 -0.070907,0.002 -0.1064302,9e-4 -0.051226,-0.003 -0.1022731,-0.007 -0.152994,-0.0151 -0.052752,-0.006 -0.1053817,-0.014 -0.1577491,-0.0231 -0.045152,-0.009 -0.090686,-0.0185 -0.1329034,-0.0375 -0.031658,-0.0143 -0.063693,-0.0286 -0.092298,-0.0485 -0.029413,-0.0202 -0.058213,-0.0424 -0.083376,-0.0673 -0.1931312,-0.16094 0.034476,-0.43407 0.2276072,-0.27313 z"
       
        />
  </g>
</svg>
