
<svg

   xmlns="http://www.w3.org/2000/svg"
   id="svg8"
   version="1.1"
   viewBox="0 0 5.2916665 5.2916668"
   height="20"
   width="20">
  
  <g
     transform="translate(0,-291.70832)"
     id="layer1">
    <path
       d="m 0.80974189,293.08007 c -0.01891,0.0941 -0.024688,0.18964 -0.029846,0.28509 -0.00935,0.24626 -0.012933,0.49267 -0.01544,0.73907 -0.00882,0.39006 0.015837,0.77973 0.039929,1.1689 0.018954,0.30297 0.048832,0.60515 0.070853,0.90792 0.00258,0.0319 0.00725,0.10506 0.014008,0.14167 0.00135,0.007 0.00443,0.028 0.0072,0.021 0.00334,-0.008 -8.307e-4,-0.0183 -0.00516,-0.0261 -0.057118,-0.10337 -0.022058,-0.014 -0.037107,-0.0537 0.36790651,0.0169 0.73601081,0.0291 1.10414471,0.0405 0.6693036,0.0186 1.3388941,0.0243 2.0084331,0.0286 0.179042,-2.2e-4 0.3581096,0.003 0.5371508,9.6e-4 0.055709,-7.8e-4 0.1117588,-4.1e-4 0.166451,-0.0115 -0.06351,0.006 -0.093506,0.0501 -0.1181803,0.10065 -0.00453,0.009 -0.00369,0.0202 -0.00661,0.03 -2.089e-4,6.9e-4 -0.00178,-4.5e-4 -0.00197,-10e-4 -0.00253,-0.0102 -0.004,-0.0196 -0.006,-0.0294 -0.031828,-0.15674 -0.048161,-0.31568 -0.060696,-0.47474 -0.014444,-0.2746 -0.024285,-0.54994 -0.016043,-0.8249 0.00243,-0.0816 0.00727,-0.16312 0.010895,-0.24468 0.018488,-0.33433 0.053786,-0.66746 0.083435,-1.00096 0.021399,-0.24071 0.020294,-0.23408 0.038469,-0.46616 0.017148,-0.23034 0.033431,-0.46296 0.00319,-0.693 -0.00281,-0.0213 -0.00706,-0.0425 -0.010588,-0.0637 0.039458,0.0812 -0.021224,-0.0699 -0.014362,-0.0529 0.00405,0.0102 0.00332,0.0233 0.012011,0.0301 0.099038,0.0773 0.1736216,0.14317 0.2961888,0.0422 -0.05329,0.0366 -0.061503,0.051 -0.1189115,0.0652 -0.07477,0.0187 -0.157834,0.009 -0.2341881,0.007 -0.3006461,-0.0102 -0.6014033,-5.4e-4 -0.9019387,0.008 -0.3375627,0.0102 -0.6745757,0.0317 -1.0117831,0.0489 -0.2424708,0.0123 -0.2391825,0.0117 -0.4765558,0.0215 -0.2922383,0.008 -0.5847198,0.023 -0.8771774,0.0169 -0.060495,-6.8e-4 -0.1207373,-0.006 -0.1801741,-0.0168 -0.028458,-0.006 -0.056377,-0.0127 -0.084637,-0.0187 -0.045521,-0.007 -0.091341,-0.002 -0.1369251,4.6e-4 -0.046981,0.003 -0.093343,0.0118 -0.139771,0.0194 -0.0235799,0.005 -0.0314486,0.009 -0.0584005,0.016 -0.0247594,0.006 -0.0153737,0.003 -0.0402994,0.008 -0.004152,6.7e-4 0.008422,-9e-4 0.0124396,-0.002 0.0117008,-0.003 0.0237935,-0.007 0.0345829,-0.012 0.042431,-0.022 0.0420948,-0.0281 0.071615,-0.0623 0.013305,-0.0173 0.016277,-0.0357 0.022391,-0.0553 6.058e-4,-0.002 8.39e-5,0.005 6.69e-5,0.006 -2.12e-5,0.002 -2.91e-5,0.006 -4.37e-5,0.008 3.37e-5,0.0264 1.954e-4,0.0528 2.722e-4,0.079 8.88e-5,0.0332 9.92e-5,0.0663 1.09e-4,0.0995 8e-7,0.005 1.6e-6,0.0102 2.4e-6,0.0146 4.59e-5,0.27206 -0.40108014,0.27212 -0.40112595,6e-5 v 0 c -8.5e-7,-0.005 -1.66e-6,-0.0102 -2.47e-6,-0.0146 -9.62e-6,-0.0328 -1.971e-5,-0.0658 -1.0744e-4,-0.0986 -8.106e-5,-0.0279 -2.7582e-4,-0.0558 -2.5664e-4,-0.0837 6.1835e-4,-0.0529 0.005683,-0.10496 0.0341221,-0.15193 0.0123466,-0.0154 0.0225519,-0.0325 0.0370393,-0.0461 0.0365084,-0.0341 0.0781573,-0.0505 0.12649604,-0.0607 0.001364,-3e-4 -0.005055,10e-4 -0.003959,10e-4 0.006975,-8e-4 0.0212052,-0.007 0.0258801,-0.008 0.0236695,-0.007 0.0475366,-0.0122 0.0718679,-0.0164 0.0591056,-0.0102 0.11823156,-0.0192 0.17806476,-0.0238 0.084765,-0.006 0.1703078,-0.009 0.25411421,0.008 0.06132,0.0134 0.1217466,0.0294 0.185617,0.0261 0.2836532,0.007 0.5673749,-0.009 0.8508371,-0.0166 0.2346474,-0.0102 0.2315962,-0.009 0.4716935,-0.0214 0.3405341,-0.0174 0.6808732,-0.0392 1.0217678,-0.0494 0.3089023,-0.009 0.6180326,-0.0192 0.9270452,-0.008 0.021723,6.7e-4 0.043446,10e-4 0.065168,0.002 0.014044,4.4e-4 0.028098,7.1e-4 0.04213,0.001 0.00388,1.9e-4 0.013205,-0.002 0.011591,10e-4 -0.00212,0.005 -0.00986,0.003 -0.014584,0.005 -0.027713,0.0115 -0.028975,0.018 -0.059603,0.0426 0.049596,-0.0483 0.082789,-0.0876 0.1850509,-0.0752 0.060216,0.007 0.1089424,0.0535 0.1555214,0.0908 0.017139,0.0137 0.021326,0.0377 0.029706,0.0576 0.012245,0.029 0.02158,0.0799 0.02782,0.10846 0.013398,0.0848 0.01747,0.10054 0.024309,0.19187 0.016283,0.21742 0.00379,0.43556 -0.013307,0.65256 -0.018391,0.2347 -0.017273,0.22796 -0.038871,0.47091 -0.029147,0.32783 -0.063865,0.65531 -0.082277,0.98395 -0.00352,0.0777 -0.00817,0.15537 -0.010564,0.23312 -0.0081,0.26371 0.00146,0.52779 0.014956,0.79116 0.011143,0.14426 0.025827,0.28843 0.054555,0.4306 0.010529,0.0529 0.02613,0.1131 0.00988,0.16664 -0.025749,0.0848 -0.053999,0.11747 -0.1323154,0.16215 -0.02104,0.012 -0.046277,0.0154 -0.069415,0.023 -0.019704,0.003 -0.03928,0.007 -0.059105,0.009 -0.058198,0.007 -0.1156704,0.008 -0.1742709,0.008 -0.1807135,0.002 -0.3614521,-10e-4 -0.5421661,-9.5e-4 -0.6729624,-0.005 -1.3459763,-0.0102 -2.0187012,-0.0289 -0.2699826,-0.008 -0.5398826,-0.017 -0.8097494,-0.0283 -0.051613,-0.002 -0.1032237,-0.005 -0.15483871,-0.007 -0.037891,-0.001 -0.07585,-0.002 -0.1136828,-0.005 -0.032916,-0.002 -0.065639,-0.007 -0.09846,-0.0102 -0.10858117,-0.0322 -0.1366891,-0.0249 -0.21570037,-0.1155 -0.0695843,-0.0798 -0.0684654,-0.21896 -0.0778732,-0.31653 -0.0220984,-0.30409 -0.0521982,-0.60759 -0.0711201,-0.9119 -0.0246225,-0.398 -0.0495551,-0.79653 -0.0406139,-1.19545 0.002571,-0.2519 0.006218,-0.50381 0.0159774,-0.75556 0.006508,-0.11668 0.0144432,-0.23355 0.0388413,-0.3483 0.0615299,-0.26558 0.45310387,-0.18212 0.39157407,0.0834 z"
       />
    <path
       d="m 0.72063009,293.17635 c 0.065364,0 0.1307283,0 0.1960925,0 0.11893561,0 0.23787121,0 0.35680681,0 0.1092577,-0.001 0.2184222,3.3e-4 0.3275988,0.005 0.095092,0.007 0.1903221,0.0102 0.2856424,0.0118 0.1346207,0.002 0.2692585,0.002 0.4038901,0.002 0.1078483,5.9e-4 0.2156836,-0.002 0.3233338,-0.009 0.083592,-0.007 0.16725,-0.0127 0.2510961,-0.0159 0.12333,-0.001 0.2466305,-0.005 0.3699484,-0.007 0.1562059,-0.002 0.3124348,-0.003 0.4686638,-0.005 0.084208,-0.001 0.1683423,0.002 0.2524229,0.007 0.045977,10e-4 0.09173,0.006 0.1376577,0.008 0.063126,0.002 0.1263207,0.003 0.1894929,0.003 0.038767,1.7e-4 0.077536,1.6e-4 0.1163031,1.3e-4 0.016064,-5.9e-4 0.032221,6.9e-4 0.048279,-3e-5 0.00241,-1.2e-4 -0.00486,3.2e-4 -0.00719,-2.1e-4 -0.00119,-2.8e-4 0.00243,-4.2e-4 0.00364,-6.2e-4 0.012086,-5e-4 0.024415,-0.005 0.036545,-0.005 0.00438,1.9e-4 -0.00879,5.4e-4 -0.013036,10e-4 -0.03524,0.009 -0.029797,0.008 -0.059665,0.024 -0.032974,0.0229 -0.056678,0.0542 -0.065095,0.0925 -8.5e-6,-8.5e-4 1.56e-5,-0.003 -2.53e-5,-0.002 -0.00163,0.0337 1.395e-4,-0.009 0.00169,0.0331 7.63e-5,0.002 -0.00119,-0.005 -0.00172,-0.006 -0.004,-0.0147 -0.00365,-0.0139 -0.00742,-0.0298 -0.008,-0.0338 -0.010139,-0.0686 -0.011072,-0.10325 -4.685e-4,-0.0258 -3.436e-4,-0.0515 -3.123e-4,-0.0773 -3.748e-4,-0.013 5.62e-4,-0.0262 5.59e-5,-0.0392 -6.47e-5,-0.001 1.864e-4,0.003 -3.436e-4,0.005 -2.463e-4,7.7e-4 -4.059e-4,-0.001 -5.309e-4,-0.002 -5.934e-4,-0.003 -0.00106,-0.008 -0.00159,-0.0114 -0.00325,-0.026 -0.00169,-0.0195 -0.00663,-0.0402 -4.372e-4,-0.002 6.558e-4,0.003 9.681e-4,0.006 -0.00661,-0.0196 -0.013598,-0.0534 -0.01525,-0.0597 -0.00979,-0.0344 0.00112,-4.8e-4 0.00116,0.002 4.42e-5,0.002 -0.00234,-0.005 -0.00341,-0.008 -0.00231,-0.006 -0.00582,-0.0102 -0.00676,-0.0162 -8.744e-4,-0.006 0.00438,0.0102 0.00657,0.0149 -0.010989,-0.0181 0.00116,0.002 0.00116,0.002 -0.00369,-10e-4 -0.00484,-0.006 -0.00678,-0.009 -0.00178,-0.003 0.00394,0.006 0.00633,0.008 0.017476,0.019 0.016527,0.0165 0.038936,0.0323 0.023707,0.0114 0.017439,0.0102 0.041585,0.0167 0.00319,9.1e-4 0.01152,-3.8e-4 0.0097,0.002 -7.495e-4,0.001 -0.028507,-6.3e-4 -0.037908,9.1e-4 -0.057091,0.009 -0.1139555,0.0195 -0.1713844,0.0267 -0.052084,0.007 -0.1043651,0.0127 -0.156567,0.0189 -0.088062,0.0102 -0.1764995,0.0155 -0.2650211,0.0197 -0.090622,0.005 -0.1813503,0.005 -0.2720517,0.005 -0.088984,0.003 -0.1779726,0.006 -0.26699,0.007 -0.074479,10e-4 -0.1489688,10e-4 -0.2234567,10e-4 -0.07598,4e-5 -0.151959,0 -0.2279388,-3e-5 -0.079128,-10e-6 -0.1582556,-2e-5 -0.2373836,-2e-5 -0.075528,0.002 -0.1509948,0.006 -0.2265264,0.007 -0.085158,7.1e-4 -0.1702341,0.002 -0.2552639,0.007 -0.077859,0.005 -0.1553928,0.013 -0.2330411,0.02 -0.088519,0.007 -0.1771711,0.0115 -0.2658499,0.0156 -0.07483,0.003 -0.1495825,0.008 -0.2244742,0.0102 -0.065098,0.002 -0.1302316,0.002 -0.1953579,0.002 -0.040877,8e-5 -0.081753,3e-5 -0.1226291,-10e-6 -0.033098,-2e-5 -0.066197,-3e-5 -0.099296,-3e-5 -0.02667,-10e-6 -0.05334,-10e-6 -0.080011,-10e-6 -0.027892,0 -0.055784,0 -0.083676,0 -0.14262142,0 -0.029655,0.003 0.026294,-0.38169 8.651e-4,-0.006 0.012396,0.002 0.018589,0.002 0.050223,0.007 0.00648,10e-4 0.065444,0.009 0.093624,0.0102 0.18703891,0.0228 0.27937191,0.0409 0.055749,0.0118 0.110759,0.0264 0.1659847,0.0402 0.0369,0.008 0.074128,0.0117 0.1109291,0.0198 0.030617,0.006 0.058435,0.0199 0.087898,0.0289 -0.00124,-5.5e-4 -0.00506,-0.002 -0.00372,-10e-4 0.00685,8.7e-4 0.013382,0.003 0.02018,0.005 0.00839,0.001 0.01711,0.002 0.025597,0.002 0.036939,10e-4 0.073649,0.006 0.1104947,0.008 0.051693,0.002 0.1035058,0.002 0.1552634,0.003 0.097762,2.1e-4 0.1955257,1.5e-4 0.2932886,1.2e-4 0.098891,-2e-5 0.1977817,-4e-5 0.2966727,-4e-5 0.068692,-10e-6 0.1373824,-10e-6 0.2060736,-10e-6 0.062,1.8e-4 0.1239393,7.2e-4 0.1858678,-0.002 0.071173,-0.005 0.1417945,-0.0153 0.2127076,-0.0227 0.094212,-0.0102 0.1889691,-0.0146 0.2835807,-0.02 0.1059975,-0.006 0.2117923,-0.0143 0.3177544,-0.0205 0.081174,-0.003 0.1623327,-0.006 0.2434492,-0.0102 0.040311,-0.005 0.080536,-0.009 0.1211009,-0.012 0.05137,-0.002 0.102813,-0.002 0.1542251,-0.002 0.049323,-0.001 0.09848,10e-4 0.147631,0.005 0.036846,0.002 0.073413,0.009 0.1097546,0.0151 0.010623,0.006 0.025683,10e-4 0.036299,0.007 0.037249,0.0184 0.1124115,0.0184 0.1098714,0.0585 -0.020793,0.32825 -0.024113,0.31852 -0.1680889,0.32577 -0.09696,0.001 -0.1939569,0.002 -0.2909123,9e-5 -0.1542772,-0.005 -0.3075812,-0.0226 -0.4609972,-0.0376 -0.1939312,-0.0165 -0.3883951,-0.0258 -0.5828394,-0.0345 -0.2153033,-0.009 -0.4308064,-0.0132 -0.6463097,-0.0154 -0.1698527,-0.001 -0.3397119,-0.001 -0.5095685,-0.001 -0.1133181,-7.2e-4 -0.2266652,6.6e-4 -0.3398394,0.007 -0.076511,0.005 -0.1519629,0.0175 -0.2274253,0.0297 -0.051883,0.007 -0.1029522,0.0166 -0.1533096,0.03 -0.04344,0.0154 -0.087785,0.0282 -0.131733,0.0422 -0.024909,0.007 -0.049385,0.016 -0.073676,0.025 -0.023887,0.008 -0.048091,0.0156 -0.072133,0.0236 -0.26848449,0.0878 -0.39784531,-0.27645 -0.1293608,-0.36419 v 0 c 0.020312,-0.007 0.040702,-0.013 0.06097,-0.0197 0.029211,-0.0102 0.058258,-0.0213 0.088115,-0.0299 0.050767,-0.0161 0.1016904,-0.0316 0.15228101,-0.0482 0.063396,-0.0164 0.1274865,-0.0302 0.1926893,-0.0383 0.090509,-0.0145 0.1810946,-0.0298 0.2728929,-0.0344 0.1200389,-0.006 0.2402334,-0.008 0.3604228,-0.007 0.1712147,-5e-5 0.3424318,-9e-5 0.5136423,0.001 0.2204163,0.002 0.4408318,0.006 0.6610437,0.0157 0.2017171,0.009 0.4034556,0.0188 0.6046236,0.0361 0.142566,0.0139 0.2850107,0.031 0.4283428,0.0357 0.089325,0.002 0.1786847,10e-4 0.2680188,1e-4 0.1252766,0.007 -0.1025627,-0.007 -0.1090546,0.32231 -7.807e-4,0.0389 0.071737,0.0367 0.1071259,0.0558 0.00184,9.9e-4 -0.00412,-8.1e-4 -0.0062,-0.001 -0.028814,-0.005 -0.00912,-10e-4 -0.030436,-0.006 -0.021339,-0.006 -0.044082,-0.007 -0.065878,-0.009 -0.038398,-0.003 -0.076688,-0.005 -0.1152478,-0.003 -0.043869,8e-5 -0.08776,-2e-5 -0.1316033,10e-4 -0.040805,0.002 -0.081011,0.009 -0.1217783,0.012 -0.080516,0.005 -0.1610685,0.007 -0.2416513,0.009 -0.1061238,0.006 -0.2120737,0.0148 -0.3182344,0.0205 -0.087997,0.005 -0.1761439,0.009 -0.2637771,0.0185 -0.078796,0.008 -0.1572419,0.0199 -0.2364159,0.0246 -0.068623,0.003 -0.1372468,0.003 -0.2059435,0.002 -0.06868,0 -0.13736,0 -0.20604,2e-5 -0.098869,0 -0.1977395,2e-5 -0.2966091,4e-5 -0.098399,2e-5 -0.1967975,1e-4 -0.2951959,-1.2e-4 -0.060896,-2.6e-4 -0.1218603,-2.2e-4 -0.1826631,-0.003 -0.039113,-0.002 -0.078093,-0.007 -0.117297,-0.009 -0.048377,-0.005 -0.096439,-0.0118 -0.1426379,-0.0267 -0.019659,-0.007 -0.032758,-0.0135 -0.050835,-0.0179 0.010186,-5.5e-4 -0.020125,-0.003 -0.030217,-0.005 -0.01944,-0.002 -0.034595,-0.006 -0.05377,-0.009 -0.00953,-0.002 -0.01898,-0.005 -0.02847,-0.007 -0.049001,-0.0122 -0.09784,-0.0251 -0.1472274,-0.0359 -0.083779,-0.0176 -0.16930561,-0.0263 -0.25427451,-0.0367 -0.064576,-0.009 -0.017716,-0.002 -0.067427,-0.009 -0.00567,-8.3e-4 -0.017082,0.003 -0.017024,-0.002 0.0041,-0.38694 -0.1117294,-0.38383 0.031319,-0.38383 0.027892,0 0.055783,0 0.083675,0 0.026691,0 0.053381,0 0.080072,0 0.033187,2e-5 0.066374,2e-5 0.099561,5e-5 0.040336,2e-5 0.080672,9e-5 0.1210078,0 0.060902,-1.8e-4 0.1218128,-5.3e-4 0.1826905,-0.002 0.073104,-0.002 0.1460633,-0.007 0.2191092,-0.0102 0.082698,-0.003 0.1653642,-0.009 0.2479252,-0.0145 0.082348,-0.007 0.1645702,-0.0164 0.2471547,-0.0211 0.089327,-0.005 0.1786924,-0.007 0.2681539,-0.007 0.078952,-0.002 0.1578285,-0.006 0.2367895,-0.008 0.079161,0 0.1583221,0 0.2374832,2e-5 0.075728,2e-5 0.1514543,6e-5 0.2271815,10e-6 0.071954,-10e-5 0.1439111,-3.4e-4 0.2158559,-10e-4 0.091174,-0.002 0.182308,-0.005 0.273456,-0.008 0.08472,-3.5e-4 0.1694684,-8.1e-4 0.2541188,-0.005 0.078611,-0.003 0.157142,-0.009 0.235357,-0.0172 0.051743,-0.006 0.1035683,-0.0117 0.1551869,-0.0187 0.06452,-0.008 0.1279147,-0.0221 0.1925917,-0.0288 0.073585,-0.003 0.1483644,-0.005 0.2152575,0.0298 0.012083,0.008 0.024863,0.0147 0.036247,0.0234 0.031396,0.024 0.054983,0.0562 0.074976,0.0891 0.016689,0.0323 0.0339,0.0649 0.041376,0.10043 0.00438,0.0166 0.00698,0.0329 0.012298,0.0491 0.00784,0.0292 0.014827,0.0588 0.017383,0.0889 0.00456,0.0329 0.00719,0.066 0.00588,0.0992 -3.74e-5,0.0224 -1.467e-4,0.0449 1.992e-4,0.0674 2.162e-4,0.0102 1e-6,0.0195 0.00163,0.029 0.0089,0.0409 0.022026,0.0816 0.015362,0.12403 -0.00922,0.0773 -0.034674,0.13369 -0.09972,0.1843 -0.01307,0.008 -0.025372,0.0166 -0.039205,0.0229 -0.033794,0.0153 -0.069079,0.0213 -0.1055655,0.0252 -0.032594,0.005 -0.06523,0.005 -0.098056,0.005 -0.039649,4e-5 -0.079299,5e-5 -0.1189485,-1.3e-4 -0.069174,-3.9e-4 -0.1383745,-8.3e-4 -0.2074934,-0.003 -0.045458,-0.002 -0.09073,-0.007 -0.1362254,-0.008 -0.077248,-0.003 -0.154542,-0.008 -0.2319099,-0.006 -0.1541077,6.1e-4 -0.3082149,0.002 -0.4623001,0.005 -0.1209113,0.002 -0.2418052,0.005 -0.3627316,0.007 -0.081125,0.003 -0.1620207,0.009 -0.242914,0.0154 -0.1155465,0.007 -0.2312866,0.0102 -0.3470436,0.009 -0.1371614,-9e-5 -0.2743295,-1.2e-4 -0.4114794,-0.002 -0.097603,-0.002 -0.1951517,-0.005 -0.2925129,-0.012 -0.1042636,-0.003 -0.2085083,-0.005 -0.3128514,-0.003 -0.1189357,0 -0.2378712,0 -0.35680681,0 -0.065364,0 -0.1307283,0 -0.1960925,0 -0.28363889,0 -0.28363889,-0.38475 0,-0.38475 z"
        />
    <path
       d="m 1.3111607,292.10778 c 0,0.0658 0,0.13165 0,0.19748 0.00116,0.0681 -0.0025,0.13622 0.00225,0.20418 4.435e-4,0.006 8.869e-4,0.0102 0.00133,0.0156 0.022636,0.2712 -0.37721061,0.3019 -0.39984651,0.0307 v 0 c -6.028e-4,-0.007 -0.0012,-0.0146 -0.00181,-0.022 -0.00485,-0.0761 -0.00267,-0.15233 -0.00306,-0.22854 0,-0.0659 0,-0.13166 0,-0.19748 0,-0.27206 0.40112601,-0.27206 0.40112601,0 z"
       />
    <path
       d="m 4.4622582,292.0647 c -0.0072,0.0677 -0.017242,0.13495 -0.026751,0.20232 -0.00628,0.0457 -0.010458,0.0917 -0.014207,0.13767 -0.022226,0.27122 -0.4221192,0.24107 -0.3998925,-0.0301 v 0 c 0.00438,-0.0531 0.00928,-0.10631 0.016602,-0.15916 0.00873,-0.0618 0.017954,-0.12351 0.024768,-0.18551 0.025681,-0.27094 0.4251578,-0.23611 0.3994786,0.0349 z"
       />
    <path
       d="m 1.3579423,294.63106 c 0.040112,-0.0359 0.083377,-0.0684 0.1268682,-0.10031 0.02193,-0.0153 0.040955,-0.0328 0.056019,-0.0481 0.018631,-0.0194 0.040446,-0.0357 0.059436,-0.0547 0.023996,-0.0195 0.046573,-0.0404 0.068091,-0.0626 0.024996,-0.0272 0.058788,-0.0462 0.084309,-0.0727 0.018922,-0.0185 0.037072,-0.0376 0.054538,-0.0573 0.020807,-0.0234 0.041608,-0.0468 0.062286,-0.0703 0.01597,-0.0221 0.034571,-0.0425 0.053387,-0.0624 -0.00266,0.002 -0.00993,0.0113 -0.00797,0.008 0.0032,-0.006 0.019555,-0.0233 0.023648,-0.028 0.00349,-0.005 -0.010493,0.0173 -0.010269,0.0121 2.457e-4,-0.006 0.00689,-0.009 0.01034,-0.0139 0.00446,-0.003 -0.00238,0.002 -0.00189,0.002 0.018915,-0.0285 0.040715,-0.0575 0.071064,-0.0761 0.020033,-0.0122 0.042613,-0.0202 0.063921,-0.0302 0.036434,-10e-4 0.07397,-0.0117 0.1093025,-0.003 0.083535,0.0203 0.1346737,0.0788 0.1567406,0.15347 0.00472,0.016 0.00578,0.0309 0.00757,0.0471 0.00179,0.0234 0.00156,0.047 0.00148,0.0705 -8.91e-5,0.0179 -1.373e-4,0.0358 -1.64e-4,0.0536 -2.12e-5,0.0178 -2.1e-5,0.0357 -2.16e-5,0.0534 0.00151,0.0276 -0.00374,0.0549 -0.00783,0.0821 -0.0031,0.0169 -0.00897,0.0341 -0.00996,0.048 -6.21e-5,0.0274 -0.00318,0.0545 -0.00714,0.0815 -0.00251,0.0234 -0.00402,0.0469 -0.0072,0.0702 -0.00313,0.0197 -0.00406,0.0396 -0.00477,0.0596 -5.934e-4,0.0253 -4.903e-4,0.0506 -4.873e-4,0.0759 2.01e-5,0.029 4.64e-5,0.058 6.11e-5,0.0868 1.32e-5,0.0286 1.28e-5,0.0572 1.35e-5,0.0858 -0.00146,0.0367 0.00269,0.0732 0.00519,0.10982 0.00255,0.0389 0.00354,0.0781 0.004,0.11713 2.671e-4,0.0329 2.084e-4,0.0659 1.861e-4,0.0987 -2.38e-5,0.0249 -3.81e-5,0.0499 -4.5e-5,0.0748 -5e-6,0.0215 -5.5e-6,0.0431 -5.6e-6,0.0646 1e-7,0.0181 3e-7,0.0363 4e-7,0.0545 10e-8,0.0212 10e-8,0.0423 10e-8,0.0634 0,0.0204 0,0.0408 0,0.0611 0,0.0181 0,0.0362 0,0.0543 0,0.0179 0,0.0358 0,0.0537 0,0.0179 0,0.0358 0,0.0537 0.00283,0.0324 -0.0051,-0.0317 2.502e-4,-0.007 0.056185,0.26667 -0.3369931,0.34287 -0.3931776,0.0762 v 0 c -0.00484,-0.023 -0.00908,-0.0463 -0.0082,-0.0699 0,-0.0179 0,-0.0358 0,-0.0537 0,-0.0179 0,-0.0358 0,-0.0537 0,-0.0181 0,-0.0362 0,-0.0543 0,-0.0204 0,-0.0408 0,-0.0611 0,-0.0212 0,-0.0423 -1e-7,-0.0634 -1e-7,-0.0181 -2e-7,-0.0363 -3e-7,-0.0545 10e-8,-0.0215 6e-7,-0.0431 5.5e-6,-0.0648 7e-6,-0.025 2.13e-5,-0.05 4.51e-5,-0.0751 2.14e-5,-0.0314 7.8e-5,-0.0628 -1.616e-4,-0.0942 -3.622e-4,-0.0322 -0.00111,-0.0643 -0.00318,-0.0964 -0.00302,-0.0449 -0.00754,-0.0898 -0.00604,-0.13483 -7e-7,-0.0285 -3e-7,-0.0571 -1.35e-5,-0.0856 -1.47e-5,-0.029 -4.11e-5,-0.0581 -6.11e-5,-0.0871 -1.3e-6,-0.0299 -1.19e-4,-0.0598 7.433e-4,-0.0897 0.00124,-0.0323 0.00318,-0.0647 0.00804,-0.0967 0.00349,-0.0241 0.00345,-0.0487 0.00759,-0.0729 7.246e-4,-0.005 5.872e-4,-0.0102 0.00224,-0.0147 1.885e-4,-5.3e-4 3.748e-4,0.002 4.03e-4,0.001 9.306e-4,-0.0174 3.966e-4,-0.0349 0.00247,-0.0522 0.00207,-0.019 0.00467,-0.0378 0.00879,-0.0566 9.463e-4,-0.005 0.00212,-0.009 0.00322,-0.0129 5.121e-4,-0.002 0.00115,-0.008 0.00163,-0.006 6.183e-4,0.002 -7.745e-4,0.006 -0.00116,0.008 7.059e-4,-0.005 0.00554,-0.042 0.00341,-0.007 -3.653e-4,0.006 3.655e-4,-0.0239 -2e-7,-0.0179 7e-7,-0.018 6e-7,-0.036 2.21e-5,-0.054 2.72e-5,-0.0181 7.56e-5,-0.0362 1.661e-4,-0.0545 4.56e-5,-0.012 9.6e-6,-0.024 1.57e-5,-0.036 0.013336,0.0701 0.071988,0.12505 0.1457297,0.1413 0.032804,0.007 0.067228,-0.003 0.1008417,-0.005 0.017909,-0.009 0.036867,-0.0164 0.053727,-0.0272 0.0098,-0.007 0.017501,-0.0152 0.025528,-0.0233 0.00329,-0.003 0.028581,-0.041 0.00207,-7.7e-4 -0.00342,0.006 -0.00713,0.0102 -0.010694,0.0153 -0.020394,0.0265 -0.023405,0.0309 -0.05095,0.062 0.00166,-0.002 0.00676,-0.008 0.005,-0.006 -0.015354,0.017 -0.025334,0.0311 -0.040821,0.0497 -0.02102,0.0239 -0.042258,0.0476 -0.063301,0.0714 -0.026099,0.0294 -0.053267,0.058 -0.08182,0.0851 -0.023509,0.0213 -0.04815,0.0414 -0.072637,0.0615 -0.025885,0.0257 -0.052226,0.0511 -0.080085,0.0748 -9.243e-4,8e-4 0.00153,-0.002 0.0023,-0.002 -0.016815,0.0155 -0.038837,0.0352 -0.048655,0.0442 -0.03207,0.0323 -0.066293,0.062 -0.103409,0.089 -0.029549,0.0216 -0.05853,0.0439 -0.086947,0.0669 -0.200563,0.19237 -0.4842019,-0.0797 -0.2836389,-0.27207 z"
      />
    <path
       d="m 3.4711129,294.3687 c -0.024565,-10e-4 -0.048571,5.3e-4 -0.072882,0.003 -0.00303,4.8e-4 -0.018389,0.005 -0.022751,0.006 -3.435e-4,1.2e-4 7.184e-4,2.2e-4 0.00109,1.3e-4 0.0019,-4.4e-4 0.00375,-0.001 0.00563,-0.001 0.00184,-7.6e-4 0.00713,-0.003 0.00557,-0.002 -0.00303,0.002 -0.00676,0.003 -0.010033,0.006 -0.00209,10e-4 0.00855,-0.005 0.00649,-0.003 -0.00683,0.005 -0.013994,0.009 -0.020865,0.0136 -0.00131,8.8e-4 0.00271,-0.001 0.0042,-0.002 3.748e-4,-1.4e-4 -4.372e-4,6.4e-4 -6.558e-4,9.6e-4 0.017277,-0.0165 -0.00973,0.0155 -0.012296,0.0191 -0.013922,0.0205 -0.029343,0.0399 -0.043662,0.0599 -0.00216,0.002 0.00469,-0.006 0.00702,-0.009 -0.017148,0.0272 -0.033,0.0551 -0.049306,0.0829 -0.011119,0.0179 -0.020075,0.0366 -0.028554,0.0557 -0.0048,0.0165 -0.014125,0.037 -0.021133,0.0545 -8.121e-4,0.002 0.0019,-0.003 0.00287,-0.006 -0.011497,0.0314 -0.021865,0.0632 -0.033393,0.0945 -0.00894,0.0294 -0.020418,0.0585 -0.025981,0.089 -0.00674,0.0334 -0.01504,0.0663 -0.020886,0.1 -0.00367,0.0273 -0.010989,0.0539 -0.016871,0.0806 -0.00256,0.0223 -0.00493,0.0445 -0.00801,0.0668 -0.00313,0.0192 -0.0042,0.0387 -0.00477,0.0582 -5.621e-4,0.0353 -4.685e-4,0.0708 -4.685e-4,0.10608 -9.369e-4,0.0345 0.00169,0.069 0.00559,0.10326 0.00365,0.0264 0.00905,0.052 0.016939,0.0772 -1.714e-4,-0.001 -0.00119,-0.005 -4.997e-4,-0.003 0.00199,0.003 0.00294,0.007 0.00467,0.0113 0.00341,0.006 0.011532,0.018 0.015818,0.0248 0.00314,0.005 0.00627,0.0113 0.00941,0.0156 -1.186e-4,-4.3e-4 -6.246e-4,-0.001 -3.435e-4,-0.001 0.00647,0.009 0.031621,0.0504 0.022442,0.0338 0.0066,0.0121 0.015038,0.0216 0.023897,0.0317 0.00849,0.0102 0.020846,0.0198 0.033393,0.0298 0.0067,0.003 0.011697,0.0113 0.018495,0.0143 0.00218,0.001 -0.00816,-0.006 -0.0059,-0.005 0.00865,0.003 0.023598,0.0132 0.01165,0.006 -0.00842,-0.006 -0.030527,-0.007 -0.00596,-0.007 0.014909,-3.5e-4 0.029952,10e-4 0.044851,3.2e-4 0.00216,-1.2e-4 -0.00814,0.001 -0.00646,-2.7e-4 0.00212,-10e-4 0.00541,-7.1e-4 0.0081,-10e-4 0.00364,-8.3e-4 -0.00745,5.5e-4 -0.00567,-7e-5 0.016065,-0.006 0.032078,-0.0102 0.047889,-0.0169 0.032818,-0.0134 0.066816,-0.0241 0.099188,-0.0387 0.019656,-0.007 0.037241,-0.0189 0.055552,-0.0291 -0.00163,8e-4 -0.00595,0.003 -0.00484,0.002 0.00156,-0.002 0.00421,-0.002 0.00628,-0.005 0.013573,-0.0102 0.027745,-0.0188 0.04142,-0.0284 0.013778,-0.0122 0.031214,-0.0196 0.044896,-0.0318 0.00122,-10e-4 -0.0029,0.001 -0.00436,0.002 0.00116,-10e-4 0.00464,-0.005 0.00347,-0.003 -0.021371,0.0232 -0.00909,0.0102 -0.00318,-9.7e-4 9.057e-4,-10e-4 -0.00378,0.006 -0.0032,0.005 0.00127,-0.003 0.00355,-0.007 0.00534,-0.0113 0.00885,-0.018 0.012901,-0.0341 0.020503,-0.0542 0.00637,-0.0221 0.013085,-0.0439 0.019254,-0.066 0.00342,-0.0134 0.00306,-0.0276 0.00347,-0.0414 7.495e-4,-0.0326 5.934e-4,-0.0653 5.309e-4,-0.098 -6.62e-5,-0.0363 -1.087e-4,-0.0726 -1.336e-4,-0.10881 -1.84e-5,-0.0296 -1.84e-5,-0.0592 -1.91e-5,-0.0888 -0.00109,-0.0285 0.00256,-0.0578 -0.00335,-0.0859 -0.00464,-0.0374 -0.01262,-0.0742 -0.020368,-0.11095 -4.998e-4,-10e-4 -3.436e-4,-0.003 -0.00156,-0.005 -9.057e-4,-8.8e-4 0.00106,0.005 5.621e-4,0.003 -0.00712,-0.0168 -0.013151,-0.0346 -0.019266,-0.0517 4.683e-4,0.001 0.00209,0.006 0.00144,0.005 -0.0079,-0.0184 -0.016258,-0.0366 -0.02807,-0.0734 4.059e-4,0.001 0.00199,0.007 0.00119,0.005 -0.00785,-0.0159 -0.01455,-0.0403 -0.021273,-0.0579 -0.010234,-0.029 -0.019931,-0.058 -0.030377,-0.0868 -0.011001,-0.0283 -0.024279,-0.0556 -0.036247,-0.0834 -0.00676,-0.0155 -0.013282,-0.0308 -0.021055,-0.0456 -0.00275,-0.005 0.00544,0.0113 0.00853,0.0157 -0.00271,-0.003 -0.00544,-0.007 -0.00814,-0.0113 -0.00428,-0.006 0.00685,0.0102 0.00753,0.0102 0.00353,0.003 0.01564,0.0122 0.010836,0.0113 -0.00116,-3.2e-4 -0.021267,-0.0188 -0.00902,-0.007 -0.00197,-10e-4 -0.00402,-0.002 -0.00591,-0.005 -0.048436,-0.041 -0.019806,-0.0163 -0.012258,-0.0113 0.014363,0.0102 0.01629,0.0102 0.031737,0.0176 -0.037573,-0.0113 7.807e-4,-0.002 -0.00991,-0.002 -0.00909,-3.9e-4 -0.018182,-5.7e-4 -0.027273,-7.5e-4 -0.2835823,-0.006 -0.2755531,-0.41968 0.00803,-0.41383 v 0 c 0.017654,4e-4 0.035314,7.6e-4 0.052929,0.002 0.036258,0.003 0.072496,0.0102 0.1064956,0.0233 0.033477,0.0138 0.05704,0.0257 0.085706,0.0485 0.00415,0.003 0.00877,0.006 0.011945,0.0113 0.0025,0.003 -0.00672,-0.005 -0.00984,-0.007 -0.00247,-0.002 0.00523,0.003 0.00785,0.006 0.027863,0.0223 0.055588,0.0457 0.076145,0.0761 0.025755,0.0365 0.046382,0.0755 0.062947,0.11741 0.014747,0.0352 0.03194,0.0693 0.044848,0.10541 0.00957,0.0265 0.01877,0.0532 0.02781,0.08 0.011308,0.0299 0.022199,0.0597 0.032369,0.0899 -0.019203,-0.0497 0.016926,0.0388 0.018694,0.0431 0.010588,0.0351 0.028994,0.0677 0.034633,0.1045 0.0098,0.0466 0.019463,0.0933 0.025518,0.14057 0.00595,0.0479 0.00866,0.0959 0.00733,0.14417 6e-7,0.0294 2e-7,0.0591 1.86e-5,0.0885 2.51e-5,0.0361 6.78e-5,0.0723 1.334e-4,0.10857 4.99e-5,0.038 2.345e-4,0.076 -8.119e-4,0.114 -0.00184,0.0477 -0.0057,0.0954 -0.019097,0.14138 -0.00979,0.0345 -0.019784,0.0692 -0.031584,0.10315 -0.012473,0.031 -0.021692,0.0634 -0.037694,0.093 -0.021936,0.0434 -0.046894,0.0856 -0.081581,0.11947 -0.028288,0.0269 -0.059085,0.0499 -0.091209,0.0718 -0.032353,0.0228 -0.041805,0.0286 -0.079509,0.0532 -0.029987,0.016 -0.058846,0.0346 -0.090827,0.0463 -0.035451,0.0149 -0.071508,0.0283 -0.1073845,0.0421 -0.045485,0.0181 -0.092,0.0344 -0.1403195,0.0421 -0.035764,0.005 -0.07158,0.005 -0.1075497,0.003 -0.048499,-0.002 -0.096746,-0.007 -0.1416953,-0.0277 -0.037808,-0.0181 -0.075071,-0.038 -0.1070917,-0.0661 -0.030789,-0.0243 -0.060312,-0.0504 -0.086478,-0.08 -0.01826,-0.0209 -0.036246,-0.0422 -0.051015,-0.066 -0.014597,-0.0215 -0.028819,-0.0429 -0.043263,-0.0658 -0.026252,-0.0416 -0.050406,-0.0846 -0.066127,-0.13157 -0.015933,-0.0515 -0.026943,-0.10428 -0.033622,-0.15799 -0.0051,-0.0494 -0.00914,-0.099 -0.00801,-0.14856 -9.4e-6,-0.0401 -1.311e-4,-0.0802 6.871e-4,-0.12021 0.00122,-0.0346 0.00343,-0.0691 0.00865,-0.10314 0.00479,-0.0342 0.00692,-0.0688 0.014594,-0.10247 0.00477,-0.0206 0.010293,-0.0408 0.012985,-0.0616 0.00725,-0.0393 0.016296,-0.0784 0.024463,-0.11765 0.011402,-0.0485 0.02534,-0.0962 0.04195,-0.14302 0.011485,-0.0308 0.02133,-0.0623 0.032831,-0.0931 0.010741,-0.0273 0.011331,-0.0293 0.029009,-0.0753 0.015091,-0.0339 0.031701,-0.0668 0.050638,-0.0985 0.016203,-0.0273 0.031708,-0.055 0.048729,-0.0819 0.018363,-0.0286 0.037626,-0.0563 0.057738,-0.0837 0.024269,-0.0336 0.050554,-0.0658 0.081237,-0.0934 0.034466,-0.0282 0.060018,-0.0452 0.1011086,-0.0674 0.045168,-0.0198 0.091912,-0.0343 0.1408729,-0.0402 0.038331,-0.003 0.076691,-0.007 0.1152633,-0.006 0.2836388,0 0.2836388,0.41392 0,0.41392 z"
     />
  </g>
</svg>
