<?xml version="1.0" encoding="UTF-8" standalone="no"?>
<svg
   xmlns:dc="http://purl.org/dc/elements/1.1/"
   xmlns:cc="http://creativecommons.org/ns#"
   xmlns:rdf="http://www.w3.org/1999/02/22-rdf-syntax-ns#"
   xmlns:svg="http://www.w3.org/2000/svg"
   xmlns="http://www.w3.org/2000/svg"
   id="svg840"
   version="1.1"
   width="20"
   height="20"
   viewBox="0 0 5.2916665 5.2916668">
  <metadata
     id="metadata846">
    <rdf:RDF>
      <cc:Work
         rdf:about="">
        <dc:format>image/svg+xml</dc:format>
        <dc:type
           rdf:resource="http://purl.org/dc/dcmitype/StillImage" />
        <dc:title></dc:title>
      </cc:Work>
    </rdf:RDF>
  </metadata>
  <defs
     id="defs844" />
  <path
     d="m 4.9052926,0.568107 c 0.0044,0.0257643 0.00624,0.0518303 0.00737,0.0779105 8.784e-4,0.0265427 8.864e-4,0.0531038 9.208e-4,0.079658 5.8e-6,0.0299754 -1.78e-5,0.0599507 -2.85e-5,0.0899261 -1.2e-5,0.0390288 -1.26e-5,0.0780576 -1.37e-5,0.11708638 -8e-7,0.0503551 -5e-7,0.10071022 -4e-7,0.15106532 1e-7,0.051542 2e-7,0.1030829 2e-7,0.1546243 0,0.041173 0,0.082346 0,0.1235189 0,0.053075 0,0.1061506 0,0.1592259 -0.00122,0.053645 -0.00389,0.1072382 -0.00531,0.1608777 -9.26e-4,0.039076 -0.00104,0.078165 -0.00112,0.1172494 -3.73e-5,0.044439 -5.5e-6,0.088878 7.2e-6,0.1333176 1.46e-5,0.055848 1.72e-5,0.111695 1.9e-5,0.1675425 2.203e-4,0.076037 4.101e-4,0.1520464 -0.00191,0.2280526 -0.00358,0.062766 -0.0074,0.1255023 -0.00941,0.1883423 -0.00119,0.055644 -0.00214,0.1113223 -8.255e-4,0.166969 6.032e-4,0.058786 0.00507,0.117326 0.011995,0.1756727 0.00767,0.072638 0.017449,0.1450218 0.024345,0.2177404 0.00536,0.057515 0.00699,0.1152652 0.00774,0.1729947 -10e-4,0.044205 0.00209,0.088237 0.00533,0.1322766 0.00642,0.057822 0.00991,0.1158718 0.012142,0.173986 0.00263,0.051204 0.0073,0.1022675 0.011197,0.1533853 0.00421,0.062342 0.00974,0.1245724 0.01336,0.1869562 0.00295,0.042784 0.00156,0.085719 0.00353,0.1285242 0.00322,0.052141 0.00709,0.1042252 0.00946,0.1564265 0.00185,0.042792 0.00242,0.085622 0.00266,0.1284483 9.69e-5,0.028281 3.98e-5,0.056562 1.03e-5,0.084842 -2.59e-5,0.024151 -3.31e-5,0.048305 -3.8e-5,0.072457 9.843e-4,0.033271 -0.0048,0.066023 -0.0098,0.098744 -0.00238,0.02222 -0.00442,0.044497 -0.00653,0.066758 3.466e-4,-0.00997 -0.00229,0.029479 -0.00224,0.022082 3.731e-4,-0.052222 0.00842,0.016137 -0.011058,-0.083525 0.0978,0.2532422 -0.2603384,0.3915521 -0.3581384,0.1383101 v 0 c -0.00448,-0.021881 -0.010538,-0.043494 -0.013427,-0.065639 -0.002,-0.015338 0.0015,-0.032008 0.00266,-0.047519 0.00284,-0.029789 0.00539,-0.059624 0.00934,-0.089284 0.00274,-0.017563 0.00556,-0.026559 0.00527,-0.040002 4.8e-6,-0.02426 1.21e-5,-0.04852 3.82e-5,-0.07278 2.86e-5,-0.02745 8.39e-5,-0.0549 -4.9e-6,-0.08235 -2.019e-4,-0.03775 -6.72e-4,-0.075504 -0.00228,-0.1132247 -0.00237,-0.052906 -0.00659,-0.1056714 -0.00955,-0.1585363 -0.00146,-0.040523 -0.00108,-0.081087 -0.00319,-0.1215927 -0.00345,-0.060027 -0.00891,-0.1198964 -0.012887,-0.1798867 -0.00427,-0.055988 -0.0094,-0.1119206 -0.012033,-0.1680186 -0.00201,-0.053588 -0.00553,-0.1070703 -0.011384,-0.160391 -0.00381,-0.051792 -0.00719,-0.1036145 -0.00633,-0.1555874 -5.847e-4,-0.047336 -0.00174,-0.094697 -0.00608,-0.1418646 -0.00653,-0.069915 -0.016248,-0.1394677 -0.023457,-0.209314 -0.00808,-0.07036 -0.013729,-0.1409297 -0.014483,-0.2117923 -0.00126,-0.062534 -6.297e-4,-0.1250893 9.34e-4,-0.1876159 0.00203,-0.062666 0.00549,-0.1252525 0.00939,-0.1878287 0.00225,-0.072055 0.00186,-0.1441168 0.00173,-0.2162023 -1.8e-6,-0.055815 -4.4e-6,-0.1116302 -1.9e-5,-0.1674453 -1.27e-5,-0.044726 -4.5e-5,-0.089452 -6.4e-6,-0.1341786 8.74e-5,-0.042236 2.328e-4,-0.084476 0.00126,-0.1267009 0.00134,-0.05024 0.00359,-0.1004438 0.00517,-0.1506759 0,-0.053075 0,-0.1061506 0,-0.1592259 0,-0.041173 0,-0.082346 -10e-8,-0.1235186 0,-0.051541 0,-0.1030826 -1e-7,-0.1546239 -1e-7,-0.050359 -5e-7,-0.10071759 4e-7,-0.15107634 1e-6,-0.0390709 1.7e-6,-0.0781419 1.37e-5,-0.11721277 1.06e-5,-0.0297664 3.37e-5,-0.0595328 2.87e-5,-0.0892992 C 4.5296355,0.70466769 4.529646,0.68316479 4.529059,0.66167279 4.5286913,0.65148899 4.5282838,0.64129459 4.526598,0.63122289 4.4819689,0.3634455 4.8606631,0.30032981 4.9052926,0.568107 Z"
     id="path868"
     style="fill:#000000;stroke-width:0" />
  <path
     d="m 0.42565049,2.5616498 c 0.04688,0.011006 0.095208,0.013308 0.143145,0.015387 0.054067,0.00194 0.1081818,0.00165 0.1622741,0.0017 0.064876,-4.154e-4 0.1297149,-4.578e-4 0.1944982,0.0033 0.083792,0.00504 0.16771581,0.00707 0.25163441,0.00845 0.078846,5.344e-4 0.15767,9.472e-4 0.236448,0.00451 0.075718,0.00737 0.1512096,0.016492 0.2270915,0.022144 0.091967,0.00749 0.1842352,0.00989 0.2764584,0.011552 0.086936,0.00115 0.173881,0.00124 0.2608231,0.00126 0.055545,-0.00101 0.1110144,7.223e-4 0.1665121,0.00268 0.064349,0.00151 0.1286004,0.00527 0.1929363,0.00716 0.097328,0.00199 0.1946626,0.00227 0.2919851,0.00456 0.090289,0.0022 0.1805964,0.00352 0.270908,0.00429 0.081912,7.409e-4 0.1638776,0.00212 0.2457238,0.00566 0.066453,0.00383 0.1329825,0.00573 0.1995307,0.00677 0.0608,8.202e-4 0.121607,7.937e-4 0.1824115,8.202e-4 0.035646,0 0.071292,-1.85e-5 0.1069379,-3.68e-5 0.019365,-9.8e-6 0.012105,-7.673e-4 0.021889,4.763e-4 0.2710828,0.01451 0.2916018,-0.3688602 0.020518,-0.3833692 v 0 c -0.049715,-0.00209 -0.099496,-5.159e-4 -0.1492445,-9.869e-4 -0.058851,-1.55e-5 -0.117705,8e-6 -0.1765523,-7.673e-4 -0.063123,-9.684e-4 -0.1262226,-0.00283 -0.1892546,-0.00648 -0.086177,-0.00358 -0.1724575,-0.0053 -0.2587021,-0.00599 -0.088389,-7.488e-4 -0.176774,-0.00205 -0.2651406,-0.0042 -0.096655,-0.00227 -0.1933196,-0.00265 -0.2899815,-0.00451 -0.063494,-0.00178 -0.1268999,-0.00569 -0.1904089,-0.00708 -0.059982,-0.00212 -0.1199478,-0.00389 -0.1799778,-0.00292 -0.08468,-1.99e-5 -0.1693638,-1.05e-4 -0.2540384,-0.0012 -0.085126,-0.00152 -0.1703024,-0.00363 -0.2551905,-0.010591 -0.079601,-0.00575 -0.1586609,-0.01661 -0.2382209,-0.022799 -0.082348,-0.00359 -0.1647325,-0.00445 -0.2471509,-0.00484 -0.078844,-0.00129 -0.1576942,-0.00315 -0.23641831,-0.0079 -0.071846,-0.00393 -0.1437347,-0.00459 -0.2156802,-0.00391 -0.048807,-4.36e-5 -0.097635,2.552e-4 -0.1464221,-0.00135 -0.022083,-8.977e-4 -0.044302,-0.00193 -0.066228,-0.00427 -0.2633654,-0.065841 -0.3564791,0.3066135 -0.093114,0.3724549 z"
     id="path870"
     style="fill:#000000;stroke-width:0" />
  <path
     d="m 2.2681564,1.1839574 c 0.032799,0.050448 0.075771,0.093014 0.1196142,0.1337709 0.066721,0.060467 0.1375688,0.1159149 0.2086266,0.1711249 0.087251,0.066559 0.1704665,0.1381492 0.2533015,0.2100586 0.080063,0.068516 0.1577737,0.1396526 0.2337369,0.2126645 0.07645,0.076794 0.1524489,0.1540367 0.2293117,0.230426 0.049217,0.049999 0.097022,0.1013533 0.1456142,0.1519594 0.045571,0.048833 0.091299,0.097449 0.1385594,0.1446601 0.049525,0.049007 0.1025377,0.094335 0.1575948,0.1369771 0.027092,0.021573 0.055807,0.040934 0.08399,0.060994 0.00946,0.00743 0.083163,0.056242 0.031044,0.019941 -0.054936,-0.070383 -0.074003,-0.073056 -0.05789,-0.1879116 0.0039,-0.027792 0.026133,-0.049707 0.040551,-0.073786 0.0027,-0.00451 0.01588,-0.011516 0.01062,-0.01168 -0.00787,-2.464e-4 -0.013811,0.00754 -0.02069,0.011365 -0.011964,0.00664 -0.023894,0.013353 -0.035843,0.02003 -0.060554,0.033857 -0.1200648,0.070081 -0.1741935,0.1136965 -0.04093,0.03298 -0.056362,0.04897 -0.094379,0.084901 C 3.4461814,2.7065038 3.354824,2.7999923 3.2619121,2.891985 3.1791491,2.972668 3.0953632,3.0523407 3.0105868,3.130909 2.9459728,3.194128 2.8703145,3.244184 2.7967315,3.2961101 c -0.095925,0.065597 -0.1927694,0.129745 -0.2857283,0.1995315 -0.060448,0.044996 -0.1150025,0.096786 -0.1687367,0.1493788 -0.023318,0.021778 -0.045111,0.045059 -0.067006,0.068229 -0.020291,0.018203 -0.04121,0.035816 -0.061514,0.054085 -0.022937,0.019778 -0.041806,0.043485 -0.05981,0.067647 -0.00132,0.00177 0.00259,-0.00358 0.00387,-0.00537 -0.00509,0.00684 -0.010184,0.013687 -0.015274,0.020532 -0.1544891,0.2232253 0.1611993,0.441706 0.3156882,0.2184805 v 0 c -0.00233,0.00286 -0.00467,0.00572 -0.00701,0.00859 0.00444,-0.00552 0.00893,-0.010999 0.013316,-0.016563 8.731e-4,-0.00111 0.00225,-0.00204 0.00246,-0.00344 1.566e-4,-0.00111 -0.00301,0.00329 -0.0023,0.00243 0.00175,-0.0022 0.00826,-0.006 0.00548,-0.00637 -2.107e-4,-2.86e-5 -0.019201,0.017576 5.82e-4,-6.879e-4 C 2.4989417,4.02713 2.5285157,4.003216 2.5551567,3.97607 2.5731617,3.956618 2.5915277,3.937535 2.6108587,3.919383 2.6527057,3.878401 2.6946597,3.837488 2.7418188,3.8024679 2.831526,3.7348012 2.9257198,3.6736216 3.0181337,3.6097919 3.1056227,3.5480305 3.1946976,3.4874861 3.27163,3.4124611 3.3594526,3.3310028 3.4463349,3.2484946 3.5320496,3.1648236 3.6231337,3.074639 3.7129224,2.9832064 3.8023294,2.8913569 3.824004,2.8705606 3.8413469,2.853096 3.8642678,2.83405 3.9040056,2.8010302 3.9487339,2.7749 3.993644,2.749687 4.004756,2.743467 4.063285,2.711004 4.072861,2.704564 4.090152,2.692936 4.109517,2.683077 4.122912,2.667117 4.145798,2.639844 4.172715,2.611704 4.18003,2.57686 4.20552,2.4554475 4.17805,2.4441443 4.120976,2.3664054 4.078292,2.3339804 4.09273,2.3465634 4.060725,2.3235254 4.036628,2.3064974 4.012183,2.2899384 3.989021,2.2716254 3.9467088,2.2391694 3.9062503,2.2042664 3.8681659,2.1669251 3.8227761,2.1216431 3.7790788,2.0748071 3.7352525,2.0280214 3.6845742,1.9752694 3.6347986,1.9216554 3.5833417,1.8696577 3.5049313,1.7917739 3.4275413,1.7128831 3.3494151,1.634723 3.2687632,1.5572708 3.1863278,1.4817281 3.1013746,1.4089944 3.0132765,1.3325175 2.9246729,1.2565053 2.8319211,1.1856678 2.7691471,1.1369128 2.7063699,1.0882338 2.6473734,1.0348869 c -0.015137,-0.013542 -0.0287,-0.027878 -0.042764,-0.0424918 -0.00116,-0.001196 -0.00267,-0.002016 -0.00375,-0.003275 -0.00287,-0.00333 -0.00457,-0.007757 -0.00806,-0.0104368 -0.00238,-0.001828 0.00305,0.005167 0.00457,0.00775 C 2.4576925,0.75364895 2.1284858,0.951173 2.2681564,1.1839574 Z"
     id="path872"
     style="fill:#000000;stroke-width:0" />
</svg>
