<?xml version="1.0" encoding="UTF-8" standalone="no"?>
<!DOCTYPE svg PUBLIC "-//W3C//DTD SVG 1.1//EN" "http://www.w3.org/Graphics/SVG/1.1/DTD/svg11.dtd">
<svg width="100%" height="100%" viewBox="0 0 20 20" version="1.1" xmlns="http://www.w3.org/2000/svg" xmlns:xlink="http://www.w3.org/1999/xlink" xml:space="preserve" xmlns:serif="http://www.serif.com/" style="fill-rule:evenodd;clip-rule:evenodd;stroke-linejoin:round;stroke-miterlimit:2;">
    <path d="M2.282,9.153C2.282,9.319 2.387,9.443 2.438,9.596C2.516,9.829 2.537,10.098 2.595,10.326C2.68,10.668 2.577,11.073 2.621,11.421C2.72,12.218 2.711,13.034 2.621,13.846C2.575,14.257 2.699,14.707 2.699,15.072" style="fill:none;stroke:black;stroke-width:1px;stroke-linecap:round;stroke-miterlimit:1.5;"/>
    <path d="M2.308,8.475C2.402,8.475 2.495,8.554 2.595,8.579C2.918,8.66 3.302,8.589 3.638,8.631C4.408,8.727 5.26,8.631 6.037,8.631C6.598,8.631 7.107,8.649 7.653,8.709C8.583,8.813 9.562,8.695 10.495,8.761C11.171,8.81 11.862,8.735 12.529,8.735C12.624,8.735 13.076,8.63 13.129,8.683C13.152,8.706 13.129,8.885 13.129,8.918C13.129,9.141 13.051,9.353 13.051,9.57C13.051,10.444 13.085,11.347 13.207,12.203C13.326,13.033 13.259,13.942 13.259,14.785C13.259,15.04 13.312,15.206 13.312,15.437C13.312,15.472 13.333,15.624 13.312,15.645C13.274,15.683 13.167,15.601 13.129,15.593C13.008,15.569 12.862,15.541 12.738,15.541C12.047,15.541 11.371,15.619 10.678,15.619C9.566,15.619 8.403,15.795 7.288,15.671C5.879,15.515 4.386,15.541 2.96,15.541" style="fill:none;stroke:black;stroke-width:1px;stroke-linecap:round;stroke-miterlimit:1.5;"/>
    <path d="M7.236,10.561C6.954,10.561 6.481,10.489 6.245,10.613C5.709,10.894 4.967,11.418 5.15,12.151C5.193,12.325 5.328,12.482 5.411,12.647C5.508,12.842 5.667,13.158 5.854,13.299C6.241,13.589 6.539,13.742 7.027,13.742C7.145,13.742 7.445,13.806 7.445,13.638" style="fill:none;stroke:black;stroke-width:1px;stroke-linecap:round;stroke-miterlimit:1.5;"/>
    <path d="M5.776,12.073C5.981,12.073 6.163,12.151 6.375,12.151" style="fill:none;stroke:black;stroke-width:1px;stroke-linecap:round;stroke-miterlimit:1.5;"/>
    <path d="M4.628,8.422C4.628,8.217 4.545,7.885 4.472,7.666C4.429,7.537 4.489,7.378 4.446,7.249C4.434,7.213 4.379,6.865 4.394,6.858C4.433,6.838 4.564,6.858 4.602,6.858C4.833,6.858 5.083,6.828 5.306,6.884C5.522,6.938 5.819,6.873 6.037,6.858C6.312,6.838 6.595,6.858 6.871,6.858C7.706,6.858 8.593,6.977 9.426,6.884C10.513,6.763 11.586,6.623 12.686,6.623C13.251,6.623 13.913,6.591 14.459,6.728C14.583,6.759 14.925,6.646 15.007,6.728C15.054,6.775 15.017,6.898 15.033,6.962C15.108,7.264 15.046,7.615 15.085,7.927C15.17,8.609 15.249,9.286 15.346,9.961C15.392,10.285 15.325,10.628 15.372,10.952C15.415,11.255 15.476,11.559 15.476,11.864C15.476,12.141 15.514,12.41 15.58,12.673C15.6,12.751 15.571,12.862 15.606,12.934C15.625,12.971 15.674,13.178 15.632,13.22C15.568,13.285 15.177,13.246 15.085,13.246C14.785,13.246 14.508,13.242 14.224,13.299C14.004,13.343 13.82,13.455 13.598,13.455" style="fill:none;stroke:black;stroke-width:1px;stroke-linecap:round;stroke-miterlimit:1.5;"/>
    <path d="M6.923,6.18C6.923,6.063 6.755,5.792 6.688,5.658C6.546,5.373 6.558,5.04 6.558,4.72C6.558,4.653 6.54,4.346 6.584,4.302C6.636,4.251 7.028,4.302 7.106,4.302C7.285,4.302 7.501,4.332 7.679,4.302C8.038,4.243 8.564,4.043 8.931,4.172C9.283,4.296 9.704,4.268 10.078,4.302C10.654,4.355 11.221,4.395 11.799,4.459C12.625,4.551 13.471,4.383 14.302,4.459C14.444,4.472 14.659,4.439 14.798,4.485C14.992,4.55 15.15,4.619 15.346,4.668C15.682,4.752 16.045,4.719 16.362,4.798C16.499,4.832 16.656,4.762 16.78,4.824C16.845,4.857 17.043,4.774 17.093,4.824C17.124,4.855 17.093,5.106 17.093,5.137C17.093,5.439 17.09,5.777 17.04,6.076C16.98,6.437 17.022,6.897 17.093,7.249C17.139,7.481 17.062,7.751 17.119,7.979C17.193,8.276 17.197,8.634 17.197,8.944C17.197,9.22 17.223,9.496 17.223,9.778C17.223,9.795 17.235,10.035 17.223,10.039C17.118,10.074 16.939,10.039 16.832,10.039C16.45,10.039 16.073,9.987 15.684,9.987" style="fill:none;stroke:black;stroke-width:1px;stroke-linecap:round;stroke-miterlimit:1.5;"/>
</svg>
