<?xml version="1.0" encoding="UTF-8" standalone="no"?>
<!DOCTYPE svg PUBLIC "-//W3C//DTD SVG 1.1//EN" "http://www.w3.org/Graphics/SVG/1.1/DTD/svg11.dtd">
<svg width="100%" height="100%" viewBox="0 0 20 20" version="1.1" xmlns="http://www.w3.org/2000/svg" xmlns:xlink="http://www.w3.org/1999/xlink" xml:space="preserve" xmlns:serif="http://www.serif.com/" style="fill-rule:evenodd;clip-rule:evenodd;stroke-linejoin:round;stroke-miterlimit:2;">
    <path d="M9.373,3.102C9.378,3.09 9.4,3.032 9.41,2.999C9.441,2.902 9.475,2.8 9.527,2.697C9.55,2.65 9.711,2.404 9.749,2.361C10.06,2.005 10.424,2.273 10.484,2.332C10.639,2.487 10.733,2.713 10.899,2.878C11.06,3.037 11.288,3.135 11.477,3.261C11.841,3.504 12.183,3.823 12.492,4.131C13.053,4.693 13.433,5.391 13.967,5.972C14.697,6.768 15.542,7.651 16.194,8.304C16.242,8.351 16.299,8.425 16.329,8.539C16.345,8.601 16.34,8.861 16.34,8.861C16.34,8.861 16.341,8.845 16.341,8.84L16.341,9.309C16.341,9.991 16.419,10.632 16.419,11.317L16.419,15.724C16.419,16.229 16.404,16.838 16.305,17.334C16.285,17.433 16.315,17.552 16.315,17.653C16.315,17.666 16.317,17.692 16.32,17.716C16.335,17.769 16.341,17.818 16.341,17.862C16.341,18.237 16.078,18.338 15.939,18.365C15.85,18.444 15.734,18.492 15.606,18.492C14.992,18.492 14.366,18.453 13.752,18.385C12.813,18.28 11.831,18.491 10.894,18.357C10.408,18.287 9.891,18.336 9.4,18.336C8.63,18.336 7.853,18.31 7.08,18.31C6.381,18.31 5.687,18.257 4.993,18.257C4.958,18.257 4.637,18.257 4.46,18.235C4.408,18.228 4.362,18.219 4.323,18.208C4.258,18.24 4.184,18.257 4.107,18.257C3.831,18.257 3.607,18.033 3.607,17.757C3.607,17.415 3.612,17.074 3.7,16.724C3.72,16.646 3.745,16.537 3.758,16.427C3.764,16.371 3.777,16.315 3.763,16.273C3.526,15.563 3.581,14.72 3.581,13.95C3.581,13.252 3.552,12.542 3.666,11.86C3.73,11.478 3.671,11.076 3.747,10.697C3.824,10.314 3.763,9.862 3.763,9.465C3.763,9.378 3.739,9.227 3.741,9.109C3.744,8.973 3.774,8.856 3.816,8.772C3.846,8.714 3.897,8.641 3.979,8.575C4.035,8.531 4.147,8.478 4.198,8.44C4.428,8.267 4.669,8.118 4.875,7.912C5.307,7.48 5.708,6.997 6.135,6.57C6.561,6.144 7.031,5.77 7.473,5.367C7.957,4.926 8.424,4.39 8.808,3.93C8.903,3.815 8.996,3.622 9.095,3.488C9.146,3.42 9.2,3.361 9.255,3.313C9.287,3.241 9.332,3.151 9.373,3.102ZM9.66,13.824C9.266,14.294 8.777,14.733 8.346,15.165C8.141,15.369 7.896,15.511 7.693,15.713C7.352,16.052 7.027,16.427 6.636,16.74C6.408,16.922 6.175,17.104 5.938,17.28C6.318,17.294 6.698,17.31 7.08,17.31C7.853,17.31 8.63,17.336 9.4,17.336C9.938,17.336 10.504,17.291 11.036,17.367C11.962,17.499 12.933,17.288 13.862,17.391C14.085,17.416 14.31,17.436 14.535,17.452C14.409,17.372 14.282,17.293 14.157,17.21C13.622,16.856 13.087,16.383 12.6,15.977C12.001,15.478 11.309,15.059 10.661,14.627C10.31,14.393 9.995,14.075 9.66,13.824ZM4.765,9.605C4.773,10.029 4.808,10.493 4.728,10.893C4.654,11.262 4.714,11.653 4.652,12.025C4.548,12.653 4.581,13.307 4.581,13.95C4.581,14.615 4.508,15.344 4.712,15.957C4.803,16.231 4.738,16.689 4.673,16.953C5.126,16.649 5.58,16.304 6.011,15.959C6.374,15.669 6.671,15.319 6.988,15.004C7.19,14.803 7.434,14.662 7.639,14.457C8.046,14.05 8.51,13.636 8.885,13.193C8.26,12.624 7.686,11.977 7.063,11.432C6.849,11.245 6.655,10.927 6.416,10.771C6.076,10.551 5.652,10.277 5.361,9.992C5.332,9.978 5.17,9.9 5.098,9.857C5.025,9.813 4.964,9.764 4.915,9.711C4.858,9.685 4.807,9.648 4.765,9.605ZM15.353,9.82C15.287,9.839 15.233,9.856 15.139,9.888C14.89,9.97 14.649,10.105 14.424,10.236C14.106,10.422 13.769,10.566 13.444,10.74C12.997,10.981 12.578,11.32 12.155,11.602C11.513,12.031 10.871,12.523 10.303,13.058C10.607,13.294 10.895,13.581 11.216,13.795C11.893,14.247 12.614,14.687 13.241,15.209C13.7,15.592 14.203,16.042 14.708,16.376C14.931,16.523 15.158,16.663 15.374,16.815C15.415,16.455 15.419,16.063 15.419,15.724L15.419,11.317C15.419,10.805 15.376,10.318 15.353,9.82ZM6.727,9.782C6.808,9.834 6.887,9.885 6.961,9.933C7.236,10.112 7.474,10.463 7.722,10.68C8.337,11.218 8.902,11.862 9.52,12.423C10.152,11.815 10.875,11.254 11.6,10.77C11.988,10.512 12.375,10.21 12.78,9.968L12.404,9.991C11.5,10.047 10.505,10.051 9.602,9.99C9.246,9.967 8.924,9.887 8.566,9.887C7.944,9.887 7.338,9.836 6.727,9.782ZM10.229,3.62C10.202,3.666 10.171,3.709 10.135,3.75C10.082,3.85 9.987,4.01 9.899,4.074C9.908,4.068 9.916,4.062 9.916,4.062C9.916,4.062 9.688,4.436 9.576,4.57C9.166,5.063 8.664,5.634 8.146,6.106C7.716,6.499 7.257,6.862 6.842,7.277C6.415,7.704 6.014,8.188 5.582,8.62C5.534,8.668 5.484,8.713 5.434,8.757L5.489,8.757C5.73,8.757 5.966,8.712 6.208,8.732C6.997,8.798 7.769,8.887 8.566,8.887C8.947,8.887 9.29,8.967 9.668,8.993C10.53,9.05 11.479,9.046 12.342,8.992C12.925,8.956 13.534,8.929 14.117,8.864C14.466,8.825 14.859,8.758 15.216,8.737C14.603,8.115 13.873,7.348 13.23,6.648C12.706,6.077 12.336,5.39 11.785,4.839C11.521,4.575 11.233,4.3 10.922,4.093C10.694,3.941 10.431,3.807 10.229,3.62Z"/>
</svg>
