<?xml version="1.0" encoding="UTF-8" standalone="no"?>
<svg
   xmlns:dc="http://purl.org/dc/elements/1.1/"
   xmlns:cc="http://creativecommons.org/ns#"
   xmlns:rdf="http://www.w3.org/1999/02/22-rdf-syntax-ns#"
   xmlns:svg="http://www.w3.org/2000/svg"
   xmlns="http://www.w3.org/2000/svg"
   id="svg855"
   version="1.1"
   width="20"
   height="20"
   viewBox="0 0 5.2916665 5.2916668">
  <metadata
     id="metadata861">
    <rdf:RDF>
      <cc:Work
         rdf:about="">
        <dc:format>image/svg+xml</dc:format>
        <dc:type
           rdf:resource="http://purl.org/dc/dcmitype/StillImage" />
        <dc:title></dc:title>
      </cc:Work>
    </rdf:RDF>
  </metadata>
  <defs
     id="defs859" />
  <path
     d="m 0.54795255,4.7227082 c 0.007282,-0.026665 0.0142409,-0.053399 0.0214723,-0.080076 0.008334,-0.030019 0.0152831,-0.060353 0.0234371,-0.090412 0.006669,-0.027647 0.0153638,-0.054693 0.0266795,-0.080771 0.0216797,-0.047433 0.0396608,-0.096388 0.0587056,-0.1448991 0.0159038,-0.040852 0.0326642,-0.081245 0.0504395,-0.1212982 0.0239612,-0.055001 0.0482612,-0.109841 0.0717564,-0.1650431 0.0215278,-0.050035 0.0412477,-0.1007808 0.0607454,-0.1516308 0.0263371,-0.070303 0.0536233,-0.1402289 0.083897,-0.2089341 0.0350209,-0.076066 0.0721048,-0.1512046 0.10961755,-0.2260761 0.040819,-0.07764 0.074572,-0.158581 0.1085267,-0.2393672 0.039588,-0.097699 0.080492,-0.1948265 0.1224271,-0.291541 C 1.3319087,2.820776 1.3708047,2.7158205 1.4135545,2.612471 1.4502975,2.520552 1.4865235,2.4284652 1.526233,2.3377739 1.554647,2.2697779 1.589094,2.2047242 1.625911,2.1409914 1.669729,2.0630934 1.714504,1.9857637 1.7604397,1.9090968 1.8240987,1.8056296 1.8954572,1.7072076 1.9679263,1.60981 2.0125553,1.549186 2.0581593,1.4891751 2.1007536,1.427078 c 0.034303,-0.05001 0.066158,-0.1016896 0.09858,-0.1529212 0.028069,-0.041843 0.052212,-0.086119 0.078671,-0.1289501 0.025841,-0.041831 0.053332,-0.082733 0.080558,-0.1236671 0.049833,-0.0714495 0.1012869,-0.14178002 0.1526433,-0.21214593 0.033527,-0.0464022 0.069869,-0.0904518 0.1077417,-0.1333242 0.026796,-0.0301742 0.05433,-0.0596361 0.081838,-0.0891559 0.010893,-0.0106582 0.020026,-0.0229558 0.030784,-0.0337327 6.085e-4,-5.9531e-4 0.00275,-0.001937 0.00201,-0.001519 -0.019106,0.0109366 -0.035655,0.0283698 -0.057158,0.0330823 -0.024252,0.005315 -0.049575,-0.00284 -0.074362,-0.004259 -5.848e-4,8.9959e-4 -0.00239,0.001831 -0.00175,0.002696 0.00469,0.00641 0.011069,0.0114025 0.016394,0.0172977 0.0076,0.008414 0.01504,0.0169749 0.022374,0.0256228 0.02702,0.0318629 0.053311,0.0643272 0.079072,0.0972096 0.065214,0.0815444 0.1257392,0.16655256 0.1814782,0.25480954 C 2.9624038,1.080744 3.02244,1.1851232 3.0804411,1.2905214 c 0.050872,0.098137 0.1011381,0.1966262 0.1495304,0.296014 0.055068,0.1162326 0.1131937,0.2309641 0.1699979,0.3463487 0.04093,0.088913 0.084985,0.1763432 0.1269127,0.2647768 0.0098,0.020674 0.061745,0.1333906 0.071299,0.154097 0.062595,0.1417984 0.1123585,0.2887242 0.1626333,0.4351992 0.039717,0.1197742 0.087496,0.2364194 0.140163,0.3510092 0.048443,0.1027808 0.1008044,0.2036503 0.1512626,0.3054479 0.042019,0.084975 0.079959,0.1718818 0.1183933,0.2585146 0.027576,0.065036 0.058566,0.1284161 0.091746,0.1907471 0.038864,0.069492 0.075598,0.1401249 0.1129829,0.2104147 0.042229,0.081902 0.084354,0.1638763 0.1243555,0.2468941 0.030383,0.06404 0.058535,0.1291008 0.089476,0.1928764 0.014883,0.030939 0.032293,0.06053 0.050847,0.08938 0.010787,0.016587 0.023585,0.031946 0.031975,0.049949 0.00742,0.01487 0.016433,0.028868 0.023786,0.043767 8.62e-5,3.44e-4 5.821e-4,8.731e-4 2.585e-4,0.00106 -2.91e-4,1.749e-4 -5.821e-4,-5.027e-4 -6.085e-4,-8.466e-4 -0.00275,-0.020016 -0.013483,-0.040738 -0.00775,-0.06011 0.00978,-0.033066 0.03178,-0.061497 0.051996,-0.089432 0.022302,-0.012811 0.017153,-0.00553 0.022783,-0.014031 -0.028845,0.00273 -0.057831,0.003 -0.086779,0.00314 -0.045288,0.00124 -0.090427,0.00519 -0.1356122,0.00823 -0.066442,0.00175 -0.1326115,0.00675 -0.1987304,0.013322 -0.070032,0.00576 -0.1395457,0.016121 -0.2094063,0.023453 -0.072644,0.00832 -0.1455221,0.01401 -0.2185688,0.017039 -0.050039,0.0023 -0.099952,0.00672 -0.1496785,0.012703 -0.064293,0.00843 -0.1287294,0.015761 -0.1931887,0.022794 -0.076982,0.00632 -0.1540772,0.011181 -0.2312514,0.014385 -0.067221,0.00259 -0.1344994,0.0028 -0.2017604,0.00301 C 3.073279,4.6795935 3.0090741,4.6782135 2.9452286,4.6708035 2.8954661,4.6638863 2.8456636,4.657068 2.7962873,4.6477652 2.6993405,4.6313293 2.6014523,4.6210513 2.5036988,4.6107487 2.4248906,4.6023349 2.3461993,4.5929105 2.2673485,4.5848804 2.1897602,4.5770117 2.1118284,4.5740827 2.0338977,4.5725878 1.9627562,4.5715559 1.8916053,4.5716353 1.8204583,4.5716882 c -0.083197,-0.00135 -0.1662475,0.00301 -0.2492092,0.00872 -0.1048639,0.00815 -0.2092889,0.020786 -0.3136295,0.033853 -0.069927,0.00808 -0.1396215,0.017926 -0.2093058,0.027838 -0.0754403,0.00985 -0.15063918,0.021741 -0.22623823,0.030322 -0.0475492,0.00469 -0.0948529,0.010866 -0.14260925,0.012904 -0.0428472,7.408e-4 -0.0853884,-0.00548 -0.12760402,-0.012091 -0.0348951,-0.00623 -0.0691239,-0.014859 -0.10310143,-0.024807 -0.0229563,-0.00786 -0.0461426,-0.015092 -0.0689643,-0.023342 -0.003781,-0.00132 -0.0076,-0.00251 -0.0113424,-0.00394 -0.003629,-0.00138 0.007427,0.00246 0.0107466,0.00448 0.0201893,0.012237 0.0344634,0.029433 0.0457982,0.049897 C 0.34419249,4.4985399 0.09390614,4.6128175 0.17471256,4.7897967 v 0 c 0.003196,0.0061 0.005596,0.012684 0.009587,0.018293 0.008395,0.011803 0.0172226,0.023418 0.027408,0.033717 0.0207484,0.020976 0.0489399,0.033113 0.0762648,0.042638 0.0277055,0.0097 0.0555586,0.018992 0.083488,0.028033 0.0454124,0.013293 0.0913036,0.024516 0.13796328,0.032595 0.0603167,0.00939 0.12118429,0.017132 0.18237615,0.015108 0.054091,-0.00251 0.10774907,-0.00874 0.16158231,-0.014415 0.0780691,-0.00901 0.1557743,-0.020958 0.2336781,-0.031277 0.06817,-0.0097 0.1363475,-0.019352 0.204758,-0.027229 0.099275,-0.012438 0.1986235,-0.024519 0.2983885,-0.032374 0.076692,-0.00532 0.1534585,-0.00941 0.2303731,-0.00806 0.069366,-3.04e-5 0.1387361,-1.148e-4 0.2080971,8.732e-4 0.070372,0.00132 0.1407499,0.00385 0.2108174,0.010927 0.07853,0.00799 0.1568964,0.017412 0.2353864,0.025768 0.090542,0.00953 0.18121,0.018997 0.2710546,0.033883 0.055855,0.010303 0.1120796,0.018444 0.1683744,0.025942 0.074424,0.00824 0.1491679,0.01084 0.2240249,0.011607 0.070806,-2.161e-4 0.1416306,-4.762e-4 0.2123937,-0.00324 0.083314,-0.00349 0.1665571,-0.00868 0.2496447,-0.015772 0.065649,-0.00717 0.1312772,-0.014626 0.1967582,-0.023209 0.042422,-0.00533 0.085068,-0.00875 0.1277628,-0.010906 0.078849,-0.00333 0.157531,-0.00935 0.2359509,-0.01832 0.0693,-0.00736 0.1382805,-0.017444 0.207745,-0.023281 0.063223,-0.00629 0.126479,-0.010859 0.1900105,-0.012594 0.039513,-0.00267 0.07898,-0.00602 0.1185595,-0.00761 0.043671,-2.461e-4 0.087471,-8.996e-4 0.1308045,-0.00692 0.022651,-0.00464 0.067825,-0.011311 0.083909,-0.028101 0.027919,-0.029143 0.05445,-0.062131 0.068086,-0.1001152 0.012353,-0.03441 -0.00439,-0.072384 -0.018275,-0.1032512 -0.00786,-0.015531 -0.016531,-0.03059 -0.02485,-0.045866 -0.013369,-0.025517 -0.028287,-0.05012 -0.045431,-0.073298 C 4.8587561,4.463716 4.8467202,4.4436884 4.8366488,4.4225842 4.8057246,4.359135 4.7780666,4.2941702 4.7475652,4.2305181 4.7059513,4.1442486 4.6622477,4.0590049 4.6182879,3.9739117 4.5808661,3.9035518 4.544099,3.8328441 4.5051926,3.7632854 4.4750568,3.7068235 4.4470813,3.6493396 4.4221399,3.5903696 4.3821182,3.5001641 4.3425606,3.4096978 4.2987633,3.3212394 4.2494789,3.2218177 4.1983706,3.1232861 4.1509293,3.0229661 4.1020076,2.9167875 4.0578082,2.8086626 4.021056,2.6976302 3.967749,2.5423416 3.9147723,2.3866502 3.8480148,2.2364844 3.8353425,2.2090205 3.786855,2.1037626 3.7744386,2.077574 3.7322826,1.9886583 3.6880022,1.9007448 3.6468229,1.8113592 3.5901852,1.6963156 3.5322298,1.5819237 3.4773258,1.4660329 3.4268785,1.3625373 3.3746352,1.2598981 3.3214519,1.1577855 3.2606731,1.0475162 3.1979465,0.93821622 3.1320785,0.83090842 3.120219,0.81222807 3.1086454,0.79336328 3.0965005,0.77486737 3.0462728,0.69837455 2.9907494,0.62549708 2.9345318,0.55336037 2.9054136,0.51636824 2.875966,0.47953935 2.8452233,0.44386949 2.8283979,0.42434742 2.7990657,0.39121797 2.7792307,0.37415578 2.764219,0.36124258 2.7478048,0.35005536 2.732092,0.33800518 2.6956,0.33030918 2.659804,0.31209508 2.6226172,0.31491768 c -0.057933,0.004397 -0.088737,0.0476964 -0.1231263,0.0844238 -0.029194,0.0313295 -0.058363,0.0626546 -0.086826,0.0946551 -0.043459,0.049273 -0.085142,0.0999576 -0.1237065,0.153196 -0.05372,0.0736075 -0.1075754,0.14715675 -0.1595253,0.22202222 -0.029757,0.0447801 -0.059628,0.0895871 -0.087897,0.13533 -0.016352,0.02646 -0.031551,0.053623 -0.0479,0.080085 -0.00879,0.014222 -0.017866,0.028262 -0.026798,0.042393 -0.029794,0.047079 -0.058892,0.09475 -0.090393,0.1407186 C 1.8350151,1.3281974 1.7905941,1.3865809 1.7471672,1.445591 1.6692569,1.550346 1.5926722,1.6563003 1.5244158,1.7676915 1.4777113,1.8456516 1.432149,1.924265 1.3875988,2.0034777 1.3457531,2.0760669 1.3066428,2.1501909 1.2741489,2.227519 1.2337611,2.3199511 1.196584,2.4136675 1.1592771,2.5073733 1.1171831,2.60929 1.0787481,2.7127295 1.0332224,2.813209 0.9908776,2.910875 0.9495503,3.0089504 0.90957444,3.1076098 c -0.0315833,0.075174 -0.0627813,0.1505746 -0.10088846,0.2227583 -0.0395419,0.078997 -0.078701,0.1582422 -0.1154825,0.2385602 -0.0319293,0.072795 -0.0611366,0.1466964 -0.0889276,0.2211692 -0.0182957,0.047744 -0.0367536,0.095397 -0.0569969,0.1423596 -0.02295,0.053921 -0.0466945,0.1074846 -0.0700916,0.1612127 -0.019394,0.043725 -0.037695,0.087832 -0.0550787,0.1324033 -0.018115,0.046211 -0.035202,0.092849 -0.0558933,0.1380059 -0.0157734,0.03771 -0.0292744,0.076334 -0.0388988,0.1161118 -0.008172,0.030131 -0.0152318,0.060508 -0.0234918,0.090614 -0.006018,0.02232 -0.012433,0.044601 -0.017898,0.067065 -1.8838e-4,7.673e-4 6.694e-4,-0.00146 0.001005,-0.00217 -0.0615234,0.1845704 0.19949832,0.2715776 0.26102172,0.087008 z"
     id="path871"
     style="fill:#000000;fill-opacity:1;stroke:none;stroke-width:0;stroke-miterlimit:4;stroke-dasharray:none;stroke-opacity:1" />
  <path
     d="m 2.4432252,1.6244705 c 0.00229,0.032231 0.00281,0.064542 0.0045,0.096805 0.00271,0.05087 0.00633,0.1016888 0.010581,0.152453 0.00773,0.078151 0.017942,0.1559806 0.024775,0.2342281 0.00775,0.075173 0.011981,0.1506111 0.014304,0.2261247 0.00124,0.044832 0.00144,0.089682 0.00145,0.1345278 -0.00225,0.034025 -0.00416,0.068056 -0.0053,0.1021379 -1.236e-4,0.081812 -0.00229,0.1635137 -0.00588,0.2452414 -0.00357,0.07414 -0.00621,0.1483188 -0.00756,0.2225323 -0.00273,0.054791 -0.00479,0.1095954 -0.00592,0.1644425 -6.879e-4,0.037349 -9.631e-4,0.074703 -0.00111,0.1120574 -7.726e-4,0.1945526 0.2743668,0.1956446 0.2751389,0.00108 v 0 c 1.416e-4,-0.035832 3.969e-4,-0.071665 0.00106,-0.107492 0.00114,-0.055081 0.00339,-0.1101069 0.00594,-0.1651394 0.0013,-0.071847 0.00388,-0.1436582 0.00734,-0.2154341 0.00362,-0.082706 0.006,-0.165395 0.006,-0.2481878 0.00122,-0.037141 0.00396,-0.074181 0.00545,-0.1113068 -1.09e-5,-0.04767 -2.413e-4,-0.095343 -0.00159,-0.1429968 -0.00251,-0.080688 -0.007,-0.1613013 -0.015224,-0.2416311 -0.00686,-0.077924 -0.016706,-0.1554697 -0.024694,-0.2332687 -0.00406,-0.048007 -0.00743,-0.096074 -0.010009,-0.144183 -0.00225,-0.040301 -0.00204,-0.080781 -0.00686,-0.1209127 C 2.6881041,1.3929566 2.415729,1.4318674 2.4432431,1.6244662 Z"
     id="path873"
     style="fill:#000000;fill-opacity:1;stroke:none;stroke-width:0;stroke-miterlimit:4;stroke-dasharray:none;stroke-opacity:1" />
  <path
     d="m 2.6756783,3.9999247 c 2.566e-4,-0.010983 -0.0038,-0.022503 -0.00172,-0.033433 7.67e-5,-3.969e-4 6.35e-4,6.879e-4 5.556e-4,0.00108 -0.00146,0.00916 -0.00338,0.018235 -0.00507,0.027351 -0.017015,0.032532 -0.030777,0.055652 -0.065797,0.067901 -0.00361,0.00127 -0.013451,0.00338 -0.019364,0.00484 8.599e-4,1.524e-4 -3.81e-4,0.00101 -3.06e-5,0.00116 0.018259,0.00824 -0.00512,-0.00172 -0.00913,-0.00413 -0.00858,-0.00687 -0.01622,-0.014015 -0.022193,-0.023125 -0.00128,-0.00196 -0.00183,-0.00431 -0.00326,-0.0061 -0.0023,-0.019606 -0.00289,-0.015058 5.027e-4,-0.037931 5.08e-4,-0.00343 0.00243,-0.00662 0.00254,-0.010081 2.257e-4,-0.00763 -0.00393,0.0089 -0.00789,0.00437 -0.00267,0.00135 -0.0084,0.00651 -0.012542,0.00609 -3.334e-4,-3.43e-5 4.841e-4,-5.556e-4 4.55e-4,-8.995e-4 -4.7e-5,-5.292e-4 -0.001,-4.234e-4 -0.00153,-5.027e-4 -4.551e-4,-2.36e-5 -0.00182,-4.3e-6 -0.00137,-7.07e-5 0.00989,-0.00146 0.015744,-0.00153 0.021528,-1.952e-4 -0.01597,-0.00801 0.013786,0.00775 0.017132,0.010141 6.588e-4,5.557e-4 0.00232,0.00249 0.00197,0.00169 -7.699e-4,-0.00177 -0.00228,-0.00313 -0.00331,-0.00477 -4.048e-4,-6.615e-4 0.00124,9.789e-4 0.00161,0.00164 0.0033,0.00585 0.00345,0.00657 0.00556,0.01174 0.00363,0.010726 0.00344,0.017486 0.00362,0.028043 3.68e-5,0.00214 0.00101,-0.00418 0.00162,-0.00623 3.598e-4,-0.00122 -4.339e-4,0.00249 -6.509e-4,0.00372 -0.00461,0.018489 -0.017066,0.033064 -0.031679,0.04473 0.00672,-0.00442 0.010813,-0.00543 0.018283,-0.00692 0.010621,-4.55e-5 0.021319,-6.88e-4 0.031973,-9.261e-4 7.54e-4,-8.4e-6 0.014565,-1.802e-4 0.015521,-1.257e-4 0.00137,7.78e-5 -0.00304,-6.35e-4 -0.00411,2.337e-4 -8.388e-4,6.614e-4 0.00212,3.439e-4 0.00319,5.027e-4 -0.00181,-1.818e-4 -0.00366,-9.525e-4 -0.00544,-5.556e-4 -0.00118,2.645e-4 0.00233,6.614e-4 0.00349,9.789e-4 -0.00133,-2.91e-4 -0.00267,-5.027e-4 -0.00398,-8.731e-4 -0.0075,-0.00222 -0.00832,-0.00351 -2.604e-4,7.673e-4 0.00439,0.00233 0.016654,0.00887 0.00549,0.00322 -0.015945,-0.010221 -0.022611,-0.018058 -0.034122,-0.034692 -0.00218,-0.00315 -0.00323,-0.00699 -0.0053,-0.010216 -0.00132,-0.00206 0.00136,0.0047 0.00195,0.00708 8.705e-4,0.00325 8.123e-4,0.00656 0.00102,0.00988 0.01815,0.1937057 0.2920912,0.1680377 0.2739413,-0.025667 v 0 C 2.846841,4.0096187 2.844191,3.9896497 2.838594,3.9702537 2.833344,3.9523357 2.828169,3.9329527 2.818774,3.9167317 2.80274,3.8890507 2.785523,3.8694727 2.759671,3.8514847 2.734559,3.8363747 2.708719,3.8220427 2.680287,3.8141057 2.651238,3.8066157 2.621647,3.8023477 2.591572,3.8040167 c -0.031879,7.144e-4 -0.063969,0.00204 -0.095086,0.00965 -0.029782,0.00804 -0.059033,0.018153 -0.085548,0.034255 -0.048059,0.029135 -0.07625,0.059503 -0.094909,0.1130946 -0.011453,0.04065 -0.018115,0.082212 -0.00818,0.1241703 0.011849,0.041195 0.028564,0.073594 0.056699,0.1058883 0.026496,0.027839 0.056003,0.052188 0.093372,0.063954 0.039639,0.013015 0.080531,0.020193 0.1222127,0.012229 0.051739,-0.010242 0.096456,-0.028596 0.1380851,-0.06182 0.00954,-0.00831 0.019577,-0.016089 0.028629,-0.024929 0.040501,-0.039542 0.068687,-0.088896 0.07575,-0.1456492 0.00159,-0.012687 -3.704e-4,-0.025567 -5.557e-4,-0.03835 C 2.8124611,3.9381787 2.7938181,3.8944339 2.7501751,3.852411 2.7359221,3.841444 2.7277971,3.834173 2.7121321,3.82581 2.6831761,3.810353 2.6522471,3.799989 2.6198181,3.794821 2.5774641,3.790481 2.5339231,3.789951 2.4948092,3.810347 c -0.014572,0.0076 -0.029512,0.015629 -0.040995,0.027382 -0.015968,0.016346 -0.026721,0.037074 -0.040081,0.05561 -0.00435,0.015811 -0.00979,0.031362 -0.013053,0.047432 -0.00173,0.00852 -0.0016,0.017336 -0.00187,0.02603 -7.646e-4,0.024072 0.00207,0.048118 0.00449,0.072012 0.027514,0.1925987 0.2998899,0.153688 0.2723756,-0.038911 z"
     id="path875"
     style="fill:#000000;fill-opacity:1;stroke:none;stroke-width:0;stroke-miterlimit:4;stroke-dasharray:none;stroke-opacity:1" />
</svg>
