<?xml version="1.0" encoding="UTF-8" standalone="no"?>
<!DOCTYPE svg PUBLIC "-//W3C//DTD SVG 1.1//EN" "http://www.w3.org/Graphics/SVG/1.1/DTD/svg11.dtd">
<svg width="20" height="20" viewBox="0 0 20 20" version="1.1" xmlns="http://www.w3.org/2000/svg" xmlns:xlink="http://www.w3.org/1999/xlink" xml:space="preserve" xmlns:serif="http://www.serif.com/" style="fill-rule:evenodd;clip-rule:evenodd;stroke-linejoin:round;stroke-miterlimit:2;">
    <path d="M1.63,5.945C1.553,5.945 1.564,5.424 1.604,5.346C1.822,4.908 2.016,4.261 2.595,4.068C3.678,3.707 4.854,3.781 6.01,3.781C6.52,3.781 7.131,3.682 7.627,3.781C8.581,3.972 9.614,3.911 10.6,3.911C11.091,3.911 11.636,3.894 12.112,3.99C12.364,4.04 12.779,4.025 13.025,3.963C13.304,3.894 13.706,3.963 13.99,3.963C15.102,3.963 16.138,3.938 17.093,4.511C17.196,4.573 17.264,4.703 17.327,4.798C17.501,5.058 17.757,5.319 17.901,5.606C18.022,5.848 17.953,6.267 17.953,6.545C17.953,6.981 17.961,7.399 18.031,7.823C18.083,8.13 17.956,8.486 18.031,8.787C18.114,9.119 18.057,9.536 18.057,9.883L18.057,12.021C18.057,12.253 18.132,12.655 18.031,12.855C18,12.918 18.05,13.019 18.005,13.064C17.957,13.112 17.958,13.215 17.901,13.272C17.736,13.438 17.498,13.694 17.275,13.768C16.805,13.924 16.258,13.836 15.763,13.898C15.617,13.917 15.347,13.833 15.215,13.898C15.132,13.94 15.047,13.906 14.954,13.924C14.526,14.01 14.103,13.994 13.677,14.055C13.144,14.131 12.574,14.081 12.034,14.081C11.435,14.081 10.787,14.183 10.183,14.107C9.829,14.063 9.473,14.012 9.113,13.977C8.113,13.877 7.069,14.094 6.089,13.898C5.881,13.857 5.622,13.898 5.411,13.898C4.647,13.898 3.601,13.997 2.934,13.664C2.756,13.575 2.467,13.51 2.334,13.377C2.211,13.254 2.216,13.012 2.177,12.855C2.105,12.567 1.959,12.305 1.864,12.021C1.722,11.594 1.559,11.182 1.421,10.769C1.385,10.66 1.458,10.514 1.421,10.404C1.327,10.123 1.369,9.773 1.369,9.465C1.369,8.896 1.447,8.365 1.447,7.797C1.447,7.633 1.372,7.244 1.447,7.093C1.511,6.966 1.454,6.785 1.499,6.649C1.577,6.416 1.63,5.999 1.63,5.789" style="fill:none;stroke:black;stroke-width:1px;stroke-linecap:round;stroke-miterlimit:1.5;"/>
    <path d="M7.314,6.128C7.581,6.128 7.988,6.593 8.201,6.806C8.465,7.07 8.924,7.225 9.244,7.379C9.344,7.428 9.396,7.551 9.478,7.614C9.699,7.781 9.956,8.054 10.209,8.188C10.474,8.329 10.754,8.519 10.967,8.732C11.092,8.857 11.179,9.013 11.33,9.126C11.462,9.226 11.568,9.329 11.695,9.413C11.716,9.427 11.928,9.519 11.904,9.544C11.715,9.732 11.264,9.69 11.017,9.752C10.304,9.93 9.614,10.201 8.905,10.378C8.585,10.458 8.33,10.752 8.044,10.847C7.965,10.874 7.761,10.949 7.705,11.004C7.58,11.129 7.505,11.204 7.392,11.317C7.384,11.326 7.281,11.414 7.262,11.395C7.224,11.357 7.236,11.132 7.236,11.082C7.236,10.894 7.177,10.639 7.132,10.456C6.888,9.483 7.001,8.505 7.001,7.51L7.001,6.597C7.001,6.552 6.97,6.341 7.001,6.31C7.043,6.268 7.351,6.634 7.366,6.649C7.718,7.001 8.053,7.472 8.462,7.744C8.779,7.956 9.069,8.161 9.4,8.344C9.622,8.467 9.812,8.68 10.026,8.787C10.161,8.855 10.458,9.046 10.365,9.231C10.328,9.304 10.077,9.336 10,9.361C9.631,9.484 9.211,9.491 8.827,9.596C8.508,9.683 8.188,9.809 7.888,9.909C7.85,9.922 7.651,10.167 7.627,10.143C7.593,10.109 7.627,9.907 7.627,9.857C7.627,9.548 7.678,9.195 7.627,8.892C7.583,8.628 7.52,8.31 7.419,8.057C7.396,8.001 7.281,7.778 7.34,7.718C7.397,7.661 7.74,7.924 7.784,7.953C8.105,8.167 8.448,8.395 8.618,8.735C8.722,8.943 8.521,9.326 8.279,9.205C8.244,9.187 8.348,9.168 8.383,9.153C8.43,9.133 8.467,9.095 8.514,9.074C8.676,9.002 8.855,8.943 9.009,8.866C9.095,8.823 9.196,8.888 9.27,8.814" style="fill:none;stroke:black;stroke-width:1px;stroke-linecap:round;stroke-miterlimit:1.5;"/>
</svg>
