<?xml version="1.0" encoding="UTF-8" standalone="no"?>
<!DOCTYPE svg PUBLIC "-//W3C//DTD SVG 1.1//EN" "http://www.w3.org/Graphics/SVG/1.1/DTD/svg11.dtd">
<svg width="100%" height="100%" viewBox="0 0 113 114" version="1.1" xmlns="http://www.w3.org/2000/svg" xmlns:xlink="http://www.w3.org/1999/xlink" xml:space="preserve" xmlns:serif="http://www.serif.com/" style="fill-rule:evenodd;clip-rule:evenodd;stroke-linejoin:round;stroke-miterlimit:2;">
    <g id="ArtBoard1" transform="matrix(0.141139,0,0,0.823344,0,0)">
        <rect x="0" y="0" width="800" height="138" style="fill:none;"/>
        <g transform="matrix(7.08523,0,0,1.21456,0,-15.5838)">
            <path d="M56.246,125.116C86.911,125.116 111.771,100.258 111.771,69.593C111.771,38.927 86.911,14.069 56.246,14.069C25.581,14.069 0.722,38.928 0.722,69.593C0.722,100.258 25.581,125.116 56.246,125.116" style="fill:rgb(0,173,255);fill-rule:nonzero;"/>
            <path d="M86.136,37.744L74.635,37.744C72.643,37.744 71.365,38.547 71.365,40.805C71.365,42.559 72.197,45.202 72.969,46.867C71.959,47.254 71.365,48.116 71.365,49.662C71.365,51.416 72.227,54 72.969,55.546L71.662,55.665L71.662,57.181L86.135,57.181L86.135,55.458L74.635,55.458C73.683,53.645 72.97,51.088 72.97,49.9C72.97,48.889 73.356,48.325 74.426,48.325L86.136,48.325L86.136,46.602L74.635,46.602C73.683,44.789 72.97,42.411 72.97,41.044C72.97,40.033 73.356,39.468 74.426,39.468L86.136,39.468L86.136,37.744ZM83.401,63.66C84.323,64.966 84.888,66.661 84.888,68.087C84.888,70.108 84.115,70.465 82.421,70.465C80.519,70.465 79.924,69.871 79.924,67.879L79.924,63.66L83.401,63.66ZM75.556,61.937C72.852,61.937 71.366,63.422 71.366,67.167C71.366,68.652 71.604,70.465 71.93,71.624L73.386,71.357C73.118,70.019 72.911,68.503 72.911,67.077C72.911,64.701 73.565,63.66 75.556,63.66L78.379,63.66L78.379,67.94C78.379,70.792 79.33,72.19 82.39,72.19C84.976,72.19 86.432,71.002 86.432,68.445C86.432,66.542 85.868,64.937 85.006,63.54L86.135,63.422L86.135,61.937L75.556,61.937ZM76.566,84.609C74.129,84.609 72.851,83.63 72.851,80.922C72.851,78.222 74.129,77.359 76.566,77.359L77.873,77.359L77.873,84.609L76.566,84.609ZM81.232,84.609L79.418,84.609L79.418,75.665L76.626,75.665C73.653,75.665 71.365,76.855 71.365,80.925C71.365,84.998 73.653,86.336 76.626,86.336L81.173,86.336C84.323,86.336 86.433,85.027 86.433,80.956C86.433,79.202 86.106,77.3 85.631,75.962L84.235,76.262C84.622,77.688 84.918,79.352 84.918,80.837C84.917,83.721 83.818,84.609 81.232,84.609M84.53,89.424C84.798,90.286 84.947,91.208 84.947,92.01C84.947,93.497 84.411,93.673 83.134,93.673L73.148,93.673L73.148,89.424L71.663,89.247L71.663,93.673L68.008,93.673L68.245,95.401L71.663,95.401L71.663,98.194L73.148,98.194L73.148,95.4L83.313,95.4C85.601,95.4 86.433,94.419 86.433,92.129C86.433,91.089 86.195,89.926 85.869,89.099L84.53,89.424Z" style="fill:rgb(26,26,24);fill-rule:nonzero;"/>
            <path d="M95.745,77.477C95.745,73.543 95.339,72.33 89.706,71.074C87.356,70.547 87.193,70.384 87.193,69.17C87.193,68.276 87.599,67.832 89.3,67.832C90.84,67.832 92.988,68.075 94.731,68.399L95.257,63.86C93.514,63.414 90.759,63.212 89.259,63.212C83.344,63.212 81.722,64.954 81.722,69.128C81.722,72.816 82.168,74.112 86.95,75.289C90.111,76.06 90.151,76.224 90.151,77.477C90.151,78.651 89.868,79.137 88.125,79.137C85.937,79.137 83.788,78.733 82.168,78.245L81.235,82.581C83.181,83.23 86.26,83.757 88.408,83.757C94.043,83.756 95.745,81.527 95.745,77.477M59.393,77.148C58.542,77.877 57.002,78.689 55.665,78.689C54.125,78.689 53.558,77.836 53.558,76.46L53.558,70.503C53.558,69.206 54.125,68.273 55.665,68.273C56.881,68.273 58.38,68.517 59.393,68.76L59.393,77.148ZM47.722,76.461C47.722,81.282 49.951,83.756 53.963,83.756C56.111,83.756 58.665,82.661 60.042,81.772L60.65,83.35L65.229,83.35L65.229,54.738L59.393,55.549L59.393,63.776C58.056,63.452 55.989,63.209 54.368,63.209C49.749,63.209 47.722,65.844 47.722,70.504L47.722,76.461ZM43.468,63.614L37.632,63.614L37.632,83.35L43.468,83.35L43.468,63.614ZM43.468,54.941L37.632,54.941L37.632,61.141L43.468,61.141L43.468,54.941ZM22.88,73.421L28.149,83.35L34.391,83.35L28.96,73.421L34.147,63.614L27.906,63.614L22.88,73.421ZM22.11,83.35L22.11,54.738L16.274,55.549L16.274,83.35L22.11,83.35Z" style="fill:white;fill-rule:nonzero;"/>
        </g>
    </g>
</svg>
