<?xml version="1.0" encoding="UTF-8" standalone="no"?>
<!DOCTYPE svg PUBLIC "-//W3C//DTD SVG 1.1//EN" "http://www.w3.org/Graphics/SVG/1.1/DTD/svg11.dtd">
<svg width="100%" height="100%" viewBox="0 0 147 121" version="1.1" xmlns="http://www.w3.org/2000/svg" xmlns:xlink="http://www.w3.org/1999/xlink" xml:space="preserve" xmlns:serif="http://www.serif.com/" style="fill-rule:evenodd;clip-rule:evenodd;stroke-linejoin:round;stroke-miterlimit:2;">
    <g id="ArtBoard1" transform="matrix(0.0761828,0,0,0.111824,0,0)">
        <rect x="0" y="0" width="1920" height="1080" style="fill:none;"/>
        <g transform="matrix(13.1263,0,0,8.94263,-22575.2,-2919.01)">
            <path d="M1824.84,426.308C1815.61,426.506 1806.38,426.907 1797.15,427.273C1787.88,427.64 1778.6,427.938 1769.32,427.973C1764.68,427.99 1760.05,428.027 1755.41,428.004C1753.6,427.995 1751.81,427.956 1750.02,427.941C1749.63,427.53 1749.21,427.184 1748.77,426.92C1749.89,425.499 1751.01,424.082 1752.15,422.67C1752.53,423.113 1752.75,423.714 1752.74,424.455C1752.74,424.765 1753.24,424.763 1753.22,424.455C1753.18,423.662 1752.97,422.908 1752.41,422.348C1753.31,421.228 1754.22,420.109 1755.14,418.997C1755.94,420.562 1757,421.959 1758.28,423.258C1758.49,423.479 1758.83,423.14 1758.62,422.919C1757.33,421.606 1756.26,420.199 1755.49,418.61C1755.59,418.523 1755.7,418.436 1755.8,418.347C1757.43,416.952 1759.18,415.524 1760.88,414.023C1761.84,415.485 1762.79,416.946 1763.74,418.406C1763.88,418.623 1764.23,418.418 1764.08,418.205C1763.09,416.748 1762.1,415.29 1761.1,413.833C1762.9,412.247 1764.64,410.58 1766.14,408.785C1766.71,409.458 1767.22,410.226 1767.84,410.96C1768.03,411.178 1768.34,410.901 1768.22,410.669C1767.78,409.823 1767.2,409.018 1766.51,408.346C1767.23,407.459 1767.89,406.541 1768.46,405.586C1768.74,405.114 1768.2,404.654 1767.75,404.876C1767.62,404.939 1767.5,405.01 1767.37,405.076C1768.05,404.354 1768.73,403.638 1769.42,402.924C1769.8,403.326 1770.19,403.727 1770.58,404.129C1771.46,405.054 1772.31,406.158 1773.36,406.898C1773.55,407.035 1773.82,406.764 1773.68,406.57C1773.01,405.615 1772.02,404.848 1771.18,404.039C1770.68,403.568 1770.19,403.097 1769.7,402.625C1770.96,401.323 1772.23,400.038 1773.51,398.764C1774.12,399.419 1774.73,400.076 1775.34,400.731C1775.98,401.423 1776.61,402.353 1777.46,402.799C1777.67,402.912 1777.9,402.686 1777.78,402.471C1777.38,401.708 1776.58,401.153 1775.95,400.572C1775.22,399.891 1774.48,399.208 1773.75,398.527C1775.6,396.698 1777.47,394.901 1779.38,393.142C1779.89,394.408 1780.55,395.57 1781.51,396.612C1781.71,396.839 1782.07,396.489 1781.84,396.274C1780.84,395.299 1780.13,394.191 1779.57,392.967C1782.15,390.595 1784.78,388.295 1787.47,386.076C1789.72,387.761 1792.05,389.324 1794.5,390.703C1797.48,392.379 1801.71,395.035 1805.16,393.275C1806.58,392.55 1807.68,391.069 1808.76,389.939C1810.39,388.218 1812.16,386.597 1813.93,385.002C1815.01,386.224 1816.08,387.454 1817.13,388.692C1817.08,388.705 1817.03,388.74 1817,388.806C1816.64,389.496 1816.27,390.18 1815.85,390.837C1815.38,391.575 1814.7,392.161 1814.26,392.906C1814.14,393.11 1814.38,393.363 1814.59,393.234C1815.95,392.384 1816.74,390.439 1817.41,389.048C1817.42,389.039 1817.41,389.03 1817.42,389.021C1818.5,390.296 1819.58,391.576 1820.65,392.865C1820.07,394.687 1819.58,396.581 1819.7,398.493C1819.71,398.805 1820.15,398.798 1820.17,398.493C1820.34,396.7 1820.61,395.036 1821.05,393.352C1822.88,395.551 1824.68,397.765 1826.48,399.981C1826.46,400.323 1826.43,400.665 1826.38,401.005C1826.21,402.051 1825.67,402.917 1825.19,403.837C1825.05,404.12 1825.42,404.318 1825.61,404.08C1826.44,403.003 1826.79,401.792 1826.92,400.523C1828.22,402.124 1829.52,403.725 1830.83,405.324C1830.76,406.621 1829.99,407.583 1829.4,408.681C1829.32,408.817 1829.54,408.939 1829.6,408.802C1830.15,407.68 1830.86,406.689 1830.9,405.413C1831.54,406.196 1832.18,406.98 1832.82,407.761C1833.39,408.452 1833.92,409.157 1834.45,409.869C1833.65,410.823 1833.1,411.931 1832.55,413.046C1828.39,409.063 1823.86,405.439 1819.96,401.197C1819.93,401.159 1819.87,401.215 1819.91,401.253C1823.79,405.534 1828.31,409.212 1832.46,413.231C1832.32,413.517 1832.17,413.802 1832.03,414.086C1831.88,414.362 1832.32,414.605 1832.44,414.328C1832.56,414.068 1832.67,413.806 1832.78,413.543C1832.91,413.669 1833.04,413.792 1833.17,413.917C1834.17,414.907 1835.21,415.949 1836.23,417.039C1836.15,417.452 1836.11,417.878 1836.09,418.306C1836.08,418.614 1836.57,418.615 1836.57,418.306C1836.57,418.018 1836.58,417.732 1836.61,417.448C1838.15,419.125 1839.63,420.924 1840.85,422.843C1840.62,423.431 1840.05,423.922 1839.64,424.341C1839.49,424.487 1839.72,424.713 1839.86,424.568C1840.27,424.155 1840.77,423.697 1841.05,423.157C1841.64,424.106 1842.15,425.088 1842.57,426.097C1841.22,426.125 1839.88,426.162 1838.58,426.158C1834,426.143 1829.42,426.209 1824.84,426.308ZM1747.98,427.937C1748.14,427.74 1748.29,427.544 1748.44,427.348C1748.69,427.528 1748.93,427.732 1749.17,427.938C1748.78,427.937 1748.38,427.935 1747.98,427.937ZM1746.45,426.4C1745.9,426.48 1745.33,426.707 1744.74,427.119C1744.66,427.177 1744.73,427.307 1744.82,427.256C1745.28,427.003 1745.73,426.815 1746.19,426.735C1745.9,427.106 1745.6,427.473 1745.31,427.846C1745.27,427.896 1745.24,427.949 1745.21,428C1744.11,428.042 1743,428.116 1741.89,428.227C1742.05,428.053 1742.17,427.839 1742.23,427.577C1742.25,427.571 1742.26,427.573 1742.27,427.566C1744.35,426.58 1746.32,425.435 1748.2,424.182C1747.62,424.917 1747.03,425.66 1746.45,426.4ZM1768.57,369.276C1774.54,374.715 1780.36,380.642 1786.84,385.592C1784.12,387.473 1781.53,389.504 1779.02,391.636C1778.98,391.547 1778.84,391.584 1778.87,391.682C1778.87,391.703 1778.88,391.725 1778.89,391.746C1775.28,394.817 1771.84,398.1 1768.49,401.463C1768.37,401.347 1768.25,401.229 1768.12,401.112C1767.97,400.97 1767.76,401.189 1767.9,401.338C1768.02,401.461 1768.13,401.584 1768.25,401.706C1767.38,402.577 1766.52,403.455 1765.67,404.335C1764.92,405.105 1764.18,405.882 1763.44,406.661C1763.15,406.605 1762.85,406.573 1762.55,406.571C1762.39,406.57 1762.39,406.803 1762.55,406.811C1762.78,406.824 1763,406.855 1763.21,406.895C1760.43,409.834 1757.72,412.839 1755.08,415.903C1754.93,416.047 1754.77,416.191 1754.62,416.334C1754.61,416.286 1754.59,416.241 1754.58,416.193C1754.5,415.894 1754.04,416.02 1754.12,416.32C1754.15,416.45 1754.2,416.574 1754.23,416.701C1750.5,420.23 1746.59,423.717 1742.28,426.506C1742.37,412.749 1742.01,399.01 1741.62,385.261C1741.25,372.278 1740.91,359.254 1740.09,346.286C1749.01,354.608 1759.55,361.068 1768.57,369.276ZM1747.83,345.702C1748.19,347.428 1748.48,349.142 1748.61,350.922C1746.66,349.598 1744.72,348.259 1742.81,346.867C1741.89,346.192 1740.94,345.546 1740,344.901C1740,344.889 1740,344.875 1739.99,344.863C1742.59,345.256 1745.21,345.518 1747.83,345.702ZM1760,346.214C1760.13,347.348 1760.32,349.165 1760.33,349.375C1760.41,350.758 1760.37,352.242 1760.97,353.521C1761.08,353.743 1761.42,353.628 1761.42,353.4C1761.38,351.303 1760.9,349.158 1760.6,347.083C1760.59,347.006 1760.56,346.635 1760.49,346.229C1762.4,346.291 1764.31,346.359 1766.21,346.456C1766.51,346.471 1766.81,346.484 1767.11,346.499C1767.38,347.057 1767.6,347.634 1767.76,348.247C1768.08,349.498 1767.82,350.77 1767.77,352.034C1767.76,352.26 1768.12,352.379 1768.22,352.155C1769.03,350.268 1768.58,348.278 1767.67,346.525C1772.77,346.773 1777.86,346.952 1782.96,347.118C1782.95,348.757 1782.93,350.396 1782.92,352.034C1782.92,352.188 1783.16,352.188 1783.16,352.034C1783.15,350.397 1783.14,348.76 1783.13,347.123C1785.79,347.211 1788.46,347.296 1791.12,347.386L1791.12,350.668C1791.12,350.823 1791.36,350.823 1791.36,350.668L1791.36,347.395C1792.54,347.435 1793.73,347.477 1794.91,347.52C1801,347.745 1807.09,347.889 1813.17,348C1811.48,350.524 1810.01,353.35 1808.93,356.113C1808.89,356.196 1809.04,356.256 1809.07,356.174C1810.38,353.242 1812.41,350.766 1813.98,348.014C1816.72,348.063 1819.47,348.107 1822.22,348.144C1820.95,349.853 1819.88,351.695 1818.43,353.259C1818.25,353.447 1818.53,353.723 1818.71,353.542C1820.31,351.965 1821.69,350.091 1822.82,348.153C1823.04,348.155 1823.26,348.16 1823.48,348.162C1828.06,348.222 1832.63,348.302 1837.21,348.366C1839.49,348.398 1841.77,348.419 1844.04,348.434C1844.51,348.435 1844.99,348.46 1845.49,348.485C1844.81,349.204 1844.16,349.946 1843.52,350.702C1841.8,351.962 1839.93,352.966 1837.69,353.379C1837.67,353.385 1837.68,353.427 1837.71,353.422C1839.49,353.058 1841.2,352.421 1842.8,351.564C1841.09,353.653 1839.5,355.84 1837.9,358.005C1833.97,363.312 1829.99,368.035 1824.7,372.014C1819.32,376.049 1814.31,380.302 1809.27,384.734C1807.54,386.248 1806.05,387.973 1804.42,389.585C1803.2,390.8 1802.26,390.569 1800.71,389.99C1795.67,388.105 1791.1,384.723 1786.92,381.405C1782.31,377.75 1777.98,373.755 1773.62,369.817C1769.2,365.823 1764.66,362.143 1759.84,358.635C1756.34,356.082 1752.71,353.699 1749.12,351.27C1749.15,349.372 1748.68,347.537 1748.15,345.723C1750.16,345.858 1752.16,345.952 1754.17,346.026C1754.14,348.138 1754.21,350.418 1755.51,352.155C1755.69,352.397 1756.07,352.194 1755.92,351.913C1754.91,349.957 1754.61,348.141 1754.53,346.04C1756.36,346.104 1758.18,346.157 1760,346.214ZM1837.52,414.359C1836.87,415.012 1836.48,415.869 1836.27,416.807C1835.58,416.071 1834.88,415.356 1834.2,414.665C1833.76,414.221 1833.31,413.788 1832.86,413.353C1833.35,412.199 1833.83,411.045 1834.57,410.035C1835.61,411.444 1836.58,412.891 1837.52,414.359ZM1814.78,384.244C1815.16,383.902 1815.54,383.558 1815.92,383.216C1820.94,378.727 1826.94,375.323 1831.78,370.668C1836.04,366.563 1839.42,361.615 1842.95,356.899C1844.47,354.877 1846.04,352.901 1847.77,351.062C1847.5,355.8 1847.61,360.596 1847.71,365.308C1847.83,371.813 1847.98,378.33 1848.29,384.83C1848.81,395.537 1849.3,406.246 1849.44,416.964C1848.15,418.879 1848.12,421.839 1848.07,424.516C1847.45,423.884 1846.85,423.233 1846.3,422.522C1844.92,420.736 1843.72,418.821 1842.52,416.913C1840.1,413.052 1837.71,409.304 1834.77,405.811C1828.53,398.397 1822.43,390.309 1814.78,384.244ZM1840.96,422.405C1840.95,422.44 1840.94,422.474 1840.94,422.509C1839.68,420.614 1838.18,418.846 1836.64,417.192C1836.76,416.228 1837.08,415.322 1837.69,414.625C1838.71,416.242 1839.71,417.883 1840.73,419.53C1841.98,421.555 1843.42,423.983 1845.13,426.067C1844.38,426.066 1843.63,426.077 1842.89,426.091C1842.41,424.981 1841.83,423.912 1841.17,422.878C1841.23,422.727 1841.27,422.57 1841.27,422.405C1841.29,422.198 1840.97,422.2 1840.96,422.405ZM1851.88,426.666C1851.4,426.558 1850.9,426.47 1850.4,426.396C1850.43,426.29 1850.46,426.183 1850.49,426.076C1851.61,426.592 1853.25,426.056 1853.24,424.455C1853.16,411.515 1852.45,398.596 1851.71,385.681C1851.33,379.17 1850.8,372.667 1850.41,366.155C1850.08,360.592 1849.93,354.966 1849.41,349.408C1849.99,348.85 1850.59,348.303 1851.21,347.783C1852.66,346.575 1851.11,344.652 1849.58,344.969C1848.12,344.462 1846.44,344.678 1844.9,344.665C1842.62,344.647 1840.34,344.614 1838.07,344.577C1833.49,344.503 1828.91,344.391 1824.34,344.204C1814.82,343.815 1805.3,343.268 1795.78,342.916C1786.22,342.564 1776.65,342.056 1767.08,342.024C1758.07,341.995 1748.8,341.488 1739.86,342.832C1739.85,342.71 1739.84,342.59 1739.83,342.469C1739.79,341.8 1738.84,341.8 1738.8,342.469C1738.78,342.672 1738.77,342.877 1738.76,343.082C1738.53,343.246 1738.42,343.528 1738.41,343.815C1738.3,343.741 1738.2,343.669 1738.09,343.594C1737.83,343.408 1737.53,343.813 1737.75,344.034C1738.04,344.328 1738.34,344.612 1738.64,344.901C1737.85,358.029 1738.11,371.259 1738.38,384.395C1738.67,398.656 1738.97,412.923 1739.08,427.188C1739.09,428.178 1739.83,428.686 1740.59,428.725C1740.6,428.733 1740.61,428.741 1740.63,428.747C1744.94,430.122 1749.18,430.529 1753.68,430.893C1758.31,431.267 1762.94,431.548 1767.58,431.62C1777.15,431.768 1786.72,431.581 1796.28,431.337C1805.51,431.104 1814.75,430.788 1823.98,430.588C1828.56,430.489 1833.14,430.439 1837.72,430.447C1842.36,430.454 1847.3,431.104 1851.88,430.443C1853.83,430.16 1853.69,427.065 1851.88,426.666Z" style="fill:white;fill-rule:nonzero;"/>
        </g>
    </g>
</svg>
